<?xml version="1.0" encoding="utf-8"?>
<!-- created with bpmn-js / http://bpmn.io -->
<!DOCTYPE svg PUBLIC "-//W3C//DTD SVG 1.1//EN" "http://www.w3.org/Graphics/SVG/1.1/DTD/svg11.dtd">
<svg xmlns="http://www.w3.org/2000/svg" xmlns:xlink="http://www.w3.org/1999/xlink" width="1910" height="960" viewBox="155 55 1910 960" version="1.1"><defs><pattern id="djs-grid-pattern-548596" width="10" height="10" patternUnits="userSpaceOnUse"><circle cx="0.5" cy="0.5" r="0.5" style="fill: rgb(204, 204, 204);"/></pattern></defs><g class="djs-group"><g class="djs-element djs-shape" data-element-id="Participant_CLMP" transform="matrix(1, 0, 0, 1, 160, 60)" style="display: block;"><g class="djs-visual"><rect x="0" y="0" width="1900" height="950" rx="0" ry="0" style="stroke-linecap: round; stroke-linejoin: round; stroke: rgb(34, 36, 42); stroke-width: 1.5px; fill: white; fill-opacity: 0.95;"/><path style="fill: none; stroke-linecap: round; stroke-linejoin: round; stroke: rgb(34, 36, 42); stroke-width: 1.5px;" d="M30,0L30,950"/><text style="font-family: Arial, sans-serif; font-size: 12px; font-weight: normal; fill: rgb(34, 36, 42);" lineHeight="1.2" class="djs-label" transform="matrix(-1.83697e-16, -1, 1, -1.83697e-16, 0, 950)"><tspan x="386" y="18.6">Closed-Loop-Medikationsprozess</tspan></text></g><rect style="fill: none; stroke-opacity: 0; stroke: white; stroke-width: 15px;" class="djs-hit djs-hit-no-move" x="0" y="0" width="1900" height="950"/><rect style="fill: none; stroke-opacity: 0; stroke: white; stroke-width: 15px;" class="djs-hit djs-hit-click-stroke" x="0" y="0" width="1900" height="950"/><rect style="fill: none; stroke-opacity: 0; stroke: white; stroke-width: 15px;" class="djs-hit djs-hit-all" x="0" y="0" width="30" height="950"/><rect x="-5" y="-5" rx="4" width="1910" height="960" style="fill: none;" class="djs-outline"/></g><g class="djs-children"><g class="djs-group"><g class="djs-element djs-shape" data-element-id="Lane_Pflege" transform="matrix(1, 0, 0, 1, 190, 710)" style="display: block;"><g class="djs-visual"><rect x="0" y="0" width="1870" height="300" rx="0" ry="0" style="stroke-linecap: round; stroke-linejoin: round; stroke: rgb(34, 36, 42); stroke-width: 1.5px; fill: white; fill-opacity: 0.25;"/><text style="font-family: Arial, sans-serif; font-size: 12px; font-weight: normal; fill: rgb(34, 36, 42);" lineHeight="1.2" class="djs-label" transform="matrix(-1.83697e-16, -1, 1, -1.83697e-16, 0, 300)"><tspan x="89" y="18.6">Pflege / BCMA / eMAR</tspan></text></g><rect style="fill: none; stroke-opacity: 0; stroke: white; stroke-width: 15px;" class="djs-hit djs-hit-no-move" x="0" y="0" width="1870" height="300"/><rect style="fill: none; stroke-opacity: 0; stroke: white; stroke-width: 15px;" class="djs-hit djs-hit-click-stroke" x="0" y="0" width="1870" height="300"/><rect style="fill: none; stroke-opacity: 0; stroke: white; stroke-width: 15px;" class="djs-hit djs-hit-all" x="0" y="0" width="30" height="300"/><rect x="-5" y="-5" rx="4" width="1880" height="310" style="fill: none;" class="djs-outline"/></g></g><g class="djs-group"><g class="djs-element djs-shape" data-element-id="Lane_Kommission" transform="matrix(1, 0, 0, 1, 190, 510)" style="display: block;"><g class="djs-visual"><rect x="0" y="0" width="1870" height="200" rx="0" ry="0" style="stroke-linecap: round; stroke-linejoin: round; stroke: rgb(34, 36, 42); stroke-width: 1.5px; fill: white; fill-opacity: 0.25;"/><text style="font-family: Arial, sans-serif; font-size: 12px; font-weight: normal; fill: rgb(34, 36, 42);" lineHeight="1.2" class="djs-label" transform="matrix(-1.83697e-16, -1, 1, -1.83697e-16, 0, 200)"><tspan x="19.333335876464844" y="18.6">Kommissionierung / Unit Dose</tspan></text></g><rect style="fill: none; stroke-opacity: 0; stroke: white; stroke-width: 15px;" class="djs-hit djs-hit-no-move" x="0" y="0" width="1870" height="200"/><rect style="fill: none; stroke-opacity: 0; stroke: white; stroke-width: 15px;" class="djs-hit djs-hit-click-stroke" x="0" y="0" width="1870" height="200"/><rect style="fill: none; stroke-opacity: 0; stroke: white; stroke-width: 15px;" class="djs-hit djs-hit-all" x="0" y="0" width="30" height="200"/><rect x="-5" y="-5" rx="4" width="1880" height="210" style="fill: none;" class="djs-outline"/></g></g><g class="djs-group"><g class="djs-element djs-shape" data-element-id="Lane_Apotheke" transform="matrix(1, 0, 0, 1, 190, 310)" style="display: block;"><g class="djs-visual"><rect x="0" y="0" width="1870" height="200" rx="0" ry="0" style="stroke-linecap: round; stroke-linejoin: round; stroke: rgb(34, 36, 42); stroke-width: 1.5px; fill: white; fill-opacity: 0.25;"/><text style="font-family: Arial, sans-serif; font-size: 12px; font-weight: normal; fill: rgb(34, 36, 42);" lineHeight="1.2" class="djs-label" transform="matrix(-1.83697e-16, -1, 1, -1.83697e-16, 0, 200)"><tspan x="40" y="18.6">Krankenhausapotheke</tspan></text></g><rect style="fill: none; stroke-opacity: 0; stroke: white; stroke-width: 15px;" class="djs-hit djs-hit-no-move" x="0" y="0" width="1870" height="200"/><rect style="fill: none; stroke-opacity: 0; stroke: white; stroke-width: 15px;" class="djs-hit djs-hit-click-stroke" x="0" y="0" width="1870" height="200"/><rect style="fill: none; stroke-opacity: 0; stroke: white; stroke-width: 15px;" class="djs-hit djs-hit-all" x="0" y="0" width="30" height="200"/><rect x="-5" y="-5" rx="4" width="1880" height="210" style="fill: none;" class="djs-outline"/></g></g><g class="djs-group"><g class="djs-element djs-shape" data-element-id="Lane_Arzt" transform="matrix(1, 0, 0, 1, 190, 60)" style="display: block;"><g class="djs-visual"><rect x="0" y="0" width="1870" height="250" rx="0" ry="0" style="stroke-linecap: round; stroke-linejoin: round; stroke: rgb(34, 36, 42); stroke-width: 1.5px; fill: white; fill-opacity: 0.25;"/><text style="font-family: Arial, sans-serif; font-size: 12px; font-weight: normal; fill: rgb(34, 36, 42);" lineHeight="1.2" class="djs-label" transform="matrix(-1.83697e-16, -1, 1, -1.83697e-16, 0, 250)"><tspan x="70.358334351331" y="18.6">Arzt / CPOE-System</tspan></text></g><rect style="fill: none; stroke-opacity: 0; stroke: white; stroke-width: 15px;" class="djs-hit djs-hit-no-move" x="0" y="0" width="1870" height="250"/><rect style="fill: none; stroke-opacity: 0; stroke: white; stroke-width: 15px;" class="djs-hit djs-hit-click-stroke" x="0" y="0" width="1870" height="250"/><rect style="fill: none; stroke-opacity: 0; stroke: white; stroke-width: 15px;" class="djs-hit djs-hit-all" x="0" y="0" width="30" height="250"/><rect x="-5" y="-5" rx="4" width="1880" height="260" style="fill: none;" class="djs-outline"/></g></g><g class="djs-group"><g class="djs-element djs-shape" data-element-id="StartEvent_1" transform="matrix(1, 0, 0, 1, 260, 162)" style="display: block;"><g class="djs-visual"><circle cx="18" cy="18" r="18" style="stroke-linecap: round; stroke-linejoin: round; stroke: rgb(34, 36, 42); stroke-width: 2px; fill: white; fill-opacity: 0.95;"/></g><rect style="fill: none; stroke-opacity: 0; stroke: white; stroke-width: 15px;" class="djs-hit djs-hit-all" x="0" y="0" width="36" height="36"/><circle cx="18" cy="18" r="23" style="fill: none;" class="djs-outline"/></g></g><g class="djs-group"><g class="djs-element djs-shape" data-element-id="StartEvent_1_label" transform="matrix(1, 0, 0, 1, 244, 205)" style="display: block;"><g class="djs-visual"><text style="font-family: Arial, sans-serif; font-size: 11px; font-weight: normal; fill: rgb(34, 36, 42);" lineHeight="1.2" class="djs-label"><tspan x="4.274999618530273" y="9.899999999999999">Medikations-</tspan><tspan x="0" y="23.099999999999998">bedarf erkannt</tspan></text></g><rect style="fill: none; stroke-opacity: 0; stroke: white; stroke-width: 15px;" class="djs-hit djs-hit-all" x="0" y="0" width="71" height="27"/><rect x="-5" y="-5" rx="4" width="81" height="37" style="fill: none;" class="djs-outline"/></g></g><g class="djs-group"><g class="djs-element djs-shape" data-element-id="Task_CPOE" transform="matrix(1, 0, 0, 1, 360, 140)" style="display: block;"><g class="djs-visual"><rect x="0" y="0" width="100" height="80" rx="10" ry="10" style="stroke-linecap: round; stroke-linejoin: round; stroke: rgb(34, 36, 42); stroke-width: 2px; fill: white; fill-opacity: 0.95;"/><text style="font-family: Arial, sans-serif; font-size: 12px; font-weight: normal; fill: rgb(34, 36, 42);" lineHeight="1.2" class="djs-label"><tspan x="9.325000762939453" y="36.4">Verordnung im </tspan><tspan x="8.333332061767578" y="50.8">CPOE erfassen</tspan></text></g><rect style="fill: none; stroke-opacity: 0; stroke: white; stroke-width: 15px;" class="djs-hit djs-hit-all" x="0" y="0" width="100" height="80"/><rect x="-5" y="-5" rx="14" width="110" height="90" style="fill: none;" class="djs-outline"/></g></g><g class="djs-group"><g class="djs-element djs-shape" data-element-id="Task_CDSS" transform="matrix(1, 0, 0, 1, 530, 140)" style="display: block;"><g class="djs-visual"><rect x="0" y="0" width="100" height="80" rx="10" ry="10" style="stroke-linecap: round; stroke-linejoin: round; stroke: rgb(34, 36, 42); stroke-width: 2px; fill: white; fill-opacity: 0.95;"/><text style="font-family: Arial, sans-serif; font-size: 12px; font-weight: normal; fill: rgb(34, 36, 42);" lineHeight="1.2" class="djs-label"><tspan x="12.024998474866152" y="14.799999999999999">Automatische </tspan><tspan x="8.666667938232422" y="29.199999999999996">CDSS-Prüfung </tspan><tspan x="10" y="43.599999999999994">(Interaktionen, </tspan><tspan x="31.66666603088379" y="57.99999999999999">Dosis, </tspan><tspan x="24.691666413098574" y="72.39999999999999">Allergien)</tspan></text></g><rect style="fill: none; stroke-opacity: 0; stroke: white; stroke-width: 15px;" class="djs-hit djs-hit-all" x="0" y="0" width="100" height="80"/><rect x="-5" y="-5" rx="14" width="110" height="90" style="fill: none;" class="djs-outline"/></g></g><g class="djs-group"><g class="djs-element djs-shape" data-element-id="Gateway_CDSS" transform="matrix(1, 0, 0, 1, 700, 155)" style="display: block;"><g class="djs-visual"><polygon style="stroke-linecap: round; stroke-linejoin: round; stroke: rgb(34, 36, 42); stroke-width: 2px; fill: white; fill-opacity: 0.95;" points="25,0 50,25 25,50 0,25"/><path style="fill: rgb(34, 36, 42); stroke-linecap: round; stroke-linejoin: round; stroke: rgb(34, 36, 42); stroke-width: 1px;" d="m 16,15 7.42857142857143,9.714285714285715 -7.42857142857143,9.714285714285715 3.428571428571429,0 5.714285714285715,-7.464228571428572 5.714285714285715,7.464228571428572 3.428571428571429,0 -7.42857142857143,-9.714285714285715 7.42857142857143,-9.714285714285715 -3.428571428571429,0 -5.714285714285715,7.464228571428572 -5.714285714285715,-7.464228571428572 -3.428571428571429,0 z"/></g><rect style="fill: none; stroke-opacity: 0; stroke: white; stroke-width: 15px;" class="djs-hit djs-hit-all" x="0" y="0" width="50" height="50"/><rect style="transform-box: fill-box; transform: rotate(45deg); transform-origin: center center 0px; fill: none;" x="2" y="2" rx="4" width="46" height="46" class="djs-outline"/></g></g><g class="djs-group"><g class="djs-element djs-shape" data-element-id="Gateway_CDSS_label" transform="matrix(1, 0, 0, 1, 758, 170)" style="display: block;"><g class="djs-visual"><text style="font-family: Arial, sans-serif; font-size: 11px; font-weight: normal; fill: rgb(34, 36, 42);" lineHeight="1.2" class="djs-label"><tspan x="0" y="9.899999999999999">CDSS-Warnung?</tspan></text></g><rect style="fill: none; stroke-opacity: 0; stroke: white; stroke-width: 15px;" class="djs-hit djs-hit-all" x="0" y="0" width="85" height="14"/><rect x="-5" y="-5" rx="4" width="95" height="24" style="fill: none;" class="djs-outline"/></g></g><g class="djs-group"><g class="djs-element djs-shape" data-element-id="Task_Anpassen" transform="matrix(1, 0, 0, 1, 530, 225)" style="display: block;"><g class="djs-visual"><rect x="0" y="0" width="100" height="80" rx="10" ry="10" style="stroke-linecap: round; stroke-linejoin: round; stroke: rgb(34, 36, 42); stroke-width: 2px; fill: white; fill-opacity: 0.95;"/><text style="font-family: Arial, sans-serif; font-size: 12px; font-weight: normal; fill: rgb(34, 36, 42);" lineHeight="1.2" class="djs-label"><tspan x="17.325000762939453" y="36.4">Verordnung </tspan><tspan x="24" y="50.8">anpassen</tspan></text></g><rect style="fill: none; stroke-opacity: 0; stroke: white; stroke-width: 15px;" class="djs-hit djs-hit-all" x="0" y="0" width="100" height="80"/><rect x="-5" y="-5" rx="14" width="110" height="90" style="fill: none;" class="djs-outline"/></g></g><g class="djs-group"><g class="djs-element djs-shape" data-element-id="Task_Pharma" transform="matrix(1, 0, 0, 1, 810, 370)" style="display: block;"><g class="djs-visual"><rect x="0" y="0" width="100" height="80" rx="10" ry="10" style="stroke-linecap: round; stroke-linejoin: round; stroke: rgb(34, 36, 42); stroke-width: 2px; fill: white; fill-opacity: 0.95;"/><text style="font-family: Arial, sans-serif; font-size: 12px; font-weight: normal; fill: rgb(34, 36, 42);" lineHeight="1.2" class="djs-label"><tspan x="10.333332061767578" y="29.200000000000003">Pharmazeutisc</tspan><tspan x="9" y="43.6">he Prüfung und</tspan><tspan x="26.33333396911621" y="58">Freigabe</tspan></text></g><rect style="fill: none; stroke-opacity: 0; stroke: white; stroke-width: 15px;" class="djs-hit djs-hit-all" x="0" y="0" width="100" height="80"/><rect x="-5" y="-5" rx="14" width="110" height="90" style="fill: none;" class="djs-outline"/></g></g><g class="djs-group"><g class="djs-element djs-shape" data-element-id="Gateway_Freigabe" transform="matrix(1, 0, 0, 1, 980, 385)" style="display: block;"><g class="djs-visual"><polygon style="stroke-linecap: round; stroke-linejoin: round; stroke: rgb(34, 36, 42); stroke-width: 2px; fill: white; fill-opacity: 0.95;" points="25,0 50,25 25,50 0,25"/><path style="fill: rgb(34, 36, 42); stroke-linecap: round; stroke-linejoin: round; stroke: rgb(34, 36, 42); stroke-width: 1px;" d="m 16,15 7.42857142857143,9.714285714285715 -7.42857142857143,9.714285714285715 3.428571428571429,0 5.714285714285715,-7.464228571428572 5.714285714285715,7.464228571428572 3.428571428571429,0 -7.42857142857143,-9.714285714285715 7.42857142857143,-9.714285714285715 -3.428571428571429,0 -5.714285714285715,7.464228571428572 -5.714285714285715,-7.464228571428572 -3.428571428571429,0 z"/></g><rect style="fill: none; stroke-opacity: 0; stroke: white; stroke-width: 15px;" class="djs-hit djs-hit-all" x="0" y="0" width="50" height="50"/><rect style="transform-box: fill-box; transform: rotate(45deg); transform-origin: center center 0px; fill: none;" x="2" y="2" rx="4" width="46" height="46" class="djs-outline"/></g></g><g class="djs-group"><g class="djs-element djs-shape" data-element-id="Gateway_Freigabe_label" transform="matrix(1, 0, 0, 1, 1040, 400)" style="display: block;"><g class="djs-visual"><text style="font-family: Arial, sans-serif; font-size: 11px; font-weight: normal; fill: rgb(34, 36, 42);" lineHeight="1.2" class="djs-label"><tspan x="0" y="9.899999999999999">Freigabe erteilt?</tspan></text></g><rect style="fill: none; stroke-opacity: 0; stroke: white; stroke-width: 15px;" class="djs-hit djs-hit-all" x="0" y="0" width="80" height="14"/><rect x="-5" y="-5" rx="4" width="90" height="24" style="fill: none;" class="djs-outline"/></g></g><g class="djs-group"><g class="djs-element djs-shape" data-element-id="Task_Kommission" transform="matrix(1, 0, 0, 1, 1070, 570)" style="display: block;"><g class="djs-visual"><rect x="0" y="0" width="100" height="80" rx="10" ry="10" style="stroke-linecap: round; stroke-linejoin: round; stroke: rgb(34, 36, 42); stroke-width: 2px; fill: white; fill-opacity: 0.95;"/><text style="font-family: Arial, sans-serif; font-size: 12px; font-weight: normal; fill: rgb(34, 36, 42);" lineHeight="1.2" class="djs-label"><tspan x="10.024998474866152" y="22">Automatisierte </tspan><tspan x="7.333332061767578" y="36.4">Kommissionieru</tspan><tspan x="11" y="50.8">ng (Unit-Dose-</tspan><tspan x="26.66666603088379" y="65.19999999999999">Roboter)</tspan></text></g><rect style="fill: none; stroke-opacity: 0; stroke: white; stroke-width: 15px;" class="djs-hit djs-hit-all" x="0" y="0" width="100" height="80"/><rect x="-5" y="-5" rx="14" width="110" height="90" style="fill: none;" class="djs-outline"/></g></g><g class="djs-group"><g class="djs-element djs-shape" data-element-id="Task_Verpackung" transform="matrix(1, 0, 0, 1, 1240, 570)" style="display: block;"><g class="djs-visual"><rect x="0" y="0" width="100" height="80" rx="10" ry="10" style="stroke-linecap: round; stroke-linejoin: round; stroke: rgb(34, 36, 42); stroke-width: 2px; fill: white; fill-opacity: 0.95;"/><text style="font-family: Arial, sans-serif; font-size: 12px; font-weight: normal; fill: rgb(34, 36, 42);" lineHeight="1.2" class="djs-label"><tspan x="11" y="14.799999999999999">Patientenindivi</tspan><tspan x="32.33333396911621" y="29.199999999999996">duelle </tspan><tspan x="16.65833282470703" y="43.599999999999994">Verpackung </tspan><tspan x="14" y="57.99999999999999">und Barcode-</tspan><tspan x="16.666667938232422" y="72.39999999999999">Etikettierung</tspan></text></g><rect style="fill: none; stroke-opacity: 0; stroke: white; stroke-width: 15px;" class="djs-hit djs-hit-all" x="0" y="0" width="100" height="80"/><rect x="-5" y="-5" rx="14" width="110" height="90" style="fill: none;" class="djs-outline"/></g></g><g class="djs-group"><g class="djs-element djs-shape" data-element-id="Task_Transport" transform="matrix(1, 0, 0, 1, 1410, 570)" style="display: block;"><g class="djs-visual"><rect x="0" y="0" width="100" height="80" rx="10" ry="10" style="stroke-linecap: round; stroke-linejoin: round; stroke: rgb(34, 36, 42); stroke-width: 2px; fill: white; fill-opacity: 0.95;"/><text style="font-family: Arial, sans-serif; font-size: 12px; font-weight: normal; fill: rgb(34, 36, 42);" lineHeight="1.2" class="djs-label"><tspan x="12.683334350585938" y="36.4">Transport auf </tspan><tspan x="31.33333396911621" y="50.8">Station</tspan></text></g><rect style="fill: none; stroke-opacity: 0; stroke: white; stroke-width: 15px;" class="djs-hit djs-hit-all" x="0" y="0" width="100" height="80"/><rect x="-5" y="-5" rx="14" width="110" height="90" style="fill: none;" class="djs-outline"/></g></g><g class="djs-group"><g class="djs-element djs-shape" data-element-id="Task_ScanPatient" transform="matrix(1, 0, 0, 1, 1070, 810)" style="display: block;"><g class="djs-visual"><rect x="0" y="0" width="100" height="80" rx="10" ry="10" style="stroke-linecap: round; stroke-linejoin: round; stroke: rgb(34, 36, 42); stroke-width: 2px; fill: white; fill-opacity: 0.95;"/><text style="font-family: Arial, sans-serif; font-size: 12px; font-weight: normal; fill: rgb(34, 36, 42);" lineHeight="1.2" class="djs-label"><tspan x="22.66666603088379" y="29.200000000000003">Patienten-</tspan><tspan x="24.66666603088379" y="43.6">armband </tspan><tspan x="27.33333396911621" y="58">scannen</tspan></text></g><rect style="fill: none; stroke-opacity: 0; stroke: white; stroke-width: 15px;" class="djs-hit djs-hit-all" x="0" y="0" width="100" height="80"/><rect x="-5" y="-5" rx="14" width="110" height="90" style="fill: none;" class="djs-outline"/></g></g><g class="djs-group"><g class="djs-element djs-shape" data-element-id="Task_ScanMed" transform="matrix(1, 0, 0, 1, 1240, 810)" style="display: block;"><g class="djs-visual"><rect x="0" y="0" width="100" height="80" rx="10" ry="10" style="stroke-linecap: round; stroke-linejoin: round; stroke: rgb(34, 36, 42); stroke-width: 2px; fill: white; fill-opacity: 0.95;"/><text style="font-family: Arial, sans-serif; font-size: 12px; font-weight: normal; fill: rgb(34, 36, 42);" lineHeight="1.2" class="djs-label"><tspan x="8.666667938232422" y="29.200000000000003">Medikamenten-</tspan><tspan x="26" y="43.6">Barcode </tspan><tspan x="27.33333396911621" y="58">scannen</tspan></text></g><rect style="fill: none; stroke-opacity: 0; stroke: white; stroke-width: 15px;" class="djs-hit djs-hit-all" x="0" y="0" width="100" height="80"/><rect x="-5" y="-5" rx="14" width="110" height="90" style="fill: none;" class="djs-outline"/></g></g><g class="djs-group"><g class="djs-element djs-shape" data-element-id="Gateway_5R" transform="matrix(1, 0, 0, 1, 1410, 825)" style="display: block;"><g class="djs-visual"><polygon style="stroke-linecap: round; stroke-linejoin: round; stroke: rgb(34, 36, 42); stroke-width: 2px; fill: white; fill-opacity: 0.95;" points="25,0 50,25 25,50 0,25"/><path style="fill: rgb(34, 36, 42); stroke-linecap: round; stroke-linejoin: round; stroke: rgb(34, 36, 42); stroke-width: 1px;" d="m 16,15 7.42857142857143,9.714285714285715 -7.42857142857143,9.714285714285715 3.428571428571429,0 5.714285714285715,-7.464228571428572 5.714285714285715,7.464228571428572 3.428571428571429,0 -7.42857142857143,-9.714285714285715 7.42857142857143,-9.714285714285715 -3.428571428571429,0 -5.714285714285715,7.464228571428572 -5.714285714285715,-7.464228571428572 -3.428571428571429,0 z"/></g><rect style="fill: none; stroke-opacity: 0; stroke: white; stroke-width: 15px;" class="djs-hit djs-hit-all" x="0" y="0" width="50" height="50"/><rect style="transform-box: fill-box; transform: rotate(45deg); transform-origin: center center 0px; fill: none;" x="2" y="2" rx="4" width="46" height="46" class="djs-outline"/></g></g><g class="djs-group"><g class="djs-element djs-shape" data-element-id="Gateway_5R_label" transform="matrix(1, 0, 0, 1, 1405, 882)" style="display: block;"><g class="djs-visual"><text style="font-family: Arial, sans-serif; font-size: 11px; font-weight: normal; fill: rgb(34, 36, 42);" lineHeight="1.2" class="djs-label"><tspan x="0" y="9.899999999999999">5R-Prüfung </tspan><tspan x="0.9083328247070312" y="23.099999999999998">bestanden?</tspan></text></g><rect style="fill: none; stroke-opacity: 0; stroke: white; stroke-width: 15px;" class="djs-hit djs-hit-all" x="0" y="0" width="60" height="27"/><rect x="-5" y="-5" rx="4" width="70" height="37" style="fill: none;" class="djs-outline"/></g></g><g class="djs-group"><g class="djs-element djs-shape" data-element-id="Task_Verabreichen" transform="matrix(1, 0, 0, 1, 1530, 810)" style="display: block;"><g class="djs-visual"><rect x="0" y="0" width="100" height="80" rx="10" ry="10" style="stroke-linecap: round; stroke-linejoin: round; stroke: rgb(34, 36, 42); stroke-width: 2px; fill: white; fill-opacity: 0.95;"/><text style="font-family: Arial, sans-serif; font-size: 12px; font-weight: normal; fill: rgb(34, 36, 42);" lineHeight="1.2" class="djs-label"><tspan x="15.666667938232422" y="36.4">Medikament </tspan><tspan x="15.333332061767578" y="50.8">verabreichen</tspan></text></g><rect style="fill: none; stroke-opacity: 0; stroke: white; stroke-width: 15px;" class="djs-hit djs-hit-all" x="0" y="0" width="100" height="80"/><rect x="-5" y="-5" rx="14" width="110" height="90" style="fill: none;" class="djs-outline"/></g></g><g class="djs-group"><g class="djs-element djs-shape" data-element-id="Task_Doku" transform="matrix(1, 0, 0, 1, 1700, 810)" style="display: block;"><g class="djs-visual"><rect x="0" y="0" width="100" height="80" rx="10" ry="10" style="stroke-linecap: round; stroke-linejoin: round; stroke: rgb(34, 36, 42); stroke-width: 2px; fill: white; fill-opacity: 0.95;"/><text style="font-family: Arial, sans-serif; font-size: 12px; font-weight: normal; fill: rgb(34, 36, 42);" lineHeight="1.2" class="djs-label"><tspan x="9.658332824707031" y="29.200000000000003">Verabreichung </tspan><tspan x="23.66666603088379" y="43.6">im eMAR </tspan><tspan x="10.333332061767578" y="58">dokumentieren</tspan></text></g><rect style="fill: none; stroke-opacity: 0; stroke: white; stroke-width: 15px;" class="djs-hit djs-hit-all" x="0" y="0" width="100" height="80"/><rect x="-5" y="-5" rx="14" width="110" height="90" style="fill: none;" class="djs-outline"/></g></g><g class="djs-group"><g class="djs-element djs-shape" data-element-id="EndEvent_1" transform="matrix(1, 0, 0, 1, 1870, 832)" style="display: block;"><g class="djs-visual"><circle cx="18" cy="18" r="18" style="stroke-linecap: round; stroke-linejoin: round; stroke: rgb(34, 36, 42); stroke-width: 4px; fill: white; fill-opacity: 0.95;"/></g><rect style="fill: none; stroke-opacity: 0; stroke: white; stroke-width: 15px;" class="djs-hit djs-hit-all" x="0" y="0" width="36" height="36"/><circle cx="18" cy="18" r="24" style="fill: none;" class="djs-outline"/></g></g><g class="djs-group"><g class="djs-element djs-shape" data-element-id="EndEvent_1_label" transform="matrix(1, 0, 0, 1, 1857, 875)" style="display: block;"><g class="djs-visual"><text style="font-family: Arial, sans-serif; font-size: 11px; font-weight: normal; fill: rgb(34, 36, 42);" lineHeight="1.2" class="djs-label"><tspan x="7.450000762939453" y="9.899999999999999">Kreislauf </tspan><tspan x="0" y="23.099999999999998">geschlossen</tspan></text></g><rect style="fill: none; stroke-opacity: 0; stroke: white; stroke-width: 15px;" class="djs-hit djs-hit-all" x="0" y="0" width="62" height="27"/><rect x="-5" y="-5" rx="4" width="72" height="37" style="fill: none;" class="djs-outline"/></g></g><g class="djs-group"><g class="djs-element djs-shape" data-element-id="EndEvent_Abbruch" transform="matrix(1, 0, 0, 1, 1417, 940)" style="display: block;"><g class="djs-visual"><circle cx="18" cy="18" r="18" style="stroke-linecap: round; stroke-linejoin: round; stroke: rgb(34, 36, 42); stroke-width: 4px; fill: white; fill-opacity: 0.95;"/></g><rect style="fill: none; stroke-opacity: 0; stroke: white; stroke-width: 15px;" class="djs-hit djs-hit-all" x="0" y="0" width="36" height="36"/><circle cx="18" cy="18" r="24" style="fill: none;" class="djs-outline"/></g></g><g class="djs-group"><g class="djs-element djs-shape" data-element-id="EndEvent_Abbruch_label" transform="matrix(1, 0, 0, 1, 1468, 950)" style="display: block;"><g class="djs-visual"><text style="font-family: Arial, sans-serif; font-size: 11px; font-weight: normal; fill: rgb(34, 36, 42);" lineHeight="1.2" class="djs-label"><tspan x="0" y="9.899999999999999">Verabreichung </tspan><tspan x="15.908332824707031" y="23.099999999999998">gestoppt</tspan></text></g><rect style="fill: none; stroke-opacity: 0; stroke: white; stroke-width: 15px;" class="djs-hit djs-hit-all" x="0" y="0" width="74" height="27"/><rect x="-5" y="-5" rx="4" width="84" height="37" style="fill: none;" class="djs-outline"/></g></g><g class="djs-group"><g class="djs-element djs-connection" data-element-id="Flow_1" style="display: block;"><g class="djs-visual"><defs><marker id="marker-awhqrjetg1g2qm2ctbgdub0qk" viewBox="0 0 20 20" refX="11" refY="10" markerWidth="10" markerHeight="10" orient="auto"><path d="M 1 5 L 11 10 L 1 15 Z" style="stroke-linecap: round; stroke-linejoin: round; stroke: rgb(34, 36, 42); stroke-width: 1px; fill: rgb(34, 36, 42);"/></marker></defs><path style="fill: none; stroke-linecap: round; stroke-linejoin: round; stroke: rgb(34, 36, 42); stroke-width: 2px; marker-end: url('#marker-awhqrjetg1g2qm2ctbgdub0qk');" data-corner-radius="5" d="M296,180L360,180"/></g><path d="M296,180L360,180" style="fill: none; stroke-opacity: 0; stroke: white; stroke-width: 15px;" class="djs-hit djs-hit-stroke"/><rect x="291" y="175" rx="4" width="74" height="10" style="fill: none;" class="djs-outline"/></g></g><g class="djs-group"><g class="djs-element djs-connection" data-element-id="Flow_2" style="display: block;"><g class="djs-visual"><defs><marker id="marker-exxcq52wns27hb6m2g9tqzurr" viewBox="0 0 20 20" refX="11" refY="10" markerWidth="10" markerHeight="10" orient="auto"><path d="M 1 5 L 11 10 L 1 15 Z" style="stroke-linecap: round; stroke-linejoin: round; stroke: rgb(34, 36, 42); stroke-width: 1px; fill: rgb(34, 36, 42);"/></marker></defs><path style="fill: none; stroke-linecap: round; stroke-linejoin: round; stroke: rgb(34, 36, 42); stroke-width: 2px; marker-end: url('#marker-exxcq52wns27hb6m2g9tqzurr');" data-corner-radius="5" d="M460,180L530,180"/></g><path d="M460,180L530,180" style="fill: none; stroke-opacity: 0; stroke: white; stroke-width: 15px;" class="djs-hit djs-hit-stroke"/><rect x="455" y="175" rx="4" width="80" height="10" style="fill: none;" class="djs-outline"/></g></g><g class="djs-group"><g class="djs-element djs-connection" data-element-id="Flow_3" style="display: block;"><g class="djs-visual"><defs><marker id="marker-8xdc6kb22hbgbklyjc20ebhpy" viewBox="0 0 20 20" refX="11" refY="10" markerWidth="10" markerHeight="10" orient="auto"><path d="M 1 5 L 11 10 L 1 15 Z" style="stroke-linecap: round; stroke-linejoin: round; stroke: rgb(34, 36, 42); stroke-width: 1px; fill: rgb(34, 36, 42);"/></marker></defs><path style="fill: none; stroke-linecap: round; stroke-linejoin: round; stroke: rgb(34, 36, 42); stroke-width: 2px; marker-end: url('#marker-8xdc6kb22hbgbklyjc20ebhpy');" data-corner-radius="5" d="M630,180L700,180"/></g><path d="M630,180L700,180" style="fill: none; stroke-opacity: 0; stroke: white; stroke-width: 15px;" class="djs-hit djs-hit-stroke"/><rect x="625" y="175" rx="4" width="80" height="10" style="fill: none;" class="djs-outline"/></g></g><g class="djs-group"><g class="djs-element djs-connection" data-element-id="Flow_4" style="display: block;"><g class="djs-visual"><defs><marker id="marker-53i8prrtfq9zmhwvm1rwlbzle" viewBox="0 0 20 20" refX="11" refY="10" markerWidth="10" markerHeight="10" orient="auto"><path d="M 1 5 L 11 10 L 1 15 Z" style="stroke-linecap: round; stroke-linejoin: round; stroke: rgb(34, 36, 42); stroke-width: 1px; fill: rgb(34, 36, 42);"/></marker></defs><path style="fill: none; stroke-linecap: round; stroke-linejoin: round; stroke: rgb(34, 36, 42); stroke-width: 2px; marker-end: url('#marker-53i8prrtfq9zmhwvm1rwlbzle');" data-corner-radius="5" d="M725,205L725,260C725,262.5,722.5,265,720,265L630,265"/></g><path d="M725,205L725,265L630,265" style="fill: none; stroke-opacity: 0; stroke: white; stroke-width: 15px;" class="djs-hit djs-hit-stroke"/><rect x="625" y="200" rx="4" width="105" height="70" style="fill: none;" class="djs-outline"/></g></g><g class="djs-group"><g class="djs-element djs-connection" data-element-id="Flow_5" style="display: block;"><g class="djs-visual"><defs><marker id="marker-9t0law37p5mv3c1cfgvnp3gk2" viewBox="0 0 20 20" refX="11" refY="10" markerWidth="10" markerHeight="10" orient="auto"><path d="M 1 5 L 11 10 L 1 15 Z" style="stroke-linecap: round; stroke-linejoin: round; stroke: rgb(34, 36, 42); stroke-width: 1px; fill: rgb(34, 36, 42);"/></marker></defs><path style="fill: none; stroke-linecap: round; stroke-linejoin: round; stroke: rgb(34, 36, 42); stroke-width: 2px; marker-end: url('#marker-9t0law37p5mv3c1cfgvnp3gk2');" data-corner-radius="5" d="M530,265L415,265C412.5,265,410,262.5,410,260L410,220"/></g><path d="M530,265L410,265L410,220" style="fill: none; stroke-opacity: 0; stroke: white; stroke-width: 15px;" class="djs-hit djs-hit-stroke"/><rect x="405" y="215" rx="4" width="130" height="55" style="fill: none;" class="djs-outline"/></g></g><g class="djs-group"><g class="djs-element djs-connection" data-element-id="Flow_6" style="display: block;"><g class="djs-visual"><defs><marker id="marker-75khuy02wxcwiyp5pcloyb6an" viewBox="0 0 20 20" refX="11" refY="10" markerWidth="10" markerHeight="10" orient="auto"><path d="M 1 5 L 11 10 L 1 15 Z" style="stroke-linecap: round; stroke-linejoin: round; stroke: rgb(34, 36, 42); stroke-width: 1px; fill: rgb(34, 36, 42);"/></marker></defs><path style="fill: none; stroke-linecap: round; stroke-linejoin: round; stroke: rgb(34, 36, 42); stroke-width: 2px; marker-end: url('#marker-75khuy02wxcwiyp5pcloyb6an');" data-corner-radius="5" d="M750,180L775,180C777.5,180,780,182.5,780,185L780,405C780,407.5,782.5,410,785,410L810,410"/></g><path d="M750,180L780,180L780,410L810,410" style="fill: none; stroke-opacity: 0; stroke: white; stroke-width: 15px;" class="djs-hit djs-hit-stroke"/><rect x="745" y="175" rx="4" width="70" height="240" style="fill: none;" class="djs-outline"/></g></g><g class="djs-group"><g class="djs-element djs-shape" data-element-id="Flow_6_label" transform="matrix(1, 0, 0, 1, 787, 290)" style="display: block;"><g class="djs-visual"><text style="font-family: Arial, sans-serif; font-size: 11px; font-weight: normal; fill: rgb(34, 36, 42);" lineHeight="1.2" class="djs-label"><tspan x="0" y="9.899999999999999">Keine Warnung</tspan></text></g><rect style="fill: none; stroke-opacity: 0; stroke: white; stroke-width: 15px;" class="djs-hit djs-hit-all" x="0" y="0" width="76" height="14"/><rect x="-5" y="-5" rx="4" width="86" height="24" style="fill: none;" class="djs-outline"/></g></g><g class="djs-group"><g class="djs-element djs-connection" data-element-id="Flow_7" style="display: block;"><g class="djs-visual"><defs><marker id="marker-ah9lf8k7ksiqkagxcywl2ndwj" viewBox="0 0 20 20" refX="11" refY="10" markerWidth="10" markerHeight="10" orient="auto"><path d="M 1 5 L 11 10 L 1 15 Z" style="stroke-linecap: round; stroke-linejoin: round; stroke: rgb(34, 36, 42); stroke-width: 1px; fill: rgb(34, 36, 42);"/></marker></defs><path style="fill: none; stroke-linecap: round; stroke-linejoin: round; stroke: rgb(34, 36, 42); stroke-width: 2px; marker-end: url('#marker-ah9lf8k7ksiqkagxcywl2ndwj');" data-corner-radius="5" d="M910,410L980,410"/></g><path d="M910,410L980,410" style="fill: none; stroke-opacity: 0; stroke: white; stroke-width: 15px;" class="djs-hit djs-hit-stroke"/><rect x="905" y="405" rx="4" width="80" height="10" style="fill: none;" class="djs-outline"/></g></g><g class="djs-group"><g class="djs-element djs-connection" data-element-id="Flow_8" style="display: block;"><g class="djs-visual"><defs><marker id="marker-64ze0cmrvfj1z2us3nrpzoi31" viewBox="0 0 20 20" refX="11" refY="10" markerWidth="10" markerHeight="10" orient="auto"><path d="M 1 5 L 11 10 L 1 15 Z" style="stroke-linecap: round; stroke-linejoin: round; stroke: rgb(34, 36, 42); stroke-width: 1px; fill: rgb(34, 36, 42);"/></marker></defs><path style="fill: none; stroke-linecap: round; stroke-linejoin: round; stroke: rgb(34, 36, 42); stroke-width: 2px; marker-end: url('#marker-64ze0cmrvfj1z2us3nrpzoi31');" data-corner-radius="5" d="M1005,385L1005,105C1005,102.5,1002.5,100,1000,100L415,100C412.5,100,410,102.5,410,105L410,140"/></g><path d="M1005,385L1005,100L410,100L410,140" style="fill: none; stroke-opacity: 0; stroke: white; stroke-width: 15px;" class="djs-hit djs-hit-stroke"/><rect x="405" y="95" rx="4" width="605" height="295" style="fill: none;" class="djs-outline"/></g></g><g class="djs-group"><g class="djs-element djs-shape" data-element-id="Flow_8_label" transform="matrix(1, 0, 0, 1, 695, 82)" style="display: block;"><g class="djs-visual"><text style="font-family: Arial, sans-serif; font-size: 11px; font-weight: normal; fill: rgb(34, 36, 42);" lineHeight="1.2" class="djs-label"><tspan x="0" y="9.899999999999999">Rückfrage</tspan></text></g><rect style="fill: none; stroke-opacity: 0; stroke: white; stroke-width: 15px;" class="djs-hit djs-hit-all" x="0" y="0" width="51" height="14"/><rect x="-5" y="-5" rx="4" width="61" height="24" style="fill: none;" class="djs-outline"/></g></g><g class="djs-group"><g class="djs-element djs-connection" data-element-id="Flow_9" style="display: block;"><g class="djs-visual"><defs><marker id="marker-4572gmnihdc3qw5bj73062w6k" viewBox="0 0 20 20" refX="11" refY="10" markerWidth="10" markerHeight="10" orient="auto"><path d="M 1 5 L 11 10 L 1 15 Z" style="stroke-linecap: round; stroke-linejoin: round; stroke: rgb(34, 36, 42); stroke-width: 1px; fill: rgb(34, 36, 42);"/></marker></defs><path style="fill: none; stroke-linecap: round; stroke-linejoin: round; stroke: rgb(34, 36, 42); stroke-width: 2px; marker-end: url('#marker-4572gmnihdc3qw5bj73062w6k');" data-corner-radius="5" d="M1005,435L1005,605C1005,607.5,1007.5,610,1010,610L1070,610"/></g><path d="M1005,435L1005,610L1070,610" style="fill: none; stroke-opacity: 0; stroke: white; stroke-width: 15px;" class="djs-hit djs-hit-stroke"/><rect x="1000" y="430" rx="4" width="75" height="185" style="fill: none;" class="djs-outline"/></g></g><g class="djs-group"><g class="djs-element djs-shape" data-element-id="Flow_9_label" transform="matrix(1, 0, 0, 1, 1013, 520)" style="display: block;"><g class="djs-visual"><text style="font-family: Arial, sans-serif; font-size: 11px; font-weight: normal; fill: rgb(34, 36, 42);" lineHeight="1.2" class="djs-label"><tspan x="0" y="9.899999999999999">Freigabe</tspan></text></g><rect style="fill: none; stroke-opacity: 0; stroke: white; stroke-width: 15px;" class="djs-hit djs-hit-all" x="0" y="0" width="44" height="14"/><rect x="-5" y="-5" rx="4" width="54" height="24" style="fill: none;" class="djs-outline"/></g></g><g class="djs-group"><g class="djs-element djs-connection" data-element-id="Flow_10" style="display: block;"><g class="djs-visual"><defs><marker id="marker-6u4vbg4w8morsx71pnocpehzt" viewBox="0 0 20 20" refX="11" refY="10" markerWidth="10" markerHeight="10" orient="auto"><path d="M 1 5 L 11 10 L 1 15 Z" style="stroke-linecap: round; stroke-linejoin: round; stroke: rgb(34, 36, 42); stroke-width: 1px; fill: rgb(34, 36, 42);"/></marker></defs><path style="fill: none; stroke-linecap: round; stroke-linejoin: round; stroke: rgb(34, 36, 42); stroke-width: 2px; marker-end: url('#marker-6u4vbg4w8morsx71pnocpehzt');" data-corner-radius="5" d="M1170,610L1240,610"/></g><path d="M1170,610L1240,610" style="fill: none; stroke-opacity: 0; stroke: white; stroke-width: 15px;" class="djs-hit djs-hit-stroke"/><rect x="1165" y="605" rx="4" width="80" height="10" style="fill: none;" class="djs-outline"/></g></g><g class="djs-group"><g class="djs-element djs-connection" data-element-id="Flow_11" style="display: block;"><g class="djs-visual"><defs><marker id="marker-3n0hi6brw6abn1reumktytmzv" viewBox="0 0 20 20" refX="11" refY="10" markerWidth="10" markerHeight="10" orient="auto"><path d="M 1 5 L 11 10 L 1 15 Z" style="stroke-linecap: round; stroke-linejoin: round; stroke: rgb(34, 36, 42); stroke-width: 1px; fill: rgb(34, 36, 42);"/></marker></defs><path style="fill: none; stroke-linecap: round; stroke-linejoin: round; stroke: rgb(34, 36, 42); stroke-width: 2px; marker-end: url('#marker-3n0hi6brw6abn1reumktytmzv');" data-corner-radius="5" d="M1340,610L1410,610"/></g><path d="M1340,610L1410,610" style="fill: none; stroke-opacity: 0; stroke: white; stroke-width: 15px;" class="djs-hit djs-hit-stroke"/><rect x="1335" y="605" rx="4" width="80" height="10" style="fill: none;" class="djs-outline"/></g></g><g class="djs-group"><g class="djs-element djs-connection" data-element-id="Flow_12" style="display: block;"><g class="djs-visual"><defs><marker id="marker-0mhw8aeyufpfa4bmuxs43tnfs" viewBox="0 0 20 20" refX="11" refY="10" markerWidth="10" markerHeight="10" orient="auto"><path d="M 1 5 L 11 10 L 1 15 Z" style="stroke-linecap: round; stroke-linejoin: round; stroke: rgb(34, 36, 42); stroke-width: 1px; fill: rgb(34, 36, 42);"/></marker></defs><path style="fill: none; stroke-linecap: round; stroke-linejoin: round; stroke: rgb(34, 36, 42); stroke-width: 2px; marker-end: url('#marker-0mhw8aeyufpfa4bmuxs43tnfs');" data-corner-radius="5" d="M1460,650L1460,775C1460,777.5,1457.5,780,1455,780L1125,780C1122.5,780,1120,782.5,1120,785L1120,810"/></g><path d="M1460,650L1460,780L1120,780L1120,810" style="fill: none; stroke-opacity: 0; stroke: white; stroke-width: 15px;" class="djs-hit djs-hit-stroke"/><rect x="1115" y="645" rx="4" width="350" height="170" style="fill: none;" class="djs-outline"/></g></g><g class="djs-group"><g class="djs-element djs-connection" data-element-id="Flow_13" style="display: block;"><g class="djs-visual"><defs><marker id="marker-c1z006m7dry4gipt54xmn22oy" viewBox="0 0 20 20" refX="11" refY="10" markerWidth="10" markerHeight="10" orient="auto"><path d="M 1 5 L 11 10 L 1 15 Z" style="stroke-linecap: round; stroke-linejoin: round; stroke: rgb(34, 36, 42); stroke-width: 1px; fill: rgb(34, 36, 42);"/></marker></defs><path style="fill: none; stroke-linecap: round; stroke-linejoin: round; stroke: rgb(34, 36, 42); stroke-width: 2px; marker-end: url('#marker-c1z006m7dry4gipt54xmn22oy');" data-corner-radius="5" d="M1170,850L1240,850"/></g><path d="M1170,850L1240,850" style="fill: none; stroke-opacity: 0; stroke: white; stroke-width: 15px;" class="djs-hit djs-hit-stroke"/><rect x="1165" y="845" rx="4" width="80" height="10" style="fill: none;" class="djs-outline"/></g></g><g class="djs-group"><g class="djs-element djs-connection" data-element-id="Flow_14" style="display: block;"><g class="djs-visual"><defs><marker id="marker-0nrd32slcxd2xpcd0bh5rneso" viewBox="0 0 20 20" refX="11" refY="10" markerWidth="10" markerHeight="10" orient="auto"><path d="M 1 5 L 11 10 L 1 15 Z" style="stroke-linecap: round; stroke-linejoin: round; stroke: rgb(34, 36, 42); stroke-width: 1px; fill: rgb(34, 36, 42);"/></marker></defs><path style="fill: none; stroke-linecap: round; stroke-linejoin: round; stroke: rgb(34, 36, 42); stroke-width: 2px; marker-end: url('#marker-0nrd32slcxd2xpcd0bh5rneso');" data-corner-radius="5" d="M1340,850L1410,850"/></g><path d="M1340,850L1410,850" style="fill: none; stroke-opacity: 0; stroke: white; stroke-width: 15px;" class="djs-hit djs-hit-stroke"/><rect x="1335" y="845" rx="4" width="80" height="10" style="fill: none;" class="djs-outline"/></g></g><g class="djs-group"><g class="djs-element djs-connection" data-element-id="Flow_15" style="display: block;"><g class="djs-visual"><defs><marker id="marker-30b5bpleipejj6t74v9417ksg" viewBox="0 0 20 20" refX="11" refY="10" markerWidth="10" markerHeight="10" orient="auto"><path d="M 1 5 L 11 10 L 1 15 Z" style="stroke-linecap: round; stroke-linejoin: round; stroke: rgb(34, 36, 42); stroke-width: 1px; fill: rgb(34, 36, 42);"/></marker></defs><path style="fill: none; stroke-linecap: round; stroke-linejoin: round; stroke: rgb(34, 36, 42); stroke-width: 2px; marker-end: url('#marker-30b5bpleipejj6t74v9417ksg');" data-corner-radius="5" d="M1435,875L1435,940"/></g><path d="M1435,875L1435,940" style="fill: none; stroke-opacity: 0; stroke: white; stroke-width: 15px;" class="djs-hit djs-hit-stroke"/><rect x="1430" y="870" rx="4" width="10" height="75" style="fill: none;" class="djs-outline"/></g></g><g class="djs-group"><g class="djs-element djs-shape" data-element-id="Flow_15_label" transform="matrix(1, 0, 0, 1, 1443, 900)" style="display: block;"><g class="djs-visual"><text style="font-family: Arial, sans-serif; font-size: 11px; font-weight: normal; fill: rgb(34, 36, 42);" lineHeight="1.2" class="djs-label"><tspan x="0" y="9.899999999999999">Abweichung</tspan></text></g><rect style="fill: none; stroke-opacity: 0; stroke: white; stroke-width: 15px;" class="djs-hit djs-hit-all" x="0" y="0" width="60" height="14"/><rect x="-5" y="-5" rx="4" width="70" height="24" style="fill: none;" class="djs-outline"/></g></g><g class="djs-group"><g class="djs-element djs-connection" data-element-id="Flow_16" style="display: block;"><g class="djs-visual"><defs><marker id="marker-0esgxlumzklpebzpkw0pqxqjc" viewBox="0 0 20 20" refX="11" refY="10" markerWidth="10" markerHeight="10" orient="auto"><path d="M 1 5 L 11 10 L 1 15 Z" style="stroke-linecap: round; stroke-linejoin: round; stroke: rgb(34, 36, 42); stroke-width: 1px; fill: rgb(34, 36, 42);"/></marker></defs><path style="fill: none; stroke-linecap: round; stroke-linejoin: round; stroke: rgb(34, 36, 42); stroke-width: 2px; marker-end: url('#marker-0esgxlumzklpebzpkw0pqxqjc');" data-corner-radius="5" d="M1460,850L1530,850"/></g><path d="M1460,850L1530,850" style="fill: none; stroke-opacity: 0; stroke: white; stroke-width: 15px;" class="djs-hit djs-hit-stroke"/><rect x="1455" y="845" rx="4" width="80" height="10" style="fill: none;" class="djs-outline"/></g></g><g class="djs-group"><g class="djs-element djs-shape" data-element-id="Flow_16_label" transform="matrix(1, 0, 0, 1, 1471, 832)" style="display: block;"><g class="djs-visual"><text style="font-family: Arial, sans-serif; font-size: 11px; font-weight: normal; fill: rgb(34, 36, 42);" lineHeight="1.2" class="djs-label"><tspan x="0" y="9.899999999999999">Bestanden</tspan></text></g><rect style="fill: none; stroke-opacity: 0; stroke: white; stroke-width: 15px;" class="djs-hit djs-hit-all" x="0" y="0" width="53" height="14"/><rect x="-5" y="-5" rx="4" width="63" height="24" style="fill: none;" class="djs-outline"/></g></g><g class="djs-group"><g class="djs-element djs-connection" data-element-id="Flow_17" style="display: block;"><g class="djs-visual"><defs><marker id="marker-acw3w907ds1w5e0hcfaixh9dv" viewBox="0 0 20 20" refX="11" refY="10" markerWidth="10" markerHeight="10" orient="auto"><path d="M 1 5 L 11 10 L 1 15 Z" style="stroke-linecap: round; stroke-linejoin: round; stroke: rgb(34, 36, 42); stroke-width: 1px; fill: rgb(34, 36, 42);"/></marker></defs><path style="fill: none; stroke-linecap: round; stroke-linejoin: round; stroke: rgb(34, 36, 42); stroke-width: 2px; marker-end: url('#marker-acw3w907ds1w5e0hcfaixh9dv');" data-corner-radius="5" d="M1630,850L1700,850"/></g><path d="M1630,850L1700,850" style="fill: none; stroke-opacity: 0; stroke: white; stroke-width: 15px;" class="djs-hit djs-hit-stroke"/><rect x="1625" y="845" rx="4" width="80" height="10" style="fill: none;" class="djs-outline"/></g></g><g class="djs-group"><g class="djs-element djs-connection" data-element-id="Flow_18" style="display: block;"><g class="djs-visual"><defs><marker id="marker-1gwpkbr6waoh7pf2esqdn58wj" viewBox="0 0 20 20" refX="11" refY="10" markerWidth="10" markerHeight="10" orient="auto"><path d="M 1 5 L 11 10 L 1 15 Z" style="stroke-linecap: round; stroke-linejoin: round; stroke: rgb(34, 36, 42); stroke-width: 1px; fill: rgb(34, 36, 42);"/></marker></defs><path style="fill: none; stroke-linecap: round; stroke-linejoin: round; stroke: rgb(34, 36, 42); stroke-width: 2px; marker-end: url('#marker-1gwpkbr6waoh7pf2esqdn58wj');" data-corner-radius="5" d="M1800,850L1870,850"/></g><path d="M1800,850L1870,850" style="fill: none; stroke-opacity: 0; stroke: white; stroke-width: 15px;" class="djs-hit djs-hit-stroke"/><rect x="1795" y="845" rx="4" width="80" height="10" style="fill: none;" class="djs-outline"/></g></g></g></g><g class="djs-group"><g class="djs-element djs-shape" data-element-id="Flow_4_label" transform="matrix(1, 0, 0, 1, 677, 230)" style="display: block;"><g class="djs-visual"><text style="font-family: Arial, sans-serif; font-size: 11px; font-weight: normal; fill: rgb(34, 36, 42);" lineHeight="1.2" class="djs-label"><tspan x="0" y="9.899999999999999">Warnung</tspan></text></g><rect style="fill: none; stroke-opacity: 0; stroke: white; stroke-width: 15px;" class="djs-hit djs-hit-all" x="0" y="0" width="45" height="14"/><rect x="-5" y="-5" rx="4" width="55" height="24" style="fill: none;" class="djs-outline"/></g></g></svg>