<?xml version="1.0" encoding="us-ascii" standalone="no"?><svg xmlns="http://www.w3.org/2000/svg" xmlns:xlink="http://www.w3.org/1999/xlink" contentStyleType="text/css" height="531px" preserveAspectRatio="none" style="width:2637px;height:531px;background:#FFFFFF;" version="1.1" viewBox="0 0 2637 531" width="2637px" zoomAndPan="magnify"><defs/><g><!--class ISiKDokumentenMetadaten--><g id="elem_ISiKDokumentenMetadaten"><rect codeLine="33" fill="#F1F1F1" height="80.5938" id="ISiKDokumentenMetadaten" rx="2.5" ry="2.5" style="stroke:#181818;stroke-width:0.5;" width="353" x="1166.5" y="158.5"/><ellipse cx="1181.5" cy="174.5" fill="#8DA5C4" rx="11" ry="11" style="stroke:#181818;stroke-width:1.0;"/><path d="M1181.2969,170.1719 L1181.2969,173.7969 L1182.2969,173.7969 Q1183.5,173.7969 1183.9844,173.3906 Q1184.4688,172.9844 1184.4688,171.9844 Q1184.4688,170.9844 1183.9844,170.5781 Q1183.5,170.1719 1182.2969,170.1719 L1181.2969,170.1719 Z M1178.8438,168.1094 L1182.2031,168.1094 Q1184.7656,168.1094 1185.8906,169.0313 Q1187.0156,169.9375 1187.0156,171.9844 Q1187.0156,174.0313 1185.8906,174.9531 Q1184.7656,175.8594 1182.2031,175.8594 L1181.2969,175.8594 L1181.2969,180.5 L1178.8438,180.5 L1178.8438,168.1094 Z " fill="#000000"/><text fill="#000000" font-family="sans-serif" font-size="14" lengthAdjust="spacing" textLength="189" x="1195.5" y="179.3467">ISiKDokumentenMetadaten</text><rect fill="#FFFFFF" height="15.9688" style="stroke:#181818;stroke-width:1.0;stroke-dasharray:2.0,2.0;" width="130" x="1392.5" y="155.5"/><text fill="#000000" font-family="sans-serif" font-size="12" font-style="italic" lengthAdjust="spacing" textLength="128" x="1393.5" y="167.6387">DocumentReference</text><line style="stroke:#181818;stroke-width:0.5;" x1="1167.5" x2="1518.5" y1="190.5" y2="190.5"/><text fill="#000000" font-family="sans-serif" font-size="14" lengthAdjust="spacing" textLength="197" x="1172.5" y="207.4951">Dokumentation auf Simplifier</text><a href="https://simplifier.net/isik-dokumentenaustausch-v3/isikdokumentenmetadaten" target="_top" title="https://simplifier.net/isik-dokumentenaustausch-v3/isikdokumentenmetadaten" xlink:actuate="onRequest" xlink:href="https://simplifier.net/isik-dokumentenaustausch-v3/isikdokumentenmetadaten" xlink:show="new" xlink:title="https://simplifier.net/isik-dokumentenaustausch-v3/isikdokumentenmetadaten" xlink:type="simple"><text fill="#0000FF" font-family="sans-serif" font-size="14" lengthAdjust="spacing" text-decoration="underline" textLength="197" x="1172.5" y="223.792">ISiK Dokumenten Metadaten</text></a><line style="stroke:#181818;stroke-width:0.5;" x1="1167.5" x2="1518.5" y1="231.0938" y2="231.0938"/></g><!--class ISiKDokumentenSuchergebnisse--><g id="elem_ISiKDokumentenSuchergebnisse"><rect codeLine="38" fill="#F1F1F1" height="80.5938" id="ISiKDokumentenSuchergebnisse" rx="2.5" ry="2.5" style="stroke:#181818;stroke-width:0.5;" width="307" x="1352.5" y="10.5"/><ellipse cx="1367.5" cy="26.5" fill="#8DA5C4" rx="11" ry="11" style="stroke:#181818;stroke-width:1.0;"/><path d="M1367.2969,22.1719 L1367.2969,25.7969 L1368.2969,25.7969 Q1369.5,25.7969 1369.9844,25.3906 Q1370.4688,24.9844 1370.4688,23.9844 Q1370.4688,22.9844 1369.9844,22.5781 Q1369.5,22.1719 1368.2969,22.1719 L1367.2969,22.1719 Z M1364.8438,20.1094 L1368.2031,20.1094 Q1370.7656,20.1094 1371.8906,21.0313 Q1373.0156,21.9375 1373.0156,23.9844 Q1373.0156,26.0313 1371.8906,26.9531 Q1370.7656,27.8594 1368.2031,27.8594 L1367.2969,27.8594 L1367.2969,32.5 L1364.8438,32.5 L1364.8438,20.1094 Z " fill="#000000"/><text fill="#000000" font-family="sans-serif" font-size="14" lengthAdjust="spacing" textLength="228" x="1381.5" y="31.3467">ISiKDokumentenSuchergebnisse</text><rect fill="#FFFFFF" height="15.9688" style="stroke:#181818;stroke-width:1.0;stroke-dasharray:2.0,2.0;" width="45" x="1617.5" y="7.5"/><text fill="#000000" font-family="sans-serif" font-size="12" font-style="italic" lengthAdjust="spacing" textLength="43" x="1618.5" y="19.6387">Bundle</text><line style="stroke:#181818;stroke-width:0.5;" x1="1353.5" x2="1658.5" y1="42.5" y2="42.5"/><text fill="#000000" font-family="sans-serif" font-size="14" lengthAdjust="spacing" textLength="197" x="1358.5" y="59.4951">Dokumentation auf Simplifier</text><a href="https://simplifier.net/isik-dokumentenaustausch-v3/isikdokumentensuchergebnisse" target="_top" title="https://simplifier.net/isik-dokumentenaustausch-v3/isikdokumentensuchergebnisse" xlink:actuate="onRequest" xlink:href="https://simplifier.net/isik-dokumentenaustausch-v3/isikdokumentensuchergebnisse" xlink:show="new" xlink:title="https://simplifier.net/isik-dokumentenaustausch-v3/isikdokumentensuchergebnisse" xlink:type="simple"><text fill="#0000FF" font-family="sans-serif" font-size="14" lengthAdjust="spacing" text-decoration="underline" textLength="236" x="1358.5" y="75.792">ISiK Dokumenten Suchergebnisse</text></a><line style="stroke:#181818;stroke-width:0.5;" x1="1353.5" x2="1658.5" y1="83.0938" y2="83.0938"/></g><!--class ISiKConfidentialityCodes--><g id="elem_ISiKConfidentialityCodes"><rect codeLine="43" fill="#F1F1F1" height="80.5938" id="ISiKConfidentialityCodes" rx="2.5" ry="2.5" style="stroke:#181818;stroke-width:0.5;" width="257" x="1052.5" y="10"/><ellipse cx="1067.5" cy="26" fill="#8DA5C4" rx="11" ry="11" style="stroke:#181818;stroke-width:1.0;"/><path d="M1067.6094,30.4531 L1069.7969,20.1094 L1072.2656,20.1094 L1069.3125,32.5 L1065.9219,32.5 L1062.9688,20.1094 L1065.4375,20.1094 L1067.6094,30.4531 Z " fill="#000000"/><text fill="#000000" font-family="sans-serif" font-size="14" lengthAdjust="spacing" textLength="165" x="1081.5" y="30.8467">ISiKConfidentialityCodes</text><rect fill="#FFFFFF" height="15.9688" style="stroke:#181818;stroke-width:1.0;stroke-dasharray:2.0,2.0;" width="58" x="1254.5" y="7"/><text fill="#000000" font-family="sans-serif" font-size="12" font-style="italic" lengthAdjust="spacing" textLength="56" x="1255.5" y="19.1387">ValueSet</text><line style="stroke:#181818;stroke-width:0.5;" x1="1053.5" x2="1308.5" y1="42" y2="42"/><text fill="#000000" font-family="sans-serif" font-size="14" lengthAdjust="spacing" textLength="197" x="1058.5" y="58.9951">Dokumentation auf Simplifier</text><a href="https://simplifier.net/isik-dokumentenaustausch-v3/ISiKConfidentialityCodes/" target="_top" title="https://simplifier.net/isik-dokumentenaustausch-v3/ISiKConfidentialityCodes/" xlink:actuate="onRequest" xlink:href="https://simplifier.net/isik-dokumentenaustausch-v3/ISiKConfidentialityCodes/" xlink:show="new" xlink:title="https://simplifier.net/isik-dokumentenaustausch-v3/ISiKConfidentialityCodes/" xlink:type="simple"><text fill="#0000FF" font-family="sans-serif" font-size="14" lengthAdjust="spacing" text-decoration="underline" textLength="173" x="1058.5" y="75.292">ISiK Confidentiality Codes</text></a><line style="stroke:#181818;stroke-width:0.5;" x1="1053.5" x2="1308.5" y1="82.5938" y2="82.5938"/></g><!--class IHEXDShealthcareFacilityTypeCode--><g id="elem_IHEXDShealthcareFacilityTypeCode"><rect codeLine="50" fill="#F1F1F1" height="80.5938" id="IHEXDShealthcareFacilityTypeCode" rx="2.5" ry="2.5" style="stroke:#181818;stroke-width:0.5;" width="332" x="7" y="302.5"/><ellipse cx="22" cy="318.5" fill="#8DA5C4" rx="11" ry="11" style="stroke:#181818;stroke-width:1.0;"/><path d="M22.1094,322.9531 L24.2969,312.6094 L26.7656,312.6094 L23.8125,325 L20.4219,325 L17.4688,312.6094 L19.9375,312.6094 L22.1094,322.9531 Z " fill="#000000"/><text fill="#000000" font-family="sans-serif" font-size="14" lengthAdjust="spacing" textLength="240" x="36" y="323.3467">IHEXDShealthcareFacilityTypeCode</text><rect fill="#FFFFFF" height="15.9688" style="stroke:#181818;stroke-width:1.0;stroke-dasharray:2.0,2.0;" width="58" x="284" y="299.5"/><text fill="#000000" font-family="sans-serif" font-size="12" font-style="italic" lengthAdjust="spacing" textLength="56" x="285" y="311.6387">ValueSet</text><line style="stroke:#181818;stroke-width:0.5;" x1="8" x2="338" y1="334.5" y2="334.5"/><text fill="#000000" font-family="sans-serif" font-size="14" lengthAdjust="spacing" textLength="197" x="13" y="351.4951">Dokumentation auf Simplifier</text><a href="https://simplifier.net/packages/de.basisprofil.r4/1.4.0/files/656621" target="_top" title="https://simplifier.net/packages/de.basisprofil.r4/1.4.0/files/656621" xlink:actuate="onRequest" xlink:href="https://simplifier.net/packages/de.basisprofil.r4/1.4.0/files/656621" xlink:show="new" xlink:title="https://simplifier.net/packages/de.basisprofil.r4/1.4.0/files/656621" xlink:type="simple"><text fill="#0000FF" font-family="sans-serif" font-size="14" lengthAdjust="spacing" text-decoration="underline" textLength="257" x="13" y="367.792">IHEXDS Healthcare Facility Type Code</text></a><line style="stroke:#181818;stroke-width:0.5;" x1="8" x2="338" y1="375.0938" y2="375.0938"/></g><!--class IHEXDSpracticeSettingCode--><g id="elem_IHEXDSpracticeSettingCode"><rect codeLine="54" fill="#F1F1F1" height="80.5938" id="IHEXDSpracticeSettingCode" rx="2.5" ry="2.5" style="stroke:#181818;stroke-width:0.5;" width="284" x="374" y="302.5"/><ellipse cx="389" cy="318.5" fill="#8DA5C4" rx="11" ry="11" style="stroke:#181818;stroke-width:1.0;"/><path d="M389.1094,322.9531 L391.2969,312.6094 L393.7656,312.6094 L390.8125,325 L387.4219,325 L384.4688,312.6094 L386.9375,312.6094 L389.1094,322.9531 Z " fill="#000000"/><text fill="#000000" font-family="sans-serif" font-size="14" lengthAdjust="spacing" textLength="192" x="403" y="323.3467">IHEXDSpracticeSettingCode</text><rect fill="#FFFFFF" height="15.9688" style="stroke:#181818;stroke-width:1.0;stroke-dasharray:2.0,2.0;" width="58" x="603" y="299.5"/><text fill="#000000" font-family="sans-serif" font-size="12" font-style="italic" lengthAdjust="spacing" textLength="56" x="604" y="311.6387">ValueSet</text><line style="stroke:#181818;stroke-width:0.5;" x1="375" x2="657" y1="334.5" y2="334.5"/><text fill="#000000" font-family="sans-serif" font-size="14" lengthAdjust="spacing" textLength="197" x="380" y="351.4951">Dokumentation auf Simplifier</text><a href="https://simplifier.net/packages/de.basisprofil.r4/1.4.0/files/656622" target="_top" title="https://simplifier.net/packages/de.basisprofil.r4/1.4.0/files/656622" xlink:actuate="onRequest" xlink:href="https://simplifier.net/packages/de.basisprofil.r4/1.4.0/files/656622" xlink:show="new" xlink:title="https://simplifier.net/packages/de.basisprofil.r4/1.4.0/files/656622" xlink:type="simple"><text fill="#0000FF" font-family="sans-serif" font-size="14" lengthAdjust="spacing" text-decoration="underline" textLength="204" x="380" y="367.792">IHEXDS Practice Setting Code</text></a><line style="stroke:#181818;stroke-width:0.5;" x1="375" x2="657" y1="375.0938" y2="375.0938"/></g><!--class IHEXDStypeCode--><g id="elem_IHEXDStypeCode"><rect codeLine="58" fill="#F1F1F1" height="80.5938" id="IHEXDStypeCode" rx="2.5" ry="2.5" style="stroke:#181818;stroke-width:0.5;" width="210" x="2165" y="443.5"/><ellipse cx="2180" cy="459.5" fill="#8DA5C4" rx="11" ry="11" style="stroke:#181818;stroke-width:1.0;"/><path d="M2180.1094,463.9531 L2182.2969,453.6094 L2184.7656,453.6094 L2181.8125,466 L2178.4219,466 L2175.4688,453.6094 L2177.9375,453.6094 L2180.1094,463.9531 Z " fill="#000000"/><text fill="#000000" font-family="sans-serif" font-size="14" lengthAdjust="spacing" textLength="118" x="2194" y="464.3467">IHEXDStypeCode</text><rect fill="#FFFFFF" height="15.9688" style="stroke:#181818;stroke-width:1.0;stroke-dasharray:2.0,2.0;" width="58" x="2320" y="440.5"/><text fill="#000000" font-family="sans-serif" font-size="12" font-style="italic" lengthAdjust="spacing" textLength="56" x="2321" y="452.6387">ValueSet</text><line style="stroke:#181818;stroke-width:0.5;" x1="2166" x2="2374" y1="475.5" y2="475.5"/><text fill="#000000" font-family="sans-serif" font-size="14" lengthAdjust="spacing" textLength="197" x="2171" y="492.4951">Dokumentation auf Simplifier</text><a href="https://simplifier.net/packages/de.basisprofil.r4/1.4.0/files/656623" target="_top" title="https://simplifier.net/packages/de.basisprofil.r4/1.4.0/files/656623" xlink:actuate="onRequest" xlink:href="https://simplifier.net/packages/de.basisprofil.r4/1.4.0/files/656623" xlink:show="new" xlink:title="https://simplifier.net/packages/de.basisprofil.r4/1.4.0/files/656623" xlink:type="simple"><text fill="#0000FF" font-family="sans-serif" font-size="14" lengthAdjust="spacing" text-decoration="underline" textLength="130" x="2171" y="508.792">IHEXDS Type Code</text></a><line style="stroke:#181818;stroke-width:0.5;" x1="2166" x2="2374" y1="516.0938" y2="516.0938"/></g><!--class IHEXDSclassCode--><g id="elem_IHEXDSclassCode"><rect codeLine="62" fill="#F1F1F1" height="80.5938" id="IHEXDSclassCode" rx="2.5" ry="2.5" style="stroke:#181818;stroke-width:0.5;" width="215" x="693.5" y="302.5"/><ellipse cx="708.5" cy="318.5" fill="#8DA5C4" rx="11" ry="11" style="stroke:#181818;stroke-width:1.0;"/><path d="M708.6094,322.9531 L710.7969,312.6094 L713.2656,312.6094 L710.3125,325 L706.9219,325 L703.9688,312.6094 L706.4375,312.6094 L708.6094,322.9531 Z " fill="#000000"/><text fill="#000000" font-family="sans-serif" font-size="14" lengthAdjust="spacing" textLength="123" x="722.5" y="323.3467">IHEXDSclassCode</text><rect fill="#FFFFFF" height="15.9688" style="stroke:#181818;stroke-width:1.0;stroke-dasharray:2.0,2.0;" width="58" x="853.5" y="299.5"/><text fill="#000000" font-family="sans-serif" font-size="12" font-style="italic" lengthAdjust="spacing" textLength="56" x="854.5" y="311.6387">ValueSet</text><line style="stroke:#181818;stroke-width:0.5;" x1="694.5" x2="907.5" y1="334.5" y2="334.5"/><text fill="#000000" font-family="sans-serif" font-size="14" lengthAdjust="spacing" textLength="197" x="699.5" y="351.4951">Dokumentation auf Simplifier</text><a href="https://simplifier.net/packages/de.basisprofil.r4/1.4.0/files/656617" target="_top" title="https://simplifier.net/packages/de.basisprofil.r4/1.4.0/files/656617" xlink:actuate="onRequest" xlink:href="https://simplifier.net/packages/de.basisprofil.r4/1.4.0/files/656617" xlink:show="new" xlink:title="https://simplifier.net/packages/de.basisprofil.r4/1.4.0/files/656617" xlink:type="simple"><text fill="#0000FF" font-family="sans-serif" font-size="14" lengthAdjust="spacing" text-decoration="underline" textLength="133" x="699.5" y="367.792">IHEXDS Class Code</text></a><line style="stroke:#181818;stroke-width:0.5;" x1="694.5" x2="907.5" y1="375.0938" y2="375.0938"/></g><!--class IHEXDSeventCodeList--><g id="elem_IHEXDSeventCodeList"><rect codeLine="66" fill="#F1F1F1" height="80.5938" id="IHEXDSeventCodeList" rx="2.5" ry="2.5" style="stroke:#181818;stroke-width:0.5;" width="242" x="944" y="302.5"/><ellipse cx="959" cy="318.5" fill="#8DA5C4" rx="11" ry="11" style="stroke:#181818;stroke-width:1.0;"/><path d="M959.1094,322.9531 L961.2969,312.6094 L963.7656,312.6094 L960.8125,325 L957.4219,325 L954.4688,312.6094 L956.9375,312.6094 L959.1094,322.9531 Z " fill="#000000"/><text fill="#000000" font-family="sans-serif" font-size="14" lengthAdjust="spacing" textLength="150" x="973" y="323.3467">IHEXDSeventCodeList</text><rect fill="#FFFFFF" height="15.9688" style="stroke:#181818;stroke-width:1.0;stroke-dasharray:2.0,2.0;" width="58" x="1131" y="299.5"/><text fill="#000000" font-family="sans-serif" font-size="12" font-style="italic" lengthAdjust="spacing" textLength="56" x="1132" y="311.6387">ValueSet</text><line style="stroke:#181818;stroke-width:0.5;" x1="945" x2="1185" y1="334.5" y2="334.5"/><text fill="#000000" font-family="sans-serif" font-size="14" lengthAdjust="spacing" textLength="197" x="950" y="351.4951">Dokumentation auf Simplifier</text><a href="https://simplifier.net/packages/de.basisprofil.r4/1.4.0/files/656619" target="_top" title="https://simplifier.net/packages/de.basisprofil.r4/1.4.0/files/656619" xlink:actuate="onRequest" xlink:href="https://simplifier.net/packages/de.basisprofil.r4/1.4.0/files/656619" xlink:show="new" xlink:title="https://simplifier.net/packages/de.basisprofil.r4/1.4.0/files/656619" xlink:type="simple"><text fill="#0000FF" font-family="sans-serif" font-size="14" lengthAdjust="spacing" text-decoration="underline" textLength="162" x="950" y="367.792">IHEXDS Event Code List</text></a><line style="stroke:#181818;stroke-width:0.5;" x1="945" x2="1185" y1="375.0938" y2="375.0938"/></g><!--class IHEXDSformatCodeDE--><g id="elem_IHEXDSformatCodeDE"><rect codeLine="70" fill="#F1F1F1" height="80.5938" id="IHEXDSformatCodeDE" rx="2.5" ry="2.5" style="stroke:#181818;stroke-width:0.5;" width="244" x="1221" y="302.5"/><ellipse cx="1236" cy="318.5" fill="#8DA5C4" rx="11" ry="11" style="stroke:#181818;stroke-width:1.0;"/><path d="M1236.1094,322.9531 L1238.2969,312.6094 L1240.7656,312.6094 L1237.8125,325 L1234.4219,325 L1231.4688,312.6094 L1233.9375,312.6094 L1236.1094,322.9531 Z " fill="#000000"/><text fill="#000000" font-family="sans-serif" font-size="14" lengthAdjust="spacing" textLength="152" x="1250" y="323.3467">IHEXDSformatCodeDE</text><rect fill="#FFFFFF" height="15.9688" style="stroke:#181818;stroke-width:1.0;stroke-dasharray:2.0,2.0;" width="58" x="1410" y="299.5"/><text fill="#000000" font-family="sans-serif" font-size="12" font-style="italic" lengthAdjust="spacing" textLength="56" x="1411" y="311.6387">ValueSet</text><line style="stroke:#181818;stroke-width:0.5;" x1="1222" x2="1464" y1="334.5" y2="334.5"/><text fill="#000000" font-family="sans-serif" font-size="14" lengthAdjust="spacing" textLength="197" x="1227" y="351.4951">Dokumentation auf Simplifier</text><a href="https://simplifier.net/packages/de.basisprofil.r4/1.4.0/files/656620" target="_top" title="https://simplifier.net/packages/de.basisprofil.r4/1.4.0/files/656620" xlink:actuate="onRequest" xlink:href="https://simplifier.net/packages/de.basisprofil.r4/1.4.0/files/656620" xlink:show="new" xlink:title="https://simplifier.net/packages/de.basisprofil.r4/1.4.0/files/656620" xlink:type="simple"><text fill="#0000FF" font-family="sans-serif" font-size="14" lengthAdjust="spacing" text-decoration="underline" textLength="144" x="1227" y="367.792">IHEXDS Format Code</text></a><line style="stroke:#181818;stroke-width:0.5;" x1="1222" x2="1464" y1="375.0938" y2="375.0938"/></g><!--class vsKDL--><g id="elem_vsKDL"><rect codeLine="77" fill="#F1F1F1" height="80.5938" id="vsKDL" rx="2.5" ry="2.5" style="stroke:#181818;stroke-width:0.5;" width="216" x="2410" y="443.5"/><ellipse cx="2425" cy="459.5" fill="#8DA5C4" rx="11" ry="11" style="stroke:#181818;stroke-width:1.0;"/><path d="M2425.1094,463.9531 L2427.2969,453.6094 L2429.7656,453.6094 L2426.8125,466 L2423.4219,466 L2420.4688,453.6094 L2422.9375,453.6094 L2425.1094,463.9531 Z " fill="#000000"/><text fill="#000000" font-family="sans-serif" font-size="14" lengthAdjust="spacing" textLength="124" x="2439" y="464.3467">valueset-kdl-2022</text><rect fill="#FFFFFF" height="15.9688" style="stroke:#181818;stroke-width:1.0;stroke-dasharray:2.0,2.0;" width="58" x="2571" y="440.5"/><text fill="#000000" font-family="sans-serif" font-size="12" font-style="italic" lengthAdjust="spacing" textLength="56" x="2572" y="452.6387">ValueSet</text><line style="stroke:#181818;stroke-width:0.5;" x1="2411" x2="2625" y1="475.5" y2="475.5"/><text fill="#000000" font-family="sans-serif" font-size="14" lengthAdjust="spacing" textLength="197" x="2416" y="492.4951">Dokumentation auf Simplifier</text><a href="https://simplifier.net/packages/dvmd.kdl.r4.2022/2022.1.2/files/773899" target="_top" title="https://simplifier.net/packages/dvmd.kdl.r4.2022/2022.1.2/files/773899" xlink:actuate="onRequest" xlink:href="https://simplifier.net/packages/dvmd.kdl.r4.2022/2022.1.2/files/773899" xlink:show="new" xlink:title="https://simplifier.net/packages/dvmd.kdl.r4.2022/2022.1.2/files/773899" xlink:type="simple"><text fill="#0000FF" font-family="sans-serif" font-size="14" lengthAdjust="spacing" text-decoration="underline" textLength="131" x="2416" y="508.792">Valueset KDL 2022</text></a><line style="stroke:#181818;stroke-width:0.5;" x1="2411" x2="2625" y1="516.0938" y2="516.0938"/></g><!--class ISiKPatient--><g id="elem_ISiKPatient"><rect codeLine="83" fill="#F1F1F1" height="80.5938" id="ISiKPatient" rx="2.5" ry="2.5" style="stroke:#181818;stroke-width:0.5;" width="209" x="1368.5" y="443.5"/><ellipse cx="1409.15" cy="459.5" fill="#8DA5C4" rx="11" ry="11" style="stroke:#181818;stroke-width:1.0;"/><path d="M1408.9469,455.1719 L1408.9469,458.7969 L1409.9469,458.7969 Q1411.15,458.7969 1411.6344,458.3906 Q1412.1188,457.9844 1412.1188,456.9844 Q1412.1188,455.9844 1411.6344,455.5781 Q1411.15,455.1719 1409.9469,455.1719 L1408.9469,455.1719 Z M1406.4938,453.1094 L1409.8531,453.1094 Q1412.4156,453.1094 1413.5406,454.0313 Q1414.6656,454.9375 1414.6656,456.9844 Q1414.6656,459.0313 1413.5406,459.9531 Q1412.4156,460.8594 1409.8531,460.8594 L1408.9469,460.8594 L1408.9469,465.5 L1406.4938,465.5 L1406.4938,453.1094 Z " fill="#000000"/><text fill="#000000" font-family="sans-serif" font-size="14" lengthAdjust="spacing" textLength="72" x="1428.85" y="464.3467">ISiKPatient</text><rect fill="#FFFFFF" height="15.9688" style="stroke:#181818;stroke-width:1.0;stroke-dasharray:2.0,2.0;" width="46" x="1534.5" y="440.5"/><text fill="#000000" font-family="sans-serif" font-size="12" font-style="italic" lengthAdjust="spacing" textLength="44" x="1535.5" y="452.6387">Patient</text><line style="stroke:#181818;stroke-width:0.5;" x1="1369.5" x2="1576.5" y1="475.5" y2="475.5"/><text fill="#000000" font-family="sans-serif" font-size="14" lengthAdjust="spacing" textLength="197" x="1374.5" y="492.4951">Dokumentation auf Simplifier</text><a href="https://simplifier.net/isik-basis-v3/isikpatient" target="_top" title="https://simplifier.net/isik-basis-v3/isikpatient" xlink:actuate="onRequest" xlink:href="https://simplifier.net/isik-basis-v3/isikpatient" xlink:show="new" xlink:title="https://simplifier.net/isik-basis-v3/isikpatient" xlink:type="simple"><text fill="#0000FF" font-family="sans-serif" font-size="14" lengthAdjust="spacing" text-decoration="underline" textLength="76" x="1374.5" y="508.792">ISiK Patient</text></a><line style="stroke:#181818;stroke-width:0.5;" x1="1369.5" x2="1576.5" y1="516.0938" y2="516.0938"/></g><!--class ISiKKontaktGesundheitseinrichtung--><g id="elem_ISiKKontaktGesundheitseinrichtung"><rect codeLine="87" fill="#F1F1F1" height="80.5938" id="ISiKKontaktGesundheitseinrichtung" rx="2.5" ry="2.5" style="stroke:#181818;stroke-width:0.5;" width="345" x="1570.5" y="302.5"/><ellipse cx="1585.5" cy="318.5" fill="#8DA5C4" rx="11" ry="11" style="stroke:#181818;stroke-width:1.0;"/><path d="M1585.2969,314.1719 L1585.2969,317.7969 L1586.2969,317.7969 Q1587.5,317.7969 1587.9844,317.3906 Q1588.4688,316.9844 1588.4688,315.9844 Q1588.4688,314.9844 1587.9844,314.5781 Q1587.5,314.1719 1586.2969,314.1719 L1585.2969,314.1719 Z M1582.8438,312.1094 L1586.2031,312.1094 Q1588.7656,312.1094 1589.8906,313.0313 Q1591.0156,313.9375 1591.0156,315.9844 Q1591.0156,318.0313 1589.8906,318.9531 Q1588.7656,319.8594 1586.2031,319.8594 L1585.2969,319.8594 L1585.2969,324.5 L1582.8438,324.5 L1582.8438,312.1094 Z " fill="#000000"/><text fill="#000000" font-family="sans-serif" font-size="14" lengthAdjust="spacing" textLength="244" x="1599.5" y="323.3467">ISiKKontaktGesundheitseinrichtung</text><rect fill="#FFFFFF" height="15.9688" style="stroke:#181818;stroke-width:1.0;stroke-dasharray:2.0,2.0;" width="67" x="1851.5" y="299.5"/><text fill="#000000" font-family="sans-serif" font-size="12" font-style="italic" lengthAdjust="spacing" textLength="65" x="1852.5" y="311.6387">Encounter</text><line style="stroke:#181818;stroke-width:0.5;" x1="1571.5" x2="1914.5" y1="334.5" y2="334.5"/><text fill="#000000" font-family="sans-serif" font-size="14" lengthAdjust="spacing" textLength="197" x="1576.5" y="351.4951">Dokumentation auf Simplifier</text><a href="https://simplifier.net/isik-basis-v3/isikkontaktgesundheitseinrichtung" target="_top" title="https://simplifier.net/isik-basis-v3/isikkontaktgesundheitseinrichtung" xlink:actuate="onRequest" xlink:href="https://simplifier.net/isik-basis-v3/isikkontaktgesundheitseinrichtung" xlink:show="new" xlink:title="https://simplifier.net/isik-basis-v3/isikkontaktgesundheitseinrichtung" xlink:type="simple"><text fill="#0000FF" font-family="sans-serif" font-size="14" lengthAdjust="spacing" text-decoration="underline" textLength="252" x="1576.5" y="367.792">ISiK Kontakt Gesundheitseinrichtung</text></a><line style="stroke:#181818;stroke-width:0.5;" x1="1571.5" x2="1914.5" y1="375.0938" y2="375.0938"/></g><!--class ISiKPractitioner--><g id="elem_ISiKPractitioner"><rect codeLine="91" fill="#F1F1F1" height="80.5938" id="ISiKPractitioner" rx="2.5" ry="2.5" style="stroke:#181818;stroke-width:0.5;" width="238" x="1613" y="443.5"/><ellipse cx="1640.6" cy="459.5" fill="#8DA5C4" rx="11" ry="11" style="stroke:#181818;stroke-width:1.0;"/><path d="M1640.3969,455.1719 L1640.3969,458.7969 L1641.3969,458.7969 Q1642.6,458.7969 1643.0844,458.3906 Q1643.5688,457.9844 1643.5688,456.9844 Q1643.5688,455.9844 1643.0844,455.5781 Q1642.6,455.1719 1641.3969,455.1719 L1640.3969,455.1719 Z M1637.9438,453.1094 L1641.3031,453.1094 Q1643.8656,453.1094 1644.9906,454.0313 Q1646.1156,454.9375 1646.1156,456.9844 Q1646.1156,459.0313 1644.9906,459.9531 Q1643.8656,460.8594 1641.3031,460.8594 L1640.3969,460.8594 L1640.3969,465.5 L1637.9438,465.5 L1637.9438,453.1094 Z " fill="#000000"/><text fill="#000000" font-family="sans-serif" font-size="14" lengthAdjust="spacing" textLength="102" x="1657.4" y="464.3467">ISiKPractitioner</text><rect fill="#FFFFFF" height="15.9688" style="stroke:#181818;stroke-width:1.0;stroke-dasharray:2.0,2.0;" width="74" x="1780" y="440.5"/><text fill="#000000" font-family="sans-serif" font-size="12" font-style="italic" lengthAdjust="spacing" textLength="72" x="1781" y="452.6387">Practitioner</text><line style="stroke:#181818;stroke-width:0.5;" x1="1614" x2="1850" y1="475.5" y2="475.5"/><text fill="#000000" font-family="sans-serif" font-size="14" lengthAdjust="spacing" textLength="197" x="1619" y="492.4951">Dokumentation auf Simplifier</text><a href="https://simplifier.net/isik-basis-v3/isikpersonimgesundheitsberuf" target="_top" title="https://simplifier.net/isik-basis-v3/isikpersonimgesundheitsberuf" xlink:actuate="onRequest" xlink:href="https://simplifier.net/isik-basis-v3/isikpersonimgesundheitsberuf" xlink:show="new" xlink:title="https://simplifier.net/isik-basis-v3/isikpersonimgesundheitsberuf" xlink:type="simple"><text fill="#0000FF" font-family="sans-serif" font-size="14" lengthAdjust="spacing" text-decoration="underline" textLength="226" x="1619" y="508.792">ISiK Person im Gesundheitsberuf</text></a><line style="stroke:#181818;stroke-width:0.5;" x1="1614" x2="1850" y1="516.0938" y2="516.0938"/></g><!--class ISiKAngehoeriger--><g id="elem_ISiKAngehoeriger"><rect codeLine="95" fill="#F1F1F1" height="80.5938" id="ISiKAngehoeriger" rx="2.5" ry="2.5" style="stroke:#181818;stroke-width:0.5;" width="244" x="1886" y="443.5"/><ellipse cx="1901" cy="459.5" fill="#8DA5C4" rx="11" ry="11" style="stroke:#181818;stroke-width:1.0;"/><path d="M1900.7969,455.1719 L1900.7969,458.7969 L1901.7969,458.7969 Q1903,458.7969 1903.4844,458.3906 Q1903.9688,457.9844 1903.9688,456.9844 Q1903.9688,455.9844 1903.4844,455.5781 Q1903,455.1719 1901.7969,455.1719 L1900.7969,455.1719 Z M1898.3438,453.1094 L1901.7031,453.1094 Q1904.2656,453.1094 1905.3906,454.0313 Q1906.5156,454.9375 1906.5156,456.9844 Q1906.5156,459.0313 1905.3906,459.9531 Q1904.2656,460.8594 1901.7031,460.8594 L1900.7969,460.8594 L1900.7969,465.5 L1898.3438,465.5 L1898.3438,453.1094 Z " fill="#000000"/><text fill="#000000" font-family="sans-serif" font-size="14" lengthAdjust="spacing" textLength="118" x="1915" y="464.3467">ISiKAngehoeriger</text><rect fill="#FFFFFF" height="15.9688" style="stroke:#181818;stroke-width:1.0;stroke-dasharray:2.0,2.0;" width="92" x="2041" y="440.5"/><text fill="#000000" font-family="sans-serif" font-size="12" font-style="italic" lengthAdjust="spacing" textLength="90" x="2042" y="452.6387">RelatedPerson</text><line style="stroke:#181818;stroke-width:0.5;" x1="1887" x2="2129" y1="475.5" y2="475.5"/><text fill="#000000" font-family="sans-serif" font-size="14" lengthAdjust="spacing" textLength="197" x="1892" y="492.4951">Dokumentation auf Simplifier</text><a href="https://simplifier.net/isik-basis-v3/isikangehoeriger" target="_top" title="https://simplifier.net/isik-basis-v3/isikangehoeriger" xlink:actuate="onRequest" xlink:href="https://simplifier.net/isik-basis-v3/isikangehoeriger" xlink:show="new" xlink:title="https://simplifier.net/isik-basis-v3/isikangehoeriger" xlink:type="simple"><text fill="#0000FF" font-family="sans-serif" font-size="14" lengthAdjust="spacing" text-decoration="underline" textLength="122" x="1892" y="508.792">ISiK Angehoeriger</text></a><line style="stroke:#181818;stroke-width:0.5;" x1="1887" x2="2129" y1="516.0938" y2="516.0938"/></g><polygon fill="#F1F1F1" points="1962,331,1974,343,1962,355,1950,343,1962,331" style="stroke:#181818;stroke-width:0.5;"/><polygon fill="#F1F1F1" points="2021,331,2033,343,2021,355,2009,343,2021,331" style="stroke:#181818;stroke-width:0.5;"/><!--link MultiRef_PracPatRel to ISiKPractitioner--><g id="link_MultiRef_PracPatRel_ISiKPractitioner"><path codeLine="106" d="M1958.13,351.23 C1953.23,359.83 1944.07,374.2 1933,383.5 C1904.23,407.67 1868.59,427.75 1835.34,443.4 " fill="none" id="MultiRef_PracPatRel-ISiKPractitioner" style="stroke:#181818;stroke-width:1.0;"/></g><!--link MultiRef_PracPatRel to ISiKPatient--><g id="link_MultiRef_PracPatRel_ISiKPatient"><path codeLine="107" d="M1958.54,351.79 C1954.04,360.95 1945.28,375.86 1933,383.5 C1803.46,464.1 1743.04,406.58 1595,443.5 C1589.28,444.93 1583.43,446.48 1577.55,448.12 " fill="none" id="MultiRef_PracPatRel-ISiKPatient" style="stroke:#181818;stroke-width:1.0;"/></g><!--link MultiRef_PracPatRel to ISiKAngehoeriger--><g id="link_MultiRef_PracPatRel_ISiKAngehoeriger"><path codeLine="108" d="M1964.74,352.28 C1970.54,369.81 1984.4,411.68 1994.88,443.34 " fill="none" id="MultiRef_PracPatRel-ISiKAngehoeriger" style="stroke:#181818;stroke-width:1.0;"/></g><!--link MultiRef_KDLXDS to vsKDL--><g id="link_MultiRef_KDLXDS_vsKDL"><path codeLine="110" d="M2029.97,346.24 C2071.46,356.64 2248.91,401.49 2393,443.5 C2398.46,445.09 2404.05,446.75 2409.69,448.45 " fill="none" id="MultiRef_KDLXDS-vsKDL" style="stroke:#181818;stroke-width:1.0;"/></g><!--link MultiRef_KDLXDS to IHEXDStypeCode--><g id="link_MultiRef_KDLXDS_IHEXDStypeCode"><path codeLine="111" d="M2028.18,348.01 C2053.02,361.88 2137.15,408.84 2199.22,443.49 " fill="none" id="MultiRef_KDLXDS-IHEXDStypeCode" style="stroke:#181818;stroke-width:1.0;"/></g><!--link ISiKDokumentenSuchergebnisse to ISiKDokumentenMetadaten--><g id="link_ISiKDokumentenSuchergebnisse_ISiKDokumentenMetadaten"><path codeLine="115" d="M1457.98,94.52 C1436.94,113.36 1412.3,135.42 1391.24,154.29 " fill="none" id="ISiKDokumentenSuchergebnisse-ISiKDokumentenMetadaten" style="stroke:#181818;stroke-width:1.0;"/><text fill="#000000" font-family="sans-serif" font-size="13" lengthAdjust="spacing" textLength="24" x="1361.4021" y="147.3802">1..1</text></g><!--link ISiKDokumentenMetadaten to MultiRef_KDLXDS--><g id="link_ISiKDokumentenMetadaten_MultiRef_KDLXDS"><path codeLine="118" d="M1527.55,213.13 C1691.28,228.02 1915.96,256.15 1992,302.5 C2004.35,310.03 2013.09,324.98 2017.56,334.17 " fill="none" id="ISiKDokumentenMetadaten-MultiRef_KDLXDS" style="stroke:#181818;stroke-width:1.0;"/><text fill="#000000" font-family="sans-serif" font-size="13" lengthAdjust="spacing" textLength="24" x="1980.102" y="319.9038">1..1</text></g><!--link ISiKDokumentenMetadaten to IHEXDSclassCode--><g id="link_ISiKDokumentenMetadaten_IHEXDSclassCode"><path codeLine="119" d="M1158.36,242.42 C1085.67,260.02 1001.65,281.23 926,302.5 C920.3,304.1 914.47,305.79 908.6,307.52 " fill="none" id="ISiKDokumentenMetadaten-IHEXDSclassCode" style="stroke:#181818;stroke-width:1.0;"/><text fill="#000000" font-family="sans-serif" font-size="13" lengthAdjust="spacing" textLength="24" x="903.8761" y="294.7624">0..1</text></g><!--link ISiKDokumentenMetadaten to ISiKPatient--><g id="link_ISiKDokumentenMetadaten_ISiKPatient"><path codeLine="121" d="M1426.84,242.55 C1448.82,258.24 1469.77,278.22 1482,302.5 C1504.3,346.78 1497.1435,399.3414 1487.2535,437.5514 " fill="none" id="ISiKDokumentenMetadaten-to-ISiKPatient" style="stroke:#181818;stroke-width:1.0;"/><polygon fill="#181818" points="1485.75,443.36,1491.8776,435.6494,1487.0029,438.5195,1484.1328,433.6448,1485.75,443.36" style="stroke:#181818;stroke-width:1.0;"/><text fill="#000000" font-family="sans-serif" font-size="13" lengthAdjust="spacing" textLength="24" x="1452.5492" y="432.4983">1..1</text></g><!--link ISiKDokumentenMetadaten to MultiRef_PracPatRel--><g id="link_ISiKDokumentenMetadaten_MultiRef_PracPatRel"><path codeLine="122" d="M1533.4732,217.2537 C1680.5632,233.6237 1866.56,261.29 1933,302.5 C1945.29,310.12 1951.4091,319.6524 1955.8991,328.8124 " fill="none" id="ISiKDokumentenMetadaten-MultiRef_PracPatRel" style="stroke:#181818;stroke-width:1.0;"/><polygon fill="#181818" points="1527.51,216.59,1536.0123,221.5609,1532.4793,217.143,1536.8972,213.61,1527.51,216.59" style="stroke:#181818;stroke-width:1.0;"/><polygon fill="#181818" points="1958.54,334.2,1958.1704,324.3581,1956.3393,329.7104,1950.987,327.8792,1958.54,334.2" style="stroke:#181818;stroke-width:1.0;"/><text fill="#000000" font-family="sans-serif" font-size="13" lengthAdjust="spacing" textLength="24" x="1919.6328" y="319.8042">0..1</text></g><!--link ISiKConfidentialityCodes to ISiKDokumentenMetadaten--><g id="link_ISiKConfidentialityCodes_ISiKDokumentenMetadaten"><path codeLine="123" d="M1224.84,91.01 C1246.58,110.6 1272.88,134.3 1295.14,154.37 " fill="none" id="ISiKConfidentialityCodes-ISiKDokumentenMetadaten" style="stroke:#181818;stroke-width:1.0;"/><text fill="#000000" font-family="sans-serif" font-size="13" lengthAdjust="spacing" textLength="23" x="1197.7192" y="110.7714">1..*</text></g><!--link ISiKDokumentenMetadaten to IHEXDSformatCodeDE--><g id="link_ISiKDokumentenMetadaten_IHEXDSformatCodeDE"><path codeLine="124" d="M1343,242.64 C1343,261.65 1343,283.83 1343,302.41 " fill="none" id="ISiKDokumentenMetadaten-IHEXDSformatCodeDE" style="stroke:#181818;stroke-width:1.0;"/><text fill="#000000" font-family="sans-serif" font-size="13" lengthAdjust="spacing" textLength="24" x="1307.6875" y="291.5566">1..1</text></g><!--link ISiKDokumentenMetadaten to ISiKKontaktGesundheitseinrichtung--><g id="link_ISiKDokumentenMetadaten_ISiKKontaktGesundheitseinrichtung"><path codeLine="125" d="M1463.83,242.54 C1517.3,261.59 1579.78,283.85 1632.05,302.47 " fill="none" id="ISiKDokumentenMetadaten-ISiKKontaktGesundheitseinrichtung" style="stroke:#181818;stroke-width:1.0;"/><text fill="#000000" font-family="sans-serif" font-size="13" lengthAdjust="spacing" textLength="24" x="1577.543" y="291.3281">0..1</text></g><!--link ISiKDokumentenMetadaten to IHEXDSeventCodeList--><g id="link_ISiKDokumentenMetadaten_IHEXDSeventCodeList"><path codeLine="126" d="M1258.84,242.64 C1221.76,261.65 1178.49,283.83 1142.24,302.41 " fill="none" id="ISiKDokumentenMetadaten-IHEXDSeventCodeList" style="stroke:#181818;stroke-width:1.0;"/><text fill="#000000" font-family="sans-serif" font-size="13" lengthAdjust="spacing" textLength="24" x="1119.7204" y="291.5566">1..1</text></g><!--link ISiKDokumentenMetadaten to IHEXDShealthcareFacilityTypeCode--><g id="link_ISiKDokumentenMetadaten_IHEXDShealthcareFacilityTypeCode"><path codeLine="127" d="M1158.49,212.73 C959.62,228.4 634.16,258.1 356,302.5 C350.54,303.37 345,304.3 339.42,305.28 " fill="none" id="ISiKDokumentenMetadaten-IHEXDShealthcareFacilityTypeCode" style="stroke:#181818;stroke-width:1.0;"/><text fill="#000000" font-family="sans-serif" font-size="13" lengthAdjust="spacing" textLength="24" x="334.3715" y="293.8627">1..1</text></g><!--link ISiKDokumentenMetadaten to IHEXDSpracticeSettingCode--><g id="link_ISiKDokumentenMetadaten_IHEXDSpracticeSettingCode"><path codeLine="128" d="M1158.2,223.54 C1023.88,242.11 838,270.06 676,302.5 C670.11,303.68 664.11,304.93 658.05,306.24 " fill="none" id="ISiKDokumentenMetadaten-IHEXDSpracticeSettingCode" style="stroke:#181818;stroke-width:1.0;"/><text fill="#000000" font-family="sans-serif" font-size="13" lengthAdjust="spacing" textLength="24" x="653.397" y="292.9608">1..1</text></g><!--SRC=[pPVDRkCs4CVlUef1Ud2_BCUEDzaOHe0aJhgB943WB882YqL0IsEBjKGQ9ELjiCspzDB7w2qlrY4bsPByrIwmQN9mH75c-FkJr73OcAEAk0XH8TmgEOenGKYuWGb-vcAAiK41L-hvhmZ5-FdlvpzHU0qzvMB654iWvWBDumn1AXD9pskyl-DN3pSOyYapN0hVjfTDVSsrmLvFfwFVC33GR9w0ypXZccjdV4k6ACokI1yK4ve5zj556NOVpgL2_omLOOp_mNk8UaPWI57-M0dZDOoSe8bGPPW3EKqJeaDncch3KXr4yCK3W21cMeCpMjhSe64XinFO7yZ0lHpYc6PQ17ZIxtz_-_DtRmUdRywxFvoSk2ZqLtWxJ63f6EvuCelvc1D3RlFnOsJCJFTQBRteysaTMbppQJDSZCyAnkRymFKjkv85caM69JCie3zziiCzUKjvLNLtQK3pCi6Hu9gchvzDsV-iIrUXwkAgpEiLdainvY7PSnPpytWkGzJGlsTnYdTehBxxbzIt2QcLYQjrWUihX3MUoZjuS95zPZCbnpp6Xs6tl7VVlxluTN0N8OjD5325bopWDk87-hfjq6yy1JCMJDc4P8NeZvQKlkgssdxNtszPPDqwV7Dus6ddiF1kGGi5BbXUDml59DGKpfJzxWChn70nUMNIEeMqsnmJSivjaiphMwA3GiUkvN3Fhmk-VLJ0dplGBVGu9nxRRy-rLwJWk51mOG6T0h286sICfKgOqp6uU4MRQBzGSUduAWjXKvkNQPZhgy4rC0rxSqkkqJIdOTpix7SwUplKx9JoBtJCaz2dyKY1RuTisH-_xNTo9KT71s-FZ-4-HmFBQar8oDDAVU7oSoKhBoiYwESFt-w8TGjI7AgpV5XtpEH3h-uVwhoIDERK_8AQAe08kT78XU91P5BAM_qB4SYKZZNrGjpJ36Uo7iUfoObXFV9QaLa-jeG4rI-tNcevK6afU5BIDK95KRFrSRt0ax8crxzMpQcOO2HHyObLCyIO2humY_52SbYPm4aeC-NG05a9CxJdlBq-q7F8MI95gBt5b_F5wv_0JKeML5q_sAMXtKgQl3NlgCfVMSwjTlbjP8j9cRj2Gbyw9I-lrhPkBcEjwwYUvrwcFSwkJjwsyhlNMxbX05MKdqKJzW3Qljy6-x3nWaB9T4DNh-VkTyrAeBh6ZRu1_Pj8zPZxx-V-jRD_o-3bcs89eBms6trPIdTIsj-vxtuTlhHLDe-FGQgehhnc8xlawQoOXnyfrCRh0coP4MbVcDg4hfx3coDWaL3haxeh5- -0-dqzLAN6-ReGcsyLNnTlJGrF6xW1WYLqcsUqzyCqIHufCpHWaVSkfInU_0IKcUAmNMbrijPJsUUCgPhFGQNLhVZG2BrU5jdjL_BEsmVGWx6KTRDEpQnBPYEcoEpf7m00]--></g></svg>