<?xml version="1.0" encoding="UTF-8" standalone="no"?><svg xmlns="http://www.w3.org/2000/svg" xmlns:xlink="http://www.w3.org/1999/xlink" contentStyleType="text/css" height="228px" preserveAspectRatio="none" style="width:746px;height:228px;background:#FFFFFF;" version="1.1" viewBox="0 0 746 228" width="746px" zoomAndPan="magnify"><defs/><g><rect fill="#FFFFFF" height="135.4063" style="stroke:#181818;stroke-width:1.0;" width="10" x="50" y="47.6094"/><rect fill="#FFFFFF" height="135.4063" style="stroke:#181818;stroke-width:1.0;" width="10" x="461" y="47.6094"/><line style="stroke:#181818;stroke-width:0.5;stroke-dasharray:5.0,5.0;" x1="55" x2="55" y1="37.6094" y2="192.0156"/><line style="stroke:#181818;stroke-width:0.5;stroke-dasharray:5.0,5.0;" x1="466" x2="466" y1="37.6094" y2="192.0156"/><rect fill="#E2E2F0" height="31.6094" rx="2.5" ry="2.5" style="stroke:#181818;stroke-width:0.5;" width="100" x="5" y="5"/><text fill="#000000" font-family="sans-serif" font-size="14" lengthAdjust="spacing" textLength="86" x="12" y="26.5332">Client System</text><rect fill="#E2E2F0" height="31.6094" rx="2.5" ry="2.5" style="stroke:#181818;stroke-width:0.5;" width="100" x="5" y="191.0156"/><text fill="#000000" font-family="sans-serif" font-size="14" lengthAdjust="spacing" textLength="86" x="12" y="212.5488">Client System</text><rect fill="#E2E2F0" height="31.6094" rx="2.5" ry="2.5" style="stroke:#181818;stroke-width:0.5;" width="106" x="413" y="5"/><text fill="#000000" font-family="sans-serif" font-size="14" lengthAdjust="spacing" textLength="92" x="420" y="26.5332">Server System</text><rect fill="#E2E2F0" height="31.6094" rx="2.5" ry="2.5" style="stroke:#181818;stroke-width:0.5;" width="106" x="413" y="191.0156"/><text fill="#000000" font-family="sans-serif" font-size="14" lengthAdjust="spacing" textLength="92" x="420" y="212.5488">Server System</text><rect fill="#FFFFFF" height="135.4063" style="stroke:#181818;stroke-width:1.0;" width="10" x="50" y="47.6094"/><rect fill="#FFFFFF" height="135.4063" style="stroke:#181818;stroke-width:1.0;" width="10" x="461" y="47.6094"/><polygon fill="#181818" points="449,65.9609,459,69.9609,449,73.9609,453,69.9609" style="stroke:#181818;stroke-width:1.0;"/><line style="stroke:#181818;stroke-width:1.0;" x1="60" x2="455" y1="69.9609" y2="69.9609"/><text fill="#000000" font-family="sans-serif" font-size="13" lengthAdjust="spacing" textLength="377" x="67" y="65.1045">subscribe to Topic: http://hl7.org/SubscriptionTopic/patient-merge</text><polygon fill="#181818" points="71,96.3125,61,100.3125,71,104.3125,67,100.3125" style="stroke:#181818;stroke-width:1.0;"/><line style="stroke:#181818;stroke-width:1.0;" x1="65" x2="460" y1="100.3125" y2="100.3125"/><text fill="#000000" font-family="sans-serif" font-size="13" lengthAdjust="spacing" textLength="134" x="77" y="95.4561">Subscription Confirmed</text><line style="stroke:#181818;stroke-width:1.0;" x1="471" x2="513" y1="130.6641" y2="130.6641"/><line style="stroke:#181818;stroke-width:1.0;" x1="513" x2="513" y1="130.6641" y2="143.6641"/><line style="stroke:#181818;stroke-width:1.0;" x1="472" x2="513" y1="143.6641" y2="143.6641"/><polygon fill="#181818" points="482,139.6641,472,143.6641,482,147.6641,478,143.6641" style="stroke:#181818;stroke-width:1.0;"/><text fill="#000000" font-family="sans-serif" font-size="13" lengthAdjust="spacing" textLength="261" x="478" y="125.8076">$patient-merge with source and target patient</text><polygon fill="#181818" points="71,170.0156,61,174.0156,71,178.0156,67,174.0156" style="stroke:#181818;stroke-width:1.0;"/><line style="stroke:#181818;stroke-width:1.0;" x1="65" x2="460" y1="174.0156" y2="174.0156"/><text fill="#000000" font-family="sans-serif" font-size="13" lengthAdjust="spacing" textLength="140" x="77" y="169.1592">send Notification Bundle</text><!--MD5=[728ca80338a9b2b5ea330210bf45ab10]
@startuml

participant "Client System" as ClientSystem
participant "Server System" as ServerSystem

activate ClientSystem
activate ServerSystem
ClientSystem -> ServerSystem: subscribe to Topic: http://hl7.org/SubscriptionTopic/patient-merge

ServerSystem -> ClientSystem: Subscription Confirmed


ServerSystem -> ServerSystem: $patient-merge with source and target patient
ServerSystem -> ClientSystem: send Notification Bundle

@enduml

PlantUML version 1.2022.7(Mon Aug 22 19:01:30 CEST 2022)
(GPL source distribution)
Java Runtime: OpenJDK Runtime Environment
JVM: OpenJDK 64-Bit Server VM
Default Encoding: UTF-8
Language: de
Country: DE
--></g></svg>