<?xml version="1.0" encoding="us-ascii" standalone="no"?><svg xmlns="http://www.w3.org/2000/svg" xmlns:xlink="http://www.w3.org/1999/xlink" contentStyleType="text/css" height="1021px" preserveAspectRatio="none" style="width:1702px;height:1021px;background:#FFFFFF;" version="1.1" viewBox="0 0 1702 1021" width="1702px" zoomAndPan="magnify"><defs/><g><!--cluster gnrlUC--><g id="cluster_gnrlUC"><rect fill="none" height="628" rx="35" ry="35" style="stroke:#181818;stroke-width:1.0;" width="1006" x="114" y="387"/><text fill="#000000" font-family="sans-serif" font-size="14" font-weight="bold" lengthAdjust="spacing" textLength="77" x="578.5" y="406.9951">Allgemein</text></g><!--cluster patientUC--><g id="cluster_patientUC"><rect fill="none" height="260" rx="35" ry="35" style="stroke:#181818;stroke-width:1.0;" width="731.5" x="154" y="454"/><text fill="#000000" font-family="sans-serif" font-size="14" font-weight="bold" lengthAdjust="spacing" textLength="182" x="428.75" y="473.9951">Patienten-Management</text></g><!--cluster adverseUC--><g id="cluster_adverseUC"><rect fill="none" height="348" rx="35" ry="35" style="stroke:#181818;stroke-width:1.0;" width="482.5" x="153" y="7"/><text fill="#000000" font-family="sans-serif" font-size="14" font-weight="bold" lengthAdjust="spacing" textLength="154" x="317.25" y="26.9951">Adverse Use Cases</text></g><!--cluster Verwechslung--><g id="cluster_Verwechslung"><rect fill="none" height="146" rx="35" ry="35" style="stroke:#181818;stroke-width:1.0;" width="400.5" x="209" y="50"/><text fill="#000000" font-family="sans-serif" font-size="14" font-weight="bold" lengthAdjust="spacing" textLength="114" x="352.25" y="69.9951">Verwechslung</text></g><!--cluster techUC--><g id="cluster_techUC"><rect fill="none" height="294" rx="35" ry="35" style="stroke:#181818;stroke-width:1.0;" width="536" x="1160" y="290"/><text fill="#000000" font-family="sans-serif" font-size="14" font-weight="bold" lengthAdjust="spacing" textLength="154" x="1351" y="309.9951">Technical Use Case</text></g><g id="elem_Versorgung"><ellipse cx="270.7655" cy="974.0531" fill="#F1F1F1" rx="65.7655" ry="15.5531" style="stroke:#181818;stroke-width:0.5;"/><text fill="#000000" font-family="sans-serif" font-size="14" lengthAdjust="spacing" textLength="81" x="227.2655" y="977.8007">Versorgung</text></g><g id="elem_Administration"><ellipse cx="270.9293" cy="903.7859" fill="#F1F1F1" rx="71.9293" ry="16.7859" style="stroke:#181818;stroke-width:0.5;"/><text fill="#000000" font-family="sans-serif" font-size="14" lengthAdjust="spacing" textLength="98" x="218.9293" y="907.5334">Administration</text></g><g id="elem_Digitalisierung"><ellipse cx="271.0529" cy="830.2106" fill="#F1F1F1" rx="71.5529" ry="16.7106" style="stroke:#181818;stroke-width:0.5;"/><text fill="#000000" font-family="sans-serif" font-size="14" lengthAdjust="spacing" textLength="97" x="219.5529" y="833.9581">Digitalisierung</text></g><g id="elem_Dokumentation"><ellipse cx="270.8844" cy="758.9769" fill="#F1F1F1" rx="75.3844" ry="17.4769" style="stroke:#181818;stroke-width:0.5;"/><text fill="#000000" font-family="sans-serif" font-size="14" lengthAdjust="spacing" textLength="107" x="214.3844" y="762.7244">Dokumentation</text></g><g id="elem_Abrechnung"><ellipse cx="534.1678" cy="974.8336" fill="#F1F1F1" rx="67.1678" ry="15.8336" style="stroke:#181818;stroke-width:0.5;"/><text fill="#000000" font-family="sans-serif" font-size="14" lengthAdjust="spacing" textLength="85" x="488.6678" y="978.5811">Abrechnung</text></g><g id="elem_Wirtschaftlichkeit"><ellipse cx="533.9652" cy="906.193" fill="#F1F1F1" rx="78.9652" ry="18.193" style="stroke:#181818;stroke-width:0.5;"/><text fill="#000000" font-family="sans-serif" font-size="14" lengthAdjust="spacing" textLength="116" x="473.9" y="909.6886">Wirtschaftlichkeit</text></g><g id="elem_Versicherungsverh&#228;ltnis"><ellipse cx="533.8822" cy="830.0764" fill="#F1F1F1" rx="100.8822" ry="22.5764" style="stroke:#181818;stroke-width:0.5;"/><text fill="#000000" font-family="sans-serif" font-size="14" lengthAdjust="spacing" textLength="166" x="450.8822" y="832.9231">Versicherungsverh&#228;ltnis</text></g><g id="elem_Strukturierung"><ellipse cx="533.8073" cy="754.8615" fill="#F1F1F1" rx="72.3073" ry="16.8615" style="stroke:#181818;stroke-width:0.5;"/><text fill="#000000" font-family="sans-serif" font-size="14" lengthAdjust="spacing" textLength="99" x="481.3073" y="758.609">Strukturierung</text></g><g id="elem_Organisationsstruktur"><ellipse cx="788.2229" cy="964.0446" fill="#F1F1F1" rx="93.2229" ry="21.0446" style="stroke:#181818;stroke-width:0.5;"/><text fill="#000000" font-family="sans-serif" font-size="14" lengthAdjust="spacing" textLength="149" x="713.7229" y="966.8913">Organisationsstruktur</text></g><g id="elem_Archivierung"><ellipse cx="788.1678" cy="891.8336" fill="#F1F1F1" rx="67.1678" ry="15.8336" style="stroke:#181818;stroke-width:0.5;"/><text fill="#000000" font-family="sans-serif" font-size="14" lengthAdjust="spacing" textLength="85" x="742.6678" y="895.5811">Archivierung</text></g><g id="elem_Delegation"><ellipse cx="788.2248" cy="826.145" fill="#F1F1F1" rx="63.7248" ry="15.145" style="stroke:#181818;stroke-width:0.5;"/><text fill="#000000" font-family="sans-serif" font-size="14" lengthAdjust="spacing" textLength="75" x="747.7248" y="829.8925">Delegation</text></g><g id="elem_Konsultation"><ellipse cx="788.0233" cy="759.9047" fill="#F1F1F1" rx="67.5233" ry="15.9047" style="stroke:#181818;stroke-width:0.5;"/><text fill="#000000" font-family="sans-serif" font-size="14" lengthAdjust="spacing" textLength="86" x="742.0233" y="763.6522">Konsultation</text></g><g id="elem_Transparenz"><ellipse cx="1018.3807" cy="752.9761" fill="#F1F1F1" rx="67.8807" ry="15.9761" style="stroke:#181818;stroke-width:0.5;"/><text fill="#000000" font-family="sans-serif" font-size="14" lengthAdjust="spacing" textLength="87" x="971.8807" y="756.7237">Transparenz</text></g><g id="elem_Information &amp;\nHistorie"><ellipse cx="1018.3045" cy="676.0654" fill="#F1F1F1" rx="77.3045" ry="26.0654" style="stroke:#181818;stroke-width:0.5;"/><text fill="#000000" font-family="sans-serif" font-size="14" lengthAdjust="spacing" textLength="93" x="969.7229" y="671.4098">Information &amp;</text><text fill="#000000" font-family="sans-serif" font-size="14" lengthAdjust="spacing" textLength="52" x="990.2229" y="687.7067">Historie</text></g><g id="elem_Aufnahme"><ellipse cx="271.0868" cy="655.8174" fill="#F1F1F1" rx="62.0868" ry="14.8174" style="stroke:#181818;stroke-width:0.5;"/><text fill="#000000" font-family="sans-serif" font-size="14" lengthAdjust="spacing" textLength="70" x="233.0868" y="659.5649">Aufnahme</text></g><g id="elem_Behandlungs-Journey"><ellipse cx="270.7771" cy="584.9554" fill="#F1F1F1" rx="92.7771" ry="20.9554" style="stroke:#181818;stroke-width:0.5;"/><text fill="#000000" font-family="sans-serif" font-size="14" lengthAdjust="spacing" textLength="148" x="196.7771" y="587.8021">Behandlungs-Journey</text></g><g id="elem_Entlassung"><ellipse cx="270.8963" cy="512.7793" fill="#F1F1F1" rx="64.3963" ry="15.2793" style="stroke:#181818;stroke-width:0.5;"/><text fill="#000000" font-family="sans-serif" font-size="14" lengthAdjust="spacing" textLength="77" x="229.3963" y="516.5268">Entlassung</text></g><g id="elem_&#220;berleitung"><ellipse cx="533.92" cy="665.984" fill="#F1F1F1" rx="65.42" ry="15.484" style="stroke:#181818;stroke-width:0.5;"/><text fill="#000000" font-family="sans-serif" font-size="14" lengthAdjust="spacing" textLength="80" x="490.92" y="669.7316">&#220;berleitung</text></g><g id="elem_Information"><ellipse cx="533.8963" cy="599.7793" fill="#F1F1F1" rx="64.3963" ry="15.2793" style="stroke:#181818;stroke-width:0.5;"/><text fill="#000000" font-family="sans-serif" font-size="14" lengthAdjust="spacing" textLength="77" x="492.3963" y="603.5268">Information</text></g><g id="elem_Einbeziehung \nAngeh&#246;riger"><ellipse cx="534.1541" cy="523.0958" fill="#F1F1F1" rx="81.6541" ry="26.0958" style="stroke:#181818;stroke-width:0.5;"/><text fill="#000000" font-family="sans-serif" font-size="14" lengthAdjust="spacing" textLength="95" x="481.6541" y="518.6949">Einbeziehung</text><text fill="#000000" font-family="sans-serif" font-size="14" lengthAdjust="spacing" textLength="85" x="488.6541" y="534.9918">Angeh&#246;riger</text></g><g id="elem_Einsichtnahme"><ellipse cx="787.9504" cy="665.0901" fill="#F1F1F1" rx="73.4504" ry="17.0901" style="stroke:#181818;stroke-width:0.5;"/><text fill="#000000" font-family="sans-serif" font-size="14" lengthAdjust="spacing" textLength="102" x="733.9504" y="668.8376">Einsichtnahme</text></g><g id="elem_Merhfachdokumentation"><ellipse cx="271.2481" cy="315.8496" fill="#F1F1F1" rx="102.2481" ry="22.8496" style="stroke:#181818;stroke-width:0.5;"/><text fill="#000000" font-family="sans-serif" font-size="14" lengthAdjust="spacing" textLength="169" x="186.7481" y="318.6963">Merhfachdokumentation</text></g><g id="elem_Dokumentationsl&#252;cken"><ellipse cx="271.1147" cy="236.1229" fill="#F1F1F1" rx="98.6147" ry="22.1229" style="stroke:#181818;stroke-width:0.5;"/><text fill="#000000" font-family="sans-serif" font-size="14" lengthAdjust="spacing" textLength="161" x="190.6147" y="238.9696">Dokumentationsl&#252;cken</text></g><g id="elem_Nicht-Verf&#252;gbarkeit"><ellipse cx="534.228" cy="316.0456" fill="#F1F1F1" rx="85.728" ry="19.5456" style="stroke:#181818;stroke-width:0.5;"/><text fill="#000000" font-family="sans-serif" font-size="14" lengthAdjust="spacing" textLength="132" x="468.228" y="318.8923">Nicht-Verf&#252;gbarkeit</text></g><g id="elem_Verlust"><ellipse cx="533.8836" cy="247.1478" fill="#F1F1F1" rx="45.8836" ry="14.6478" style="stroke:#181818;stroke-width:0.5;"/><text fill="#000000" font-family="sans-serif" font-size="14" lengthAdjust="spacing" textLength="48" x="506.8836" y="250.8954">Verlust</text></g><g id="elem_Patient"><ellipse cx="270.8836" cy="164.1478" fill="#F1F1F1" rx="45.8836" ry="14.6478" style="stroke:#181818;stroke-width:0.5;"/><text fill="#000000" font-family="sans-serif" font-size="14" lengthAdjust="spacing" textLength="48" x="243.8836" y="167.8954">Patient</text></g><g id="elem_Fall"><ellipse cx="271.0416" cy="100.0236" fill="#F1F1F1" rx="27.0416" ry="14.5236" style="stroke:#181818;stroke-width:0.5;"/><text fill="#000000" font-family="sans-serif" font-size="14" lengthAdjust="spacing" textLength="22" x="260.0416" y="102.8703">Fall</text></g><g id="elem_Diagnose"><ellipse cx="533.8197" cy="164.7671" fill="#F1F1F1" rx="59.3197" ry="14.7671" style="stroke:#181818;stroke-width:0.5;"/><text fill="#000000" font-family="sans-serif" font-size="14" lengthAdjust="spacing" textLength="66" x="497.8197" y="168.5147">Diagnose</text></g><g id="elem_Ort-Zeit"><ellipse cx="534.1151" cy="100.1874" fill="#F1F1F1" rx="49.6151" ry="14.6874" style="stroke:#181818;stroke-width:0.5;"/><text fill="#000000" font-family="sans-serif" font-size="14" lengthAdjust="spacing" textLength="53" x="504.6151" y="103.9349">Ort-Zeit</text></g><g id="elem_Synchronisation"><ellipse cx="1295.5612" cy="542.2122" fill="#F1F1F1" rx="76.5612" ry="17.7122" style="stroke:#181818;stroke-width:0.5;"/><text fill="#000000" font-family="sans-serif" font-size="14" lengthAdjust="spacing" textLength="110" x="1237.5612" y="545.9598">Synchronisation</text></g><g id="elem_Performance &amp; \nDatensparsamkeit"><ellipse cx="1295.5807" cy="463.0473" fill="#F1F1F1" rx="100.5807" ry="26.0473" style="stroke:#181818;stroke-width:0.5;"/><text fill="#000000" font-family="sans-serif" font-size="14" lengthAdjust="spacing" textLength="104" x="1241.5807" y="457.7455">Performance &amp;</text><text fill="#000000" font-family="sans-serif" font-size="14" lengthAdjust="spacing" textLength="126" x="1232.5807" y="474.0424">Datensparsamkeit</text></g><g id="elem_Wechsel f&#252;hrendes System"><ellipse cx="1295.4443" cy="377.1889" fill="#F1F1F1" rx="111.4443" ry="24.6889" style="stroke:#181818;stroke-width:0.5;"/><text fill="#000000" font-family="sans-serif" font-size="14" lengthAdjust="spacing" textLength="189" x="1200.9443" y="380.0355">Wechsel f&#252;hrendes System</text></g><g id="elem_Kommunikation"><ellipse cx="1569.3844" cy="541.9769" fill="#F1F1F1" rx="75.3844" ry="17.4769" style="stroke:#181818;stroke-width:0.5;"/><text fill="#000000" font-family="sans-serif" font-size="14" lengthAdjust="spacing" textLength="107" x="1512.8844" y="545.7244">Kommunikation</text></g><g id="elem_Eindeutigkeit"><ellipse cx="1569.464" cy="473.1928" fill="#F1F1F1" rx="68.964" ry="16.1928" style="stroke:#181818;stroke-width:0.5;"/><text fill="#000000" font-family="sans-serif" font-size="14" lengthAdjust="spacing" textLength="90" x="1521.464" y="476.9404">Eindeutigkeit</text></g><g id="elem_Grundlagen-Ressourcen"><ellipse cx="1569.7042" cy="398.9408" fill="#F1F1F1" rx="102.7042" ry="22.9408" style="stroke:#181818;stroke-width:0.5;"/><text fill="#000000" font-family="sans-serif" font-size="14" lengthAdjust="spacing" textLength="170" x="1484.7042" y="401.7875">Grundlagen-Ressourcen</text></g><!--entity Heilberufler--><g id="elem_Heilberufler"><ellipse cx="48" cy="384.5" fill="#F1F1F1" rx="8" ry="8" style="stroke:#181818;stroke-width:0.5;"/><path d="M48,392.5 L48,419.5 M35,400.5 L61,400.5 M48,419.5 L35,434.5 M48,419.5 L61,434.5 " fill="none" style="stroke:#181818;stroke-width:0.5;"/><text fill="#000000" font-family="sans-serif" font-size="14" lengthAdjust="spacing" textLength="78" x="9" y="448.9951">Heilberufler</text></g><!--entity Versicherter--><g id="elem_Versicherter"><ellipse cx="48" cy="676.5" fill="#F1F1F1" rx="8" ry="8" style="stroke:#181818;stroke-width:0.5;"/><path d="M48,684.5 L48,711.5 M35,692.5 L61,692.5 M48,711.5 L35,726.5 M48,711.5 L61,726.5 " fill="none" style="stroke:#181818;stroke-width:0.5;"/><text fill="#000000" font-family="sans-serif" font-size="14" lengthAdjust="spacing" textLength="84" x="6" y="740.9951">Versicherter</text></g><!--entity FhirRepo--><g id="elem_FhirRepo"><ellipse cx="1018.5" cy="167.2969" fill="#F1F1F1" rx="8" ry="8" style="stroke:#181818;stroke-width:0.5;"/><path d="M1018.5,175.2969 L1018.5,202.2969 M1005.5,183.2969 L1031.5,183.2969 M1018.5,202.2969 L1005.5,217.2969 M1018.5,202.2969 L1031.5,217.2969 " fill="none" style="stroke:#181818;stroke-width:0.5;"/><text fill="#000000" font-family="sans-serif" font-size="14" lengthAdjust="spacing" textLength="109" x="964" y="231.792">FHIR Repository</text><text fill="#000000" font-family="sans-serif" font-size="14" font-style="italic" lengthAdjust="spacing" textLength="119" x="959" y="155.4951">&#171;Technical User&#187;</text></g><!--entity Client--><g id="elem_Client"><ellipse cx="1018.5" cy="295.2969" fill="#F1F1F1" rx="8" ry="8" style="stroke:#181818;stroke-width:0.5;"/><path d="M1018.5,303.2969 L1018.5,330.2969 M1005.5,311.2969 L1031.5,311.2969 M1018.5,330.2969 L1005.5,345.2969 M1018.5,330.2969 L1031.5,345.2969 " fill="none" style="stroke:#181818;stroke-width:0.5;"/><text fill="#000000" font-family="sans-serif" font-size="14" lengthAdjust="spacing" textLength="39" x="999" y="359.792">Client</text><text fill="#000000" font-family="sans-serif" font-size="14" font-style="italic" lengthAdjust="spacing" textLength="119" x="959" y="283.4951">&#171;Technical User&#187;</text></g><!--link Heilberufler to gnrlUC--><g id="link_Heilberufler_gnrlUC"><path d="M87.24,414 C95.0238,414 103.6591,414 112.8185,414 C113.1047,414 107.3915,414 107.6787,414 " fill="none" id="Heilberufler-to-gnrlUC" style="stroke:#181818;stroke-width:1.0;"/><polygon fill="#181818" points="113.6787,414,104.6787,410,108.6787,414,104.6787,418,113.6787,414" style="stroke:#181818;stroke-width:1.0;"/></g><!--link Versicherter to patientUC--><g id="link_Versicherter_patientUC"><path d="M90.05,706 C105.7775,706 124.6625,706 144.1984,706 C146.6404,706 149.0926,706 151.55,706 C152.1644,706 146.7791,706 147.394,706 " fill="none" id="Versicherter-to-patientUC" style="stroke:#181818;stroke-width:1.0;"/><polygon fill="#181818" points="153.394,706,144.394,702,148.394,706,144.394,710,153.394,706" style="stroke:#181818;stroke-width:1.0;"/></g><!--link FhirRepo to techUC--><g id="link_FhirRepo_techUC"><path d="M1078.16,216.3 C1117.91,234.805 1170.94,259.4875 1214.5475,279.7837 C1219.9984,282.3208 1225.3021,284.7893 1230.4143,287.1686 C1231.6923,287.7634 1232.9584,288.3527 1234.2118,288.9361 C1234.8385,289.2277 1230.0223,286.9862 1230.6426,287.2749 " fill="none" id="FhirRepo-to-techUC" style="stroke:#181818;stroke-width:1.0;"/><polygon fill="#181818" points="1236.0823,289.8066,1229.6106,282.3825,1231.5492,287.6968,1226.2349,289.6354,1236.0823,289.8066" style="stroke:#181818;stroke-width:1.0;"/></g><!--link Client to techUC--><g id="link_Client_techUC"><path d="M1078.16,317 C1098.035,317 1121.23,317 1144.9072,317 C1147.8668,317 1150.834,317 1153.8032,317 C1155.2878,317 1156.7729,317 1158.2578,317 C1158.629,317 1153.0002,317 1153.3714,317 " fill="none" id="Client-to-techUC" style="stroke:#181818;stroke-width:1.0;"/><polygon fill="#181818" points="1159.3714,317,1150.3714,313,1154.3714,317,1150.3714,321,1159.3714,317" style="stroke:#181818;stroke-width:1.0;"/></g><!--SRC=[RLHDJnin4Btlhx0uG7F87uWGKY2bq8g221Ifuk9uPzUZU6SZZvSgLFoJ7liRUkAMFzRnVYHU2KxnysDctfktTb045MhbiRH1vUZ11AmfE-4rqaPxNQcDDcjTmZ9i7IZZwYPFRnqIXEq6LEs3hRFiH9jGUpMxlBg-L_UmgHdbl9qfpMfnhavFrNopSMXqRAFEphAUVmNeLk2Rme6V3U0Fy8p6WWyH_B3cfKKVeLZv0OmbAUtK8uEFnMSN3e52o-n-VipBM0gAI5MITuyNaNuqTww42f2ErEzCoT-dE4xjouRAIGVCyme9EVXMJGykiCIW7JAAd3rrKQ-RIlgdpFdAnqaEf2VqWOtLHH27x1emJ0wTMoE4oo_WxUwl2zAvlru6twn3uqSTRtsfXT8sPEuPGsTlBBwC1mG7PJhTD_ctneq6Vl2QMFOEzDeZrrJKlkgMUVnCLnYDHEXk1rCtSY_IUr_lkXFGz4QJZXPJEEeSxcPh2jAsWeawOETWDUKkgfz-hHjFi9qSRZzJS9fvhwK5TtyaJaui7CF9m6a5f1My8bWXgsUQKmbszqy-2l1ZLjn2wCPhyRVixH0UdSjg68RyTAUOCNMX6NZ8qK2FM_qb0U2eQv8uq3kKTBxKpYN71UgIQeO4klLX-dCVcBTkEpUIb48RctyGlb4WsUtUpHg6k-zHvLJ6AtRlvKhxSH9Tmt9AT0SHqOiUVLgjxFtNizoIiRuU8jdNkvCcSI5aG1sBzGijoOWPOrqbRP-YJ-2K36GbVZcmMcuvGBKFQrKrXEkqjAmhXoPWcTJv8edFdGnDqtjWbYYPg5h4P5dw1AdfzAn_3BBq5MhnVPwpRF_yHBpp8UiVcWJ9JWeoWLle49APgb2c4y6S4ledQAQ0zCe1_mS0]--></g></svg>