<?xml version="1.0" encoding="us-ascii" standalone="no"?><svg xmlns="http://www.w3.org/2000/svg" xmlns:xlink="http://www.w3.org/1999/xlink" contentStyleType="text/css" height="1013px" preserveAspectRatio="none" style="width:1472px;height:1013px;background:#FFFFFF;" version="1.1" viewBox="0 0 1472 1013" width="1472px" zoomAndPan="magnify"><defs/><g><!--cluster gnrlUC--><g id="cluster_gnrlUC"><rect fill="none" height="620" rx="35" ry="35" style="stroke:#181818;stroke-width:1.0;" width="776" x="114" y="387"/><text fill="#000000" font-family="sans-serif" font-size="14" font-weight="bold" lengthAdjust="spacing" textLength="77" x="463.5" y="406.9951">Allgemein</text></g><!--cluster patientUC--><g id="cluster_patientUC"><rect fill="none" height="260" rx="35" ry="35" style="stroke:#181818;stroke-width:1.0;" width="696" x="154" y="454"/><text fill="#000000" font-family="sans-serif" font-size="14" font-weight="bold" lengthAdjust="spacing" textLength="182" x="411" y="473.9951">Patienten-Management</text></g><!--cluster adverseUC--><g id="cluster_adverseUC"><rect fill="none" height="348" rx="35" ry="35" style="stroke:#181818;stroke-width:1.0;" width="474.5" x="153" y="7"/><text fill="#000000" font-family="sans-serif" font-size="14" font-weight="bold" lengthAdjust="spacing" textLength="154" x="313.25" y="26.9951">Adverse Use Cases</text></g><!--cluster Verwechslung--><g id="cluster_Verwechslung"><rect fill="none" height="146" rx="35" ry="35" style="stroke:#181818;stroke-width:1.0;" width="392.5" x="209" y="50"/><text fill="#000000" font-family="sans-serif" font-size="14" font-weight="bold" lengthAdjust="spacing" textLength="114" x="348.25" y="69.9951">Verwechslung</text></g><!--cluster techUC--><g id="cluster_techUC"><rect fill="none" height="294" rx="35" ry="35" style="stroke:#181818;stroke-width:1.0;" width="536" x="930" y="290"/><text fill="#000000" font-family="sans-serif" font-size="14" font-weight="bold" lengthAdjust="spacing" textLength="154" x="1121" y="309.9951">Technical Use Case</text></g><g id="elem_Versorgung"><ellipse cx="270.7655" cy="967.0531" fill="#F1F1F1" rx="65.7655" ry="15.5531" style="stroke:#181818;stroke-width:0.5;"/><text fill="#000000" font-family="sans-serif" font-size="14" lengthAdjust="spacing" textLength="81" x="227.2655" y="970.8007">Versorgung</text></g><g id="elem_Administration"><ellipse cx="270.9293" cy="897.7859" fill="#F1F1F1" rx="71.9293" ry="16.7859" style="stroke:#181818;stroke-width:0.5;"/><text fill="#000000" font-family="sans-serif" font-size="14" lengthAdjust="spacing" textLength="98" x="218.9293" y="901.5334">Administration</text></g><g id="elem_Digitalisierung"><ellipse cx="271.0529" cy="828.2106" fill="#F1F1F1" rx="71.5529" ry="16.7106" style="stroke:#181818;stroke-width:0.5;"/><text fill="#000000" font-family="sans-serif" font-size="14" lengthAdjust="spacing" textLength="97" x="219.5529" y="831.9581">Digitalisierung</text></g><g id="elem_Dokumentation"><ellipse cx="270.8844" cy="758.9769" fill="#F1F1F1" rx="75.3844" ry="17.4769" style="stroke:#181818;stroke-width:0.5;"/><text fill="#000000" font-family="sans-serif" font-size="14" lengthAdjust="spacing" textLength="107" x="214.3844" y="762.7244">Dokumentation</text></g><g id="elem_Abrechnung"><ellipse cx="526.1678" cy="966.8336" fill="#F1F1F1" rx="67.1678" ry="15.8336" style="stroke:#181818;stroke-width:0.5;"/><text fill="#000000" font-family="sans-serif" font-size="14" lengthAdjust="spacing" textLength="85" x="480.6678" y="970.5811">Abrechnung</text></g><g id="elem_Strukturierung"><ellipse cx="525.8073" cy="898.8615" fill="#F1F1F1" rx="72.3073" ry="16.8615" style="stroke:#181818;stroke-width:0.5;"/><text fill="#000000" font-family="sans-serif" font-size="14" lengthAdjust="spacing" textLength="99" x="473.3073" y="902.609">Strukturierung</text></g><g id="elem_Organisationsstruktur"><ellipse cx="526.2229" cy="826.0446" fill="#F1F1F1" rx="93.2229" ry="21.0446" style="stroke:#181818;stroke-width:0.5;"/><text fill="#000000" font-family="sans-serif" font-size="14" lengthAdjust="spacing" textLength="149" x="451.7229" y="828.8913">Organisationsstruktur</text></g><g id="elem_Archivierung"><ellipse cx="526.1678" cy="753.8336" fill="#F1F1F1" rx="67.1678" ry="15.8336" style="stroke:#181818;stroke-width:0.5;"/><text fill="#000000" font-family="sans-serif" font-size="14" lengthAdjust="spacing" textLength="85" x="480.6678" y="757.5811">Archivierung</text></g><g id="elem_Delegation"><ellipse cx="752.7248" cy="927.145" fill="#F1F1F1" rx="63.7248" ry="15.145" style="stroke:#181818;stroke-width:0.5;"/><text fill="#000000" font-family="sans-serif" font-size="14" lengthAdjust="spacing" textLength="75" x="712.2248" y="930.8925">Delegation</text></g><g id="elem_Konsultation"><ellipse cx="752.5233" cy="860.9047" fill="#F1F1F1" rx="67.5233" ry="15.9047" style="stroke:#181818;stroke-width:0.5;"/><text fill="#000000" font-family="sans-serif" font-size="14" lengthAdjust="spacing" textLength="86" x="706.5233" y="864.6522">Konsultation</text></g><g id="elem_Transparenz"><ellipse cx="752.3807" cy="793.9761" fill="#F1F1F1" rx="67.8807" ry="15.9761" style="stroke:#181818;stroke-width:0.5;"/><text fill="#000000" font-family="sans-serif" font-size="14" lengthAdjust="spacing" textLength="87" x="705.8807" y="797.7237">Transparenz</text></g><g id="elem_Aufnahme"><ellipse cx="271.0868" cy="655.8174" fill="#F1F1F1" rx="62.0868" ry="14.8174" style="stroke:#181818;stroke-width:0.5;"/><text fill="#000000" font-family="sans-serif" font-size="14" lengthAdjust="spacing" textLength="70" x="233.0868" y="659.5649">Aufnahme</text></g><g id="elem_Behandlungs-Journey"><ellipse cx="270.7771" cy="584.9554" fill="#F1F1F1" rx="92.7771" ry="20.9554" style="stroke:#181818;stroke-width:0.5;"/><text fill="#000000" font-family="sans-serif" font-size="14" lengthAdjust="spacing" textLength="148" x="196.7771" y="587.8021">Behandlungs-Journey</text></g><g id="elem_Entlassung"><ellipse cx="270.8963" cy="512.7793" fill="#F1F1F1" rx="64.3963" ry="15.2793" style="stroke:#181818;stroke-width:0.5;"/><text fill="#000000" font-family="sans-serif" font-size="14" lengthAdjust="spacing" textLength="77" x="229.3963" y="516.5268">Entlassung</text></g><g id="elem_&#220;berleitung"><ellipse cx="525.92" cy="665.984" fill="#F1F1F1" rx="65.42" ry="15.484" style="stroke:#181818;stroke-width:0.5;"/><text fill="#000000" font-family="sans-serif" font-size="14" lengthAdjust="spacing" textLength="80" x="482.92" y="669.7316">&#220;berleitung</text></g><g id="elem_Information"><ellipse cx="525.8963" cy="599.7793" fill="#F1F1F1" rx="64.3963" ry="15.2793" style="stroke:#181818;stroke-width:0.5;"/><text fill="#000000" font-family="sans-serif" font-size="14" lengthAdjust="spacing" textLength="77" x="484.3963" y="603.5268">Information</text></g><g id="elem_Einbeziehung \nAngeh&#246;riger"><ellipse cx="526.1541" cy="523.0958" fill="#F1F1F1" rx="81.6541" ry="26.0958" style="stroke:#181818;stroke-width:0.5;"/><text fill="#000000" font-family="sans-serif" font-size="14" lengthAdjust="spacing" textLength="95" x="473.6541" y="518.6949">Einbeziehung</text><text fill="#000000" font-family="sans-serif" font-size="14" lengthAdjust="spacing" textLength="85" x="480.6541" y="534.9918">Angeh&#246;riger</text></g><g id="elem_Einsichtnahme"><ellipse cx="752.4504" cy="665.0901" fill="#F1F1F1" rx="73.4504" ry="17.0901" style="stroke:#181818;stroke-width:0.5;"/><text fill="#000000" font-family="sans-serif" font-size="14" lengthAdjust="spacing" textLength="102" x="698.4504" y="668.8376">Einsichtnahme</text></g><g id="elem_Merhfachdokumentation"><ellipse cx="271.2481" cy="315.8496" fill="#F1F1F1" rx="102.2481" ry="22.8496" style="stroke:#181818;stroke-width:0.5;"/><text fill="#000000" font-family="sans-serif" font-size="14" lengthAdjust="spacing" textLength="169" x="186.7481" y="318.6963">Merhfachdokumentation</text></g><g id="elem_Dokumentationsl&#252;cken"><ellipse cx="271.1147" cy="236.1229" fill="#F1F1F1" rx="98.6147" ry="22.1229" style="stroke:#181818;stroke-width:0.5;"/><text fill="#000000" font-family="sans-serif" font-size="14" lengthAdjust="spacing" textLength="161" x="190.6147" y="238.9696">Dokumentationsl&#252;cken</text></g><g id="elem_Nicht-Verf&#252;gbarkeit"><ellipse cx="526.228" cy="316.0456" fill="#F1F1F1" rx="85.728" ry="19.5456" style="stroke:#181818;stroke-width:0.5;"/><text fill="#000000" font-family="sans-serif" font-size="14" lengthAdjust="spacing" textLength="132" x="460.228" y="318.8923">Nicht-Verf&#252;gbarkeit</text></g><g id="elem_Verlust"><ellipse cx="525.8836" cy="247.1478" fill="#F1F1F1" rx="45.8836" ry="14.6478" style="stroke:#181818;stroke-width:0.5;"/><text fill="#000000" font-family="sans-serif" font-size="14" lengthAdjust="spacing" textLength="48" x="498.8836" y="250.8954">Verlust</text></g><g id="elem_Patient"><ellipse cx="270.8836" cy="164.1478" fill="#F1F1F1" rx="45.8836" ry="14.6478" style="stroke:#181818;stroke-width:0.5;"/><text fill="#000000" font-family="sans-serif" font-size="14" lengthAdjust="spacing" textLength="48" x="243.8836" y="167.8954">Patient</text></g><g id="elem_Fall"><ellipse cx="271.0416" cy="100.0236" fill="#F1F1F1" rx="27.0416" ry="14.5236" style="stroke:#181818;stroke-width:0.5;"/><text fill="#000000" font-family="sans-serif" font-size="14" lengthAdjust="spacing" textLength="22" x="260.0416" y="102.8703">Fall</text></g><g id="elem_Diagnose"><ellipse cx="525.8197" cy="164.7671" fill="#F1F1F1" rx="59.3197" ry="14.7671" style="stroke:#181818;stroke-width:0.5;"/><text fill="#000000" font-family="sans-serif" font-size="14" lengthAdjust="spacing" textLength="66" x="489.8197" y="168.5147">Diagnose</text></g><g id="elem_Ort-Zeit"><ellipse cx="526.1151" cy="100.1874" fill="#F1F1F1" rx="49.6151" ry="14.6874" style="stroke:#181818;stroke-width:0.5;"/><text fill="#000000" font-family="sans-serif" font-size="14" lengthAdjust="spacing" textLength="53" x="496.6151" y="103.9349">Ort-Zeit</text></g><g id="elem_Synchronisation"><ellipse cx="1065.5612" cy="542.2122" fill="#F1F1F1" rx="76.5612" ry="17.7122" style="stroke:#181818;stroke-width:0.5;"/><text fill="#000000" font-family="sans-serif" font-size="14" lengthAdjust="spacing" textLength="110" x="1007.5612" y="545.9598">Synchronisation</text></g><g id="elem_Performance &amp; \nDatensparsamkeit"><ellipse cx="1065.5807" cy="463.0473" fill="#F1F1F1" rx="100.5807" ry="26.0473" style="stroke:#181818;stroke-width:0.5;"/><text fill="#000000" font-family="sans-serif" font-size="14" lengthAdjust="spacing" textLength="104" x="1011.5807" y="457.7455">Performance &amp;</text><text fill="#000000" font-family="sans-serif" font-size="14" lengthAdjust="spacing" textLength="126" x="1002.5807" y="474.0424">Datensparsamkeit</text></g><g id="elem_Wechsel f&#252;hrendes System"><ellipse cx="1065.4443" cy="377.1889" fill="#F1F1F1" rx="111.4443" ry="24.6889" style="stroke:#181818;stroke-width:0.5;"/><text fill="#000000" font-family="sans-serif" font-size="14" lengthAdjust="spacing" textLength="189" x="970.9443" y="380.0355">Wechsel f&#252;hrendes System</text></g><g id="elem_Kommunikation"><ellipse cx="1339.3844" cy="541.9769" fill="#F1F1F1" rx="75.3844" ry="17.4769" style="stroke:#181818;stroke-width:0.5;"/><text fill="#000000" font-family="sans-serif" font-size="14" lengthAdjust="spacing" textLength="107" x="1282.8844" y="545.7244">Kommunikation</text></g><g id="elem_Eindeutigkeit"><ellipse cx="1339.464" cy="473.1928" fill="#F1F1F1" rx="68.964" ry="16.1928" style="stroke:#181818;stroke-width:0.5;"/><text fill="#000000" font-family="sans-serif" font-size="14" lengthAdjust="spacing" textLength="90" x="1291.464" y="476.9404">Eindeutigkeit</text></g><g id="elem_Grundlagen-Ressourcen"><ellipse cx="1339.7042" cy="398.9408" fill="#F1F1F1" rx="102.7042" ry="22.9408" style="stroke:#181818;stroke-width:0.5;"/><text fill="#000000" font-family="sans-serif" font-size="14" lengthAdjust="spacing" textLength="170" x="1254.7042" y="401.7875">Grundlagen-Ressourcen</text></g><!--entity Heilberufler--><g id="elem_Heilberufler"><ellipse cx="48" cy="384.5" fill="#F1F1F1" rx="8" ry="8" style="stroke:#181818;stroke-width:0.5;"/><path d="M48,392.5 L48,419.5 M35,400.5 L61,400.5 M48,419.5 L35,434.5 M48,419.5 L61,434.5 " fill="none" style="stroke:#181818;stroke-width:0.5;"/><text fill="#000000" font-family="sans-serif" font-size="14" lengthAdjust="spacing" textLength="78" x="9" y="448.9951">Heilberufler</text></g><!--entity Versicherter--><g id="elem_Versicherter"><ellipse cx="48" cy="676.5" fill="#F1F1F1" rx="8" ry="8" style="stroke:#181818;stroke-width:0.5;"/><path d="M48,684.5 L48,711.5 M35,692.5 L61,692.5 M48,711.5 L35,726.5 M48,711.5 L61,726.5 " fill="none" style="stroke:#181818;stroke-width:0.5;"/><text fill="#000000" font-family="sans-serif" font-size="14" lengthAdjust="spacing" textLength="84" x="6" y="740.9951">Versicherter</text></g><!--entity FhirRepo--><g id="elem_FhirRepo"><ellipse cx="752.5" cy="167.2969" fill="#F1F1F1" rx="8" ry="8" style="stroke:#181818;stroke-width:0.5;"/><path d="M752.5,175.2969 L752.5,202.2969 M739.5,183.2969 L765.5,183.2969 M752.5,202.2969 L739.5,217.2969 M752.5,202.2969 L765.5,217.2969 " fill="none" style="stroke:#181818;stroke-width:0.5;"/><text fill="#000000" font-family="sans-serif" font-size="14" lengthAdjust="spacing" textLength="109" x="698" y="231.792">FHIR Repository</text><text fill="#000000" font-family="sans-serif" font-size="14" font-style="italic" lengthAdjust="spacing" textLength="119" x="693" y="155.4951">&#171;Technical User&#187;</text></g><!--entity Client--><g id="elem_Client"><ellipse cx="752.5" cy="295.2969" fill="#F1F1F1" rx="8" ry="8" style="stroke:#181818;stroke-width:0.5;"/><path d="M752.5,303.2969 L752.5,330.2969 M739.5,311.2969 L765.5,311.2969 M752.5,330.2969 L739.5,345.2969 M752.5,330.2969 L765.5,345.2969 " fill="none" style="stroke:#181818;stroke-width:0.5;"/><text fill="#000000" font-family="sans-serif" font-size="14" lengthAdjust="spacing" textLength="39" x="733" y="359.792">Client</text><text fill="#000000" font-family="sans-serif" font-size="14" font-style="italic" lengthAdjust="spacing" textLength="119" x="693" y="283.4951">&#171;Technical User&#187;</text></g><!--link Heilberufler to gnrlUC--><g id="link_Heilberufler_gnrlUC"><path d="M87.24,414 C95.0238,414 103.6591,414 112.8185,414 C113.1047,414 107.3915,414 107.6787,414 " fill="none" id="Heilberufler-to-gnrlUC" style="stroke:#181818;stroke-width:1.0;"/><polygon fill="#181818" points="113.6787,414,104.6787,410,108.6787,414,104.6787,418,113.6787,414" style="stroke:#181818;stroke-width:1.0;"/></g><!--link Versicherter to patientUC--><g id="link_Versicherter_patientUC"><path d="M90.05,706 C105.7775,706 124.6625,706 144.1984,706 C146.6404,706 149.0926,706 151.55,706 C152.1644,706 146.7791,706 147.394,706 " fill="none" id="Versicherter-to-patientUC" style="stroke:#181818;stroke-width:1.0;"/><polygon fill="#181818" points="153.394,706,144.394,702,148.394,706,144.394,710,153.394,706" style="stroke:#181818;stroke-width:1.0;"/></g><!--link FhirRepo to techUC--><g id="link_FhirRepo_techUC"><path d="M812.36,213.23 C856.74,231.495 918.515,256.9175 969.81,278.0275 C976.2219,280.6663 982.47,283.2376 988.4999,285.7192 C991.5149,286.96 994.4753,288.1783 997.3744,289.3714 C997.7368,289.5206 992.5497,287.3859 992.9101,287.5342 " fill="none" id="FhirRepo-to-techUC" style="stroke:#181818;stroke-width:1.0;"/><polygon fill="#181818" points="998.4586,289.8177,991.6582,282.6935,993.8349,287.9148,988.6136,290.0915,998.4586,289.8177" style="stroke:#181818;stroke-width:1.0;"/></g><!--link Client to techUC--><g id="link_Client_techUC"><path d="M812.36,317 C834.55,317 861.0888,317 888.4919,317 C902.1934,317 910.1111,317 923.8093,317 " fill="none" id="Client-to-techUC" style="stroke:#181818;stroke-width:1.0;"/><polygon fill="#181818" points="929.8093,317,920.8093,313,924.8093,317,920.8093,321,929.8093,317" style="stroke:#181818;stroke-width:1.0;"/></g><!--SRC=[RLJBRjim4BppAuWSclgW7p2204xSD6cH9eYJ5YXweQcLI8XQ2LmgXLFaJ_eTFUNc7-jIBzD0V397ezsPtH4T5466HdfRcY1pwq47sw0ufSfYgxogPQjqfKhOX9q3gLtJvUbJPn72hWNP-60Q8KwL3esNowlhcmVv06r3bi-xfLGarnVox4oksjPPhM8RUNukHlurMBS5tnKE_782luCdgmtu4C5tQruPwoCKAp-2DiYbdNmYyB7uyj9PmD0pXx_lymHnGJOfI_JkwJBIJrREbL23nHFvHqZ-VOno6bzsM2u6O9NN5Yq5txiPmRKjRL3EacKxCtNTL5tD_LFcQkkZaWDf4tnNXSuVlNddIyLD-XU9HiPKmMjZduyRWOCoxVALN-lSKUD7hv1uVu0l0pBPRvd58iS9t0ydmEnMeOh3m70op6BetXMeJ0qBUS0km2ZC7UkXx4lJUOJTul3q4mQdY6QrFRZ_oujtOCCnV8D5u-j4zb31uXPUB1Wcor-umXBC_X_75_mnAmOd3F9w_5My7jQiycVU9KoR7aun3V9I4T2qyOaUD_-RLqNHroAPm3YXfFELSYuvhgqgiI58e3iVif_iTfBLWxVWJQ6qoT-9oL5qoEtVT0NJis_HPSRoYlrRkLM-cWj7pQuZFYM-0viOJHzz1BtjEUUR7MhZcobqOxrxRX8NWXha1nxzMd4oOef8rKdR7t5Eu2GBCXom74XkTXIWdkDOrntQAYtDwygX2xPCwdpcJEUEHMFs04GS9HrTinaXqij2Pjdv-DcAzBxeyJdFGimNHSI7EOZnIaWGSLgW3jH3Xv0iPMrP7Hkcb31U5ai9gBOEw3y0]--></g></svg>