<?xml version="1.0" encoding="us-ascii" standalone="no"?><svg xmlns="http://www.w3.org/2000/svg" xmlns:xlink="http://www.w3.org/1999/xlink" contentStyleType="text/css" height="1086px" preserveAspectRatio="none" style="width:1702px;height:1086px;background:#FFFFFF;" version="1.1" viewBox="0 0 1702 1086" width="1702px" zoomAndPan="magnify"><defs/><g><!--cluster gnrlUC--><g id="cluster_gnrlUC"><rect fill="none" height="628" rx="35" ry="35" style="stroke:#181818;stroke-width:1.0;" width="1006" x="114" y="452"/><text fill="#000000" font-family="sans-serif" font-size="14" font-weight="bold" lengthAdjust="spacing" textLength="77" x="578.5" y="471.9951">Allgemein</text></g><!--cluster patientUC--><g id="cluster_patientUC"><rect fill="none" height="260" rx="35" ry="35" style="stroke:#181818;stroke-width:1.0;" width="748.5" x="154" y="519"/><text fill="#000000" font-family="sans-serif" font-size="14" font-weight="bold" lengthAdjust="spacing" textLength="182" x="437.25" y="538.9951">Patienten-Management</text></g><!--cluster adverseUC--><g id="cluster_adverseUC"><rect fill="none" height="413" rx="35" ry="35" style="stroke:#181818;stroke-width:1.0;" width="488" x="153" y="7"/><text fill="#000000" font-family="sans-serif" font-size="14" font-weight="bold" lengthAdjust="spacing" textLength="154" x="320" y="26.9951">Adverse Use Cases</text></g><!--cluster Verwechslung--><g id="cluster_Verwechslung"><rect fill="none" height="210" rx="35" ry="35" style="stroke:#181818;stroke-width:1.0;" width="421.5" x="195.5" y="50"/><text fill="#000000" font-family="sans-serif" font-size="14" font-weight="bold" lengthAdjust="spacing" textLength="114" x="349.25" y="69.9951">Verwechslung</text></g><!--cluster techUC--><g id="cluster_techUC"><rect fill="none" height="294" rx="35" ry="35" style="stroke:#181818;stroke-width:1.0;" width="536" x="1160" y="355"/><text fill="#000000" font-family="sans-serif" font-size="14" font-weight="bold" lengthAdjust="spacing" textLength="154" x="1351" y="374.9951">Technical Use Case</text></g><g id="elem_Versorgung"><ellipse cx="270.7655" cy="1039.0531" fill="#F1F1F1" rx="65.7655" ry="15.5531" style="stroke:#181818;stroke-width:0.5;"/><text fill="#000000" font-family="sans-serif" font-size="14" lengthAdjust="spacing" textLength="81" x="227.2655" y="1042.8007">Versorgung</text></g><g id="elem_Administration"><ellipse cx="270.9293" cy="968.7859" fill="#F1F1F1" rx="71.9293" ry="16.7859" style="stroke:#181818;stroke-width:0.5;"/><text fill="#000000" font-family="sans-serif" font-size="14" lengthAdjust="spacing" textLength="98" x="218.9293" y="972.5334">Administration</text></g><g id="elem_Digitalisierung"><ellipse cx="271.0529" cy="895.2106" fill="#F1F1F1" rx="71.5529" ry="16.7106" style="stroke:#181818;stroke-width:0.5;"/><text fill="#000000" font-family="sans-serif" font-size="14" lengthAdjust="spacing" textLength="97" x="219.5529" y="898.9581">Digitalisierung</text></g><g id="elem_Dokumentation"><ellipse cx="270.8844" cy="823.9769" fill="#F1F1F1" rx="75.3844" ry="17.4769" style="stroke:#181818;stroke-width:0.5;"/><text fill="#000000" font-family="sans-serif" font-size="14" lengthAdjust="spacing" textLength="107" x="214.3844" y="827.7244">Dokumentation</text></g><g id="elem_Abrechnung"><ellipse cx="534.1678" cy="1039.8336" fill="#F1F1F1" rx="67.1678" ry="15.8336" style="stroke:#181818;stroke-width:0.5;"/><text fill="#000000" font-family="sans-serif" font-size="14" lengthAdjust="spacing" textLength="85" x="488.6678" y="1043.5811">Abrechnung</text></g><g id="elem_Wirtschaftlichkeit"><ellipse cx="533.9652" cy="971.193" fill="#F1F1F1" rx="78.9652" ry="18.193" style="stroke:#181818;stroke-width:0.5;"/><text fill="#000000" font-family="sans-serif" font-size="14" lengthAdjust="spacing" textLength="116" x="473.9" y="974.6886">Wirtschaftlichkeit</text></g><g id="elem_Versicherungsverh&#228;ltnis"><ellipse cx="533.8822" cy="895.0764" fill="#F1F1F1" rx="100.8822" ry="22.5764" style="stroke:#181818;stroke-width:0.5;"/><text fill="#000000" font-family="sans-serif" font-size="14" lengthAdjust="spacing" textLength="166" x="450.8822" y="897.9231">Versicherungsverh&#228;ltnis</text></g><g id="elem_Strukturierung"><ellipse cx="533.8073" cy="819.8615" fill="#F1F1F1" rx="72.3073" ry="16.8615" style="stroke:#181818;stroke-width:0.5;"/><text fill="#000000" font-family="sans-serif" font-size="14" lengthAdjust="spacing" textLength="99" x="481.3073" y="823.609">Strukturierung</text></g><g id="elem_Organisationsstruktur"><ellipse cx="788.2229" cy="1029.0446" fill="#F1F1F1" rx="93.2229" ry="21.0446" style="stroke:#181818;stroke-width:0.5;"/><text fill="#000000" font-family="sans-serif" font-size="14" lengthAdjust="spacing" textLength="149" x="713.7229" y="1031.8913">Organisationsstruktur</text></g><g id="elem_Archivierung"><ellipse cx="788.1678" cy="956.8336" fill="#F1F1F1" rx="67.1678" ry="15.8336" style="stroke:#181818;stroke-width:0.5;"/><text fill="#000000" font-family="sans-serif" font-size="14" lengthAdjust="spacing" textLength="85" x="742.6678" y="960.5811">Archivierung</text></g><g id="elem_Delegation"><ellipse cx="788.2248" cy="891.145" fill="#F1F1F1" rx="63.7248" ry="15.145" style="stroke:#181818;stroke-width:0.5;"/><text fill="#000000" font-family="sans-serif" font-size="14" lengthAdjust="spacing" textLength="75" x="747.7248" y="894.8925">Delegation</text></g><g id="elem_Konsultation"><ellipse cx="788.0233" cy="824.9047" fill="#F1F1F1" rx="67.5233" ry="15.9047" style="stroke:#181818;stroke-width:0.5;"/><text fill="#000000" font-family="sans-serif" font-size="14" lengthAdjust="spacing" textLength="86" x="742.0233" y="828.6522">Konsultation</text></g><g id="elem_Transparenz"><ellipse cx="1018.3807" cy="817.9761" fill="#F1F1F1" rx="67.8807" ry="15.9761" style="stroke:#181818;stroke-width:0.5;"/><text fill="#000000" font-family="sans-serif" font-size="14" lengthAdjust="spacing" textLength="87" x="971.8807" y="821.7237">Transparenz</text></g><g id="elem_Information &amp;\nHistorie"><ellipse cx="1018.3045" cy="741.0654" fill="#F1F1F1" rx="77.3045" ry="26.0654" style="stroke:#181818;stroke-width:0.5;"/><text fill="#000000" font-family="sans-serif" font-size="14" lengthAdjust="spacing" textLength="93" x="969.7229" y="736.4098">Information &amp;</text><text fill="#000000" font-family="sans-serif" font-size="14" lengthAdjust="spacing" textLength="52" x="990.2229" y="752.7067">Historie</text></g><g id="elem_Aufnahme"><ellipse cx="271.0868" cy="720.8174" fill="#F1F1F1" rx="62.0868" ry="14.8174" style="stroke:#181818;stroke-width:0.5;"/><text fill="#000000" font-family="sans-serif" font-size="14" lengthAdjust="spacing" textLength="70" x="233.0868" y="724.5649">Aufnahme</text></g><g id="elem_Behandlungs-Journey"><ellipse cx="270.7771" cy="649.9554" fill="#F1F1F1" rx="92.7771" ry="20.9554" style="stroke:#181818;stroke-width:0.5;"/><text fill="#000000" font-family="sans-serif" font-size="14" lengthAdjust="spacing" textLength="148" x="196.7771" y="652.8021">Behandlungs-Journey</text></g><g id="elem_Entlassung"><ellipse cx="270.8963" cy="577.7793" fill="#F1F1F1" rx="64.3963" ry="15.2793" style="stroke:#181818;stroke-width:0.5;"/><text fill="#000000" font-family="sans-serif" font-size="14" lengthAdjust="spacing" textLength="77" x="229.3963" y="581.5268">Entlassung</text></g><g id="elem_&#220;berleitung"><ellipse cx="533.92" cy="730.984" fill="#F1F1F1" rx="65.42" ry="15.484" style="stroke:#181818;stroke-width:0.5;"/><text fill="#000000" font-family="sans-serif" font-size="14" lengthAdjust="spacing" textLength="80" x="490.92" y="734.7316">&#220;berleitung</text></g><g id="elem_Information"><ellipse cx="533.8963" cy="664.7793" fill="#F1F1F1" rx="64.3963" ry="15.2793" style="stroke:#181818;stroke-width:0.5;"/><text fill="#000000" font-family="sans-serif" font-size="14" lengthAdjust="spacing" textLength="77" x="492.3963" y="668.5268">Information</text></g><g id="elem_Einbeziehung \nAngeh&#246;riger"><ellipse cx="534.1541" cy="588.0958" fill="#F1F1F1" rx="81.6541" ry="26.0958" style="stroke:#181818;stroke-width:0.5;"/><text fill="#000000" font-family="sans-serif" font-size="14" lengthAdjust="spacing" textLength="95" x="481.6541" y="583.6949">Einbeziehung</text><text fill="#000000" font-family="sans-serif" font-size="14" lengthAdjust="spacing" textLength="85" x="488.6541" y="599.9918">Angeh&#246;riger</text></g><g id="elem_Einsichtnahme"><ellipse cx="787.9504" cy="730.0901" fill="#F1F1F1" rx="73.4504" ry="17.0901" style="stroke:#181818;stroke-width:0.5;"/><text fill="#000000" font-family="sans-serif" font-size="14" lengthAdjust="spacing" textLength="102" x="733.9504" y="733.8376">Einsichtnahme</text></g><g id="elem_Diagnostizieren"><ellipse cx="787.7754" cy="660.0551" fill="#F1F1F1" rx="75.7754" ry="17.5551" style="stroke:#181818;stroke-width:0.5;"/><text fill="#000000" font-family="sans-serif" font-size="14" lengthAdjust="spacing" textLength="108" x="730.7754" y="663.8026">Diagnostizieren</text></g><g id="elem_Leistungserbringung"><ellipse cx="788.0567" cy="587.0113" fill="#F1F1F1" rx="90.5567" ry="20.5113" style="stroke:#181818;stroke-width:0.5;"/><text fill="#000000" font-family="sans-serif" font-size="14" lengthAdjust="spacing" textLength="143" x="716.5567" y="589.858">Leistungserbringung</text></g><g id="elem_Merhfachdokumentation"><ellipse cx="271.2481" cy="380.8496" fill="#F1F1F1" rx="102.2481" ry="22.8496" style="stroke:#181818;stroke-width:0.5;"/><text fill="#000000" font-family="sans-serif" font-size="14" lengthAdjust="spacing" textLength="169" x="186.7481" y="383.6963">Merhfachdokumentation</text></g><g id="elem_Dokumentationsl&#252;cken"><ellipse cx="271.1147" cy="301.1229" fill="#F1F1F1" rx="98.6147" ry="22.1229" style="stroke:#181818;stroke-width:0.5;"/><text fill="#000000" font-family="sans-serif" font-size="14" lengthAdjust="spacing" textLength="161" x="190.6147" y="303.9696">Dokumentationsl&#252;cken</text></g><g id="elem_Nicht-Verf&#252;gbarkeit"><ellipse cx="534.228" cy="381.0456" fill="#F1F1F1" rx="85.728" ry="19.5456" style="stroke:#181818;stroke-width:0.5;"/><text fill="#000000" font-family="sans-serif" font-size="14" lengthAdjust="spacing" textLength="132" x="468.228" y="383.8923">Nicht-Verf&#252;gbarkeit</text></g><g id="elem_Verlust"><ellipse cx="533.8836" cy="312.1478" fill="#F1F1F1" rx="45.8836" ry="14.6478" style="stroke:#181818;stroke-width:0.5;"/><text fill="#000000" font-family="sans-serif" font-size="14" lengthAdjust="spacing" textLength="48" x="506.8836" y="315.8954">Verlust</text></g><g id="elem_Patient"><ellipse cx="270.8836" cy="229.1478" fill="#F1F1F1" rx="45.8836" ry="14.6478" style="stroke:#181818;stroke-width:0.5;"/><text fill="#000000" font-family="sans-serif" font-size="14" lengthAdjust="spacing" textLength="48" x="243.8836" y="232.8954">Patient</text></g><g id="elem_Fall"><ellipse cx="271.0416" cy="165.0236" fill="#F1F1F1" rx="27.0416" ry="14.5236" style="stroke:#181818;stroke-width:0.5;"/><text fill="#000000" font-family="sans-serif" font-size="14" lengthAdjust="spacing" textLength="22" x="260.0416" y="167.8703">Fall</text></g><g id="elem_Diagnose"><ellipse cx="270.8197" cy="99.7671" fill="#F1F1F1" rx="59.3197" ry="14.7671" style="stroke:#181818;stroke-width:0.5;"/><text fill="#000000" font-family="sans-serif" font-size="14" lengthAdjust="spacing" textLength="66" x="234.8197" y="103.5147">Diagnose</text></g><g id="elem_Behandlung"><ellipse cx="533.8142" cy="227.7628" fill="#F1F1F1" rx="66.8142" ry="15.7628" style="stroke:#181818;stroke-width:0.5;"/><text fill="#000000" font-family="sans-serif" font-size="14" lengthAdjust="spacing" textLength="84" x="488.8142" y="231.5104">Behandlung</text></g><g id="elem_Ort-Zeit"><ellipse cx="534.1151" cy="162.1874" fill="#F1F1F1" rx="49.6151" ry="14.6874" style="stroke:#181818;stroke-width:0.5;"/><text fill="#000000" font-family="sans-serif" font-size="14" lengthAdjust="spacing" textLength="53" x="504.6151" y="165.9349">Ort-Zeit</text></g><g id="elem_Synchronisation"><ellipse cx="1295.5612" cy="607.2122" fill="#F1F1F1" rx="76.5612" ry="17.7122" style="stroke:#181818;stroke-width:0.5;"/><text fill="#000000" font-family="sans-serif" font-size="14" lengthAdjust="spacing" textLength="110" x="1237.5612" y="610.9598">Synchronisation</text></g><g id="elem_Performance &amp; \nDatensparsamkeit"><ellipse cx="1295.5807" cy="528.0473" fill="#F1F1F1" rx="100.5807" ry="26.0473" style="stroke:#181818;stroke-width:0.5;"/><text fill="#000000" font-family="sans-serif" font-size="14" lengthAdjust="spacing" textLength="104" x="1241.5807" y="522.7455">Performance &amp;</text><text fill="#000000" font-family="sans-serif" font-size="14" lengthAdjust="spacing" textLength="126" x="1232.5807" y="539.0424">Datensparsamkeit</text></g><g id="elem_Wechsel f&#252;hrendes System"><ellipse cx="1295.4443" cy="442.1889" fill="#F1F1F1" rx="111.4443" ry="24.6889" style="stroke:#181818;stroke-width:0.5;"/><text fill="#000000" font-family="sans-serif" font-size="14" lengthAdjust="spacing" textLength="189" x="1200.9443" y="445.0355">Wechsel f&#252;hrendes System</text></g><g id="elem_Kommunikation"><ellipse cx="1569.3844" cy="606.9769" fill="#F1F1F1" rx="75.3844" ry="17.4769" style="stroke:#181818;stroke-width:0.5;"/><text fill="#000000" font-family="sans-serif" font-size="14" lengthAdjust="spacing" textLength="107" x="1512.8844" y="610.7244">Kommunikation</text></g><g id="elem_Eindeutigkeit"><ellipse cx="1569.464" cy="538.1928" fill="#F1F1F1" rx="68.964" ry="16.1928" style="stroke:#181818;stroke-width:0.5;"/><text fill="#000000" font-family="sans-serif" font-size="14" lengthAdjust="spacing" textLength="90" x="1521.464" y="541.9404">Eindeutigkeit</text></g><g id="elem_Grundlagen-Ressourcen"><ellipse cx="1569.7042" cy="463.9408" fill="#F1F1F1" rx="102.7042" ry="22.9408" style="stroke:#181818;stroke-width:0.5;"/><text fill="#000000" font-family="sans-serif" font-size="14" lengthAdjust="spacing" textLength="170" x="1484.7042" y="466.7875">Grundlagen-Ressourcen</text></g><!--entity Heilberufler--><g id="elem_Heilberufler"><ellipse cx="48" cy="449.5" fill="#F1F1F1" rx="8" ry="8" style="stroke:#181818;stroke-width:0.5;"/><path d="M48,457.5 L48,484.5 M35,465.5 L61,465.5 M48,484.5 L35,499.5 M48,484.5 L61,499.5 " fill="none" style="stroke:#181818;stroke-width:0.5;"/><text fill="#000000" font-family="sans-serif" font-size="14" lengthAdjust="spacing" textLength="78" x="9" y="513.9951">Heilberufler</text></g><!--entity Versicherter--><g id="elem_Versicherter"><ellipse cx="48" cy="741.5" fill="#F1F1F1" rx="8" ry="8" style="stroke:#181818;stroke-width:0.5;"/><path d="M48,749.5 L48,776.5 M35,757.5 L61,757.5 M48,776.5 L35,791.5 M48,776.5 L61,791.5 " fill="none" style="stroke:#181818;stroke-width:0.5;"/><text fill="#000000" font-family="sans-serif" font-size="14" lengthAdjust="spacing" textLength="84" x="6" y="805.9951">Versicherter</text></g><!--entity FhirRepo--><g id="elem_FhirRepo"><ellipse cx="1018.5" cy="232.2969" fill="#F1F1F1" rx="8" ry="8" style="stroke:#181818;stroke-width:0.5;"/><path d="M1018.5,240.2969 L1018.5,267.2969 M1005.5,248.2969 L1031.5,248.2969 M1018.5,267.2969 L1005.5,282.2969 M1018.5,267.2969 L1031.5,282.2969 " fill="none" style="stroke:#181818;stroke-width:0.5;"/><text fill="#000000" font-family="sans-serif" font-size="14" lengthAdjust="spacing" textLength="109" x="964" y="296.792">FHIR Repository</text><text fill="#000000" font-family="sans-serif" font-size="14" font-style="italic" lengthAdjust="spacing" textLength="119" x="959" y="220.4951">&#171;Technical User&#187;</text></g><!--entity Client--><g id="elem_Client"><ellipse cx="1018.5" cy="360.2969" fill="#F1F1F1" rx="8" ry="8" style="stroke:#181818;stroke-width:0.5;"/><path d="M1018.5,368.2969 L1018.5,395.2969 M1005.5,376.2969 L1031.5,376.2969 M1018.5,395.2969 L1005.5,410.2969 M1018.5,395.2969 L1031.5,410.2969 " fill="none" style="stroke:#181818;stroke-width:0.5;"/><text fill="#000000" font-family="sans-serif" font-size="14" lengthAdjust="spacing" textLength="39" x="999" y="424.792">Client</text><text fill="#000000" font-family="sans-serif" font-size="14" font-style="italic" lengthAdjust="spacing" textLength="119" x="959" y="348.4951">&#171;Technical User&#187;</text></g><!--link Heilberufler to gnrlUC--><g id="link_Heilberufler_gnrlUC"><path d="M87.24,479 C95.0238,479 103.6591,479 112.8185,479 C113.1047,479 107.3915,479 107.6787,479 " fill="none" id="Heilberufler-to-gnrlUC" style="stroke:#181818;stroke-width:1.0;"/><polygon fill="#181818" points="113.6787,479,104.6787,475,108.6787,479,104.6787,483,113.6787,479" style="stroke:#181818;stroke-width:1.0;"/></g><!--link Versicherter to patientUC--><g id="link_Versicherter_patientUC"><path d="M90.05,771 C105.7775,771 124.6625,771 144.1984,771 C146.6404,771 149.0926,771 151.55,771 C152.1644,771 146.7791,771 147.394,771 " fill="none" id="Versicherter-to-patientUC" style="stroke:#181818;stroke-width:1.0;"/><polygon fill="#181818" points="153.394,771,144.394,767,148.394,771,144.394,775,153.394,771" style="stroke:#181818;stroke-width:1.0;"/></g><!--link FhirRepo to techUC--><g id="link_FhirRepo_techUC"><path d="M1078.16,281.3 C1117.91,299.805 1170.94,324.4875 1214.5475,344.7837 C1219.9984,347.3208 1225.3021,349.7893 1230.4143,352.1686 C1231.6923,352.7634 1232.9584,353.3527 1234.2118,353.9361 C1234.8385,354.2277 1230.0223,351.9862 1230.6426,352.2749 " fill="none" id="FhirRepo-to-techUC" style="stroke:#181818;stroke-width:1.0;"/><polygon fill="#181818" points="1236.0823,354.8066,1229.6106,347.3825,1231.5492,352.6968,1226.2349,354.6354,1236.0823,354.8066" style="stroke:#181818;stroke-width:1.0;"/></g><!--link Client to techUC--><g id="link_Client_techUC"><path d="M1078.16,382 C1098.035,382 1121.23,382 1144.9072,382 C1147.8668,382 1150.834,382 1153.8032,382 C1155.2878,382 1156.7729,382 1158.2578,382 C1158.629,382 1153.0002,382 1153.3714,382 " fill="none" id="Client-to-techUC" style="stroke:#181818;stroke-width:1.0;"/><polygon fill="#181818" points="1159.3714,382,1150.3714,378,1154.3714,382,1150.3714,386,1159.3714,382" style="stroke:#181818;stroke-width:1.0;"/></g><!--SRC=[RLJBJXj14BplLumu03xu1oo4P708924Wp4EAk8ntUtTQdksrUcQ9JCIVv9Xlo8cRVomz-_3EAd3orXJTrTKrOo7tobUAiJ1UPSYGUgmeEN9hf8rcNQgDJjUwWANVMb2fhUeiFhL8uBSRK1LxKoN9aKvznMfsSNbrf-vWKpcKx-rCQQSMP-haHCqt6ukf3ctKwMdIyIy1xGgupYtmh0SVWHsc1jW7yCEQ5mOvGA7oFQI6fBHL3muu59-TMmJo3RFz-J4lSL9GXbG5iNqu3_I3kRK5b81qe7ubIlwEWvoAYvgAIGlCin89dUTccWvSO85UMtGeu-ofYsfTbz8_PivN79GCf2TaxrAZSoyEcJMWdmoT6oE4wrw0pUwFzTAvErvwhjU-vb776owqK9g6pdMClZEd1b_60i524QlxAlzMsv7WUzRaPEz0hnroHNd5PRlCmsUwn60aGdlQcxgHSnczy_Ms_GAQNclImMBo1wt3hROw9srAcAW1EmEZARDX-kcNgcQ2xMGu_KJUQkVsipJWxhV4oOg5OpWI75T0Mi4hWX6oUgOv5M1sV-LI08zPOGk-bJVW2zG5LSwZL11lefDl88O4rS0hHXgYyvQy3Q7JcQpKGP-xzYjaKvrh1wxFNqyFQVWfmN71ZqdaNETirFz2M_k_q5Zxu6m4th2V_jYdxwrTzRN4BjUfoJv8yYZTpkxUqtNlm_7tODbKDEUxzsAbUHnhMplvYipmCbddnEYUDbxih-9oIwdXgiztL-zMceJjKWhgKFQuq1Ap45YdowZjKp0Fh191HlQLWLFBhVDGxfDVbZNXEYujky-WzbX4TJxBzSciYARf7JWdkKp3r39CaiJlcPfEJxkN9OcVj0RVNuuasRzb0MzzIBfNAqAIevnIxnfeICvCbIZgP60N4xhtRAQ0zCg2-mS0]--></g></svg>