<?xml version="1.0" encoding="us-ascii" standalone="no"?><svg xmlns="http://www.w3.org/2000/svg" xmlns:xlink="http://www.w3.org/1999/xlink" contentStyleType="text/css" height="899px" preserveAspectRatio="none" style="width:701px;height:899px;background:#FFFFFF;" version="1.1" viewBox="0 0 701 899" width="701px" zoomAndPan="magnify"><defs/><g><!--cluster adverseUC--><g id="cluster_adverseUC"><rect fill="none" height="360" rx="35" ry="35" style="stroke:#181818;stroke-width:1.0;" width="482.5" x="7" y="533.5"/><text fill="#000000" font-family="sans-serif" font-size="14" font-weight="bold" lengthAdjust="spacing" textLength="145" x="175.75" y="553.4951">Adverse Use Case</text></g><!--cluster Verwechslung--><g id="cluster_Verwechslung"><rect fill="none" height="157" rx="35" ry="35" style="stroke:#181818;stroke-width:1.0;" width="434.5" x="31" y="576.5"/><text fill="#000000" font-family="sans-serif" font-size="14" font-weight="bold" lengthAdjust="spacing" textLength="114" x="191.25" y="596.4951">Verwechslung</text></g><!--cluster gnrlUC--><g id="cluster_gnrlUC"><rect fill="none" height="485" rx="35" ry="35" style="stroke:#181818;stroke-width:1.0;" width="433" x="262.5" y="16.5"/><text fill="#000000" font-family="sans-serif" font-size="14" font-weight="bold" lengthAdjust="spacing" textLength="77" x="440.5" y="36.4951">Allgemein</text></g><!--cluster booKUC--><g id="cluster_booKUC"><rect fill="none" height="150" rx="35" ry="35" style="stroke:#181818;stroke-width:1.0;" width="369" x="294.5" y="75.5"/><text fill="#000000" font-family="sans-serif" font-size="14" font-weight="bold" lengthAdjust="spacing" textLength="201" x="378.5" y="95.4951">Dokumenten&#252;bermittlung</text></g><g id="elem_Merhfachdokumentation"><ellipse cx="131.7481" cy="854.3496" fill="#F1F1F1" rx="102.2481" ry="22.8496" style="stroke:#181818;stroke-width:0.5;"/><text fill="#000000" font-family="sans-serif" font-size="14" lengthAdjust="spacing" textLength="169" x="47.2481" y="857.1963">Merhfachdokumentation</text></g><g id="elem_Dokumentationsl&#252;cken"><ellipse cx="131.6147" cy="774.6229" fill="#F1F1F1" rx="98.6147" ry="22.1229" style="stroke:#181818;stroke-width:0.5;"/><text fill="#000000" font-family="sans-serif" font-size="14" lengthAdjust="spacing" textLength="161" x="51.1147" y="777.4696">Dokumentationsl&#252;cken</text></g><g id="elem_Nicht-Verf&#252;gbarkeit"><ellipse cx="379.228" cy="854.5456" fill="#F1F1F1" rx="85.728" ry="19.5456" style="stroke:#181818;stroke-width:0.5;"/><text fill="#000000" font-family="sans-serif" font-size="14" lengthAdjust="spacing" textLength="132" x="313.228" y="857.3923">Nicht-Verf&#252;gbarkeit</text></g><g id="elem_Verlust"><ellipse cx="378.8836" cy="785.6478" fill="#F1F1F1" rx="45.8836" ry="14.6478" style="stroke:#181818;stroke-width:0.5;"/><text fill="#000000" font-family="sans-serif" font-size="14" lengthAdjust="spacing" textLength="48" x="351.8836" y="789.3954">Verlust</text></g><g id="elem_Metainformationen"><ellipse cx="131.4263" cy="697.2853" fill="#F1F1F1" rx="84.4263" ry="19.2853" style="stroke:#181818;stroke-width:0.5;"/><text fill="#000000" font-family="sans-serif" font-size="14" lengthAdjust="spacing" textLength="129" x="66.805" y="700.1739">Metainformationen</text></g><g id="elem_Zuordnung"><ellipse cx="131.7353" cy="627.3471" fill="#F1F1F1" rx="64.7353" ry="15.3471" style="stroke:#181818;stroke-width:0.5;"/><text fill="#000000" font-family="sans-serif" font-size="14" lengthAdjust="spacing" textLength="78" x="89.7353" y="631.0946">Zuordnung</text></g><g id="elem_Dokumenttyp"><ellipse cx="378.9333" cy="697.4867" fill="#F1F1F1" rx="70.4333" ry="16.4867" style="stroke:#181818;stroke-width:0.5;"/><text fill="#000000" font-family="sans-serif" font-size="14" lengthAdjust="spacing" textLength="94" x="328.9333" y="701.2342">Dokumenttyp</text></g><g id="elem_Information"><ellipse cx="378.8963" cy="461.2793" fill="#F1F1F1" rx="64.3963" ry="15.2793" style="stroke:#181818;stroke-width:0.5;"/><text fill="#000000" font-family="sans-serif" font-size="14" lengthAdjust="spacing" textLength="77" x="337.3963" y="465.0268">Information</text></g><g id="elem_Erstellung"><ellipse cx="379.0597" cy="395.282" fill="#F1F1F1" rx="61.5597" ry="14.782" style="stroke:#181818;stroke-width:0.5;"/><text fill="#000000" font-family="sans-serif" font-size="14" lengthAdjust="spacing" textLength="69" x="341.5597" y="399.0295">Erstellung</text></g><g id="elem_Aktualisierung"><ellipse cx="379.0529" cy="328.7106" fill="#F1F1F1" rx="71.5529" ry="16.7106" style="stroke:#181818;stroke-width:0.5;"/><text fill="#000000" font-family="sans-serif" font-size="14" lengthAdjust="spacing" textLength="97" x="327.5529" y="332.4581">Aktualisierung</text></g><g id="elem_Digitalisierung"><ellipse cx="379.0529" cy="260.7106" fill="#F1F1F1" rx="71.5529" ry="16.7106" style="stroke:#181818;stroke-width:0.5;"/><text fill="#000000" font-family="sans-serif" font-size="14" lengthAdjust="spacing" textLength="97" x="327.5529" y="264.4581">Digitalisierung</text></g><g id="elem_Strukturierung"><ellipse cx="596.8073" cy="395.3615" fill="#F1F1F1" rx="72.3073" ry="16.8615" style="stroke:#181818;stroke-width:0.5;"/><text fill="#000000" font-family="sans-serif" font-size="14" lengthAdjust="spacing" textLength="99" x="544.3073" y="399.109">Strukturierung</text></g><g id="elem_Archivierung"><ellipse cx="597.1678" cy="327.3336" fill="#F1F1F1" rx="67.1678" ry="15.8336" style="stroke:#181818;stroke-width:0.5;"/><text fill="#000000" font-family="sans-serif" font-size="14" lengthAdjust="spacing" textLength="85" x="551.6678" y="331.0811">Archivierung</text></g><g id="elem_&#220;bernahme"><ellipse cx="378.7655" cy="193.5531" fill="#F1F1F1" rx="65.7655" ry="15.5531" style="stroke:#181818;stroke-width:0.5;"/><text fill="#000000" font-family="sans-serif" font-size="14" lengthAdjust="spacing" textLength="81" x="335.2655" y="197.3007">&#220;bernahme</text></g><g id="elem_Verarbeitung"><ellipse cx="379.1011" cy="126.6202" fill="#F1F1F1" rx="68.6011" ry="16.1202" style="stroke:#181818;stroke-width:0.5;"/><text fill="#000000" font-family="sans-serif" font-size="14" lengthAdjust="spacing" textLength="89" x="331.6011" y="130.3678">Verarbeitung</text></g><g id="elem_Einsicht"><ellipse cx="596.8615" cy="193.6946" fill="#F1F1F1" rx="50.3615" ry="14.6946" style="stroke:#181818;stroke-width:0.5;"/><text fill="#000000" font-family="sans-serif" font-size="14" lengthAdjust="spacing" textLength="54" x="566.8615" y="197.4422">Einsicht</text></g><g id="elem_Pr&#252;fung"><ellipse cx="596.8615" cy="129.6946" fill="#F1F1F1" rx="50.3615" ry="14.6946" style="stroke:#181818;stroke-width:0.5;"/><text fill="#000000" font-family="sans-serif" font-size="14" lengthAdjust="spacing" textLength="54" x="566.8615" y="133.4422">Pr&#252;fung</text></g><!--entity Heilberufler--><g id="elem_Heilberufler"><ellipse cx="131.5" cy="14" fill="#F1F1F1" rx="8" ry="8" style="stroke:#181818;stroke-width:0.5;"/><path d="M131.5,22 L131.5,49 M118.5,30 L144.5,30 M131.5,49 L118.5,64 M131.5,49 L144.5,64 " fill="none" style="stroke:#181818;stroke-width:0.5;"/><text fill="#000000" font-family="sans-serif" font-size="14" lengthAdjust="spacing" textLength="78" x="92.5" y="78.4951">Heilberufler</text></g><!--entity Versicherter--><g id="elem_Versicherter"><ellipse cx="131.5" cy="432" fill="#F1F1F1" rx="8" ry="8" style="stroke:#181818;stroke-width:0.5;"/><path d="M131.5,440 L131.5,467 M118.5,448 L144.5,448 M131.5,467 L118.5,482 M131.5,467 L144.5,482 " fill="none" style="stroke:#181818;stroke-width:0.5;"/><text fill="#000000" font-family="sans-serif" font-size="14" lengthAdjust="spacing" textLength="84" x="89.5" y="496.4951">Versicherter</text></g><!--link Heilberufler to gnrlUC--><g id="link_Heilberufler_gnrlUC"><path d="M170.59,43.5 C187.56,43.5 208.7388,43.5 231.027,43.5 C236.5991,43.5 242.2405,43.5 247.9029,43.5 C250.734,43.5 253.5704,43.5 256.406,43.5 C257.8238,43.5 259.2414,43.5 260.658,43.5 C261.0121,43.5 255.3662,43.5 255.7203,43.5 " fill="none" id="Heilberufler-to-gnrlUC" style="stroke:#181818;stroke-width:1.0;"/><polygon fill="#181818" points="261.7203,43.5,252.7203,39.5,256.7203,43.5,252.7203,47.5,261.7203,43.5" style="stroke:#181818;stroke-width:1.0;"/></g><!--link Versicherter to Information--><g id="link_Versicherter_Information"><path d="M173.59,461.5 C211.95,461.5 263.77,461.5 308.14,461.5 " fill="none" id="Versicherter-to-Information" style="stroke:#181818;stroke-width:1.0;"/><polygon fill="#181818" points="314.14,461.5,305.14,457.5,309.14,461.5,305.14,465.5,314.14,461.5" style="stroke:#181818;stroke-width:1.0;"/></g><!--SRC=[PPB1Rjim38RlVWeYbpg7l41G1CYQ3Ys63KEBxh2RhD0sOLaoABf3CEHDzYYv-SL6ExRZeW9yu4UAul-R3dC12S1Kb097OhH2mITtiIBV63OrDCPMfi1NEJa4wq9xN6OTUPHJWn1Oof0aTyPAODX-VNf-WHTiGYIDJrim4GvVuFuUzatZo9h-6TZjah7-2Sbbo6tkaBSJ_8KSoPR8qiEeJ0S1StnNZcyFVS_L_Xh1ctuF9k8A_YQWPwfEjSaVj6LqhI_Mrrn_qkyeXdmUk1vcGR- -vNwtWO- -lt1ZXr2rDNfHjLTwJiO-NER6biSnFtIxLint1XPTTx7Lz4xwGvN9HgVBkqkH6QwGP4mfT6tKw9pCgWlFRfBiN84raf-qfiyt7MEBHuw2piqIqdqbhN4KIKsUuO4Aaa_qLRZLQlu0zsnBUb-YQR8iX6_ZP9DUzDr5_sPD8lq8guNjtJzDU5FMk8ORLSM6CtNWe-UFvFi5a0NwoTqbdwlElKNBtO7DPZTwbIpNP-0BctHJSsyb3losKLlGcQamWd5PC9g_1VGcSnZ_0m00]--></g></svg>