<?xml version="1.0" encoding="us-ascii" standalone="no"?><svg xmlns="http://www.w3.org/2000/svg" xmlns:xlink="http://www.w3.org/1999/xlink" contentStyleType="text/css" height="1151px" preserveAspectRatio="none" style="width:1729px;height:1151px;background:#FFFFFF;" version="1.1" viewBox="0 0 1729 1151" width="1729px" zoomAndPan="magnify"><defs/><g><!--cluster gnrlUC--><g id="cluster_gnrlUC"><rect fill="none" height="693" rx="35" ry="35" style="stroke:#181818;stroke-width:1.0;" width="1033" x="114" y="452"/><text fill="#000000" font-family="sans-serif" font-size="14" font-weight="bold" lengthAdjust="spacing" textLength="77" x="592" y="471.9951">Allgemein</text></g><!--cluster patientUC--><g id="cluster_patientUC"><rect fill="none" height="325" rx="35" ry="35" style="stroke:#181818;stroke-width:1.0;" width="753" x="154" y="519"/><text fill="#000000" font-family="sans-serif" font-size="14" font-weight="bold" lengthAdjust="spacing" textLength="182" x="439.5" y="538.9951">Patienten-Management</text></g><!--cluster adverseUC--><g id="cluster_adverseUC"><rect fill="none" height="413" rx="35" ry="35" style="stroke:#181818;stroke-width:1.0;" width="488" x="153" y="7"/><text fill="#000000" font-family="sans-serif" font-size="14" font-weight="bold" lengthAdjust="spacing" textLength="154" x="320" y="26.9951">Adverse Use Cases</text></g><!--cluster Verwechslung--><g id="cluster_Verwechslung"><rect fill="none" height="210" rx="35" ry="35" style="stroke:#181818;stroke-width:1.0;" width="421.5" x="195.5" y="50"/><text fill="#000000" font-family="sans-serif" font-size="14" font-weight="bold" lengthAdjust="spacing" textLength="114" x="349.25" y="69.9951">Verwechslung</text></g><!--cluster techUC--><g id="cluster_techUC"><rect fill="none" height="294" rx="35" ry="35" style="stroke:#181818;stroke-width:1.0;" width="536" x="1187" y="355"/><text fill="#000000" font-family="sans-serif" font-size="14" font-weight="bold" lengthAdjust="spacing" textLength="154" x="1378" y="374.9951">Technical Use Case</text></g><g id="elem_Versorgung"><ellipse cx="270.7655" cy="1104.0531" fill="#F1F1F1" rx="65.7655" ry="15.5531" style="stroke:#181818;stroke-width:0.5;"/><text fill="#000000" font-family="sans-serif" font-size="14" lengthAdjust="spacing" textLength="81" x="227.2655" y="1107.8007">Versorgung</text></g><g id="elem_Administration"><ellipse cx="270.9293" cy="1033.7859" fill="#F1F1F1" rx="71.9293" ry="16.7859" style="stroke:#181818;stroke-width:0.5;"/><text fill="#000000" font-family="sans-serif" font-size="14" lengthAdjust="spacing" textLength="98" x="218.9293" y="1037.5334">Administration</text></g><g id="elem_Digitalisierung"><ellipse cx="271.0529" cy="960.2106" fill="#F1F1F1" rx="71.5529" ry="16.7106" style="stroke:#181818;stroke-width:0.5;"/><text fill="#000000" font-family="sans-serif" font-size="14" lengthAdjust="spacing" textLength="97" x="219.5529" y="963.9581">Digitalisierung</text></g><g id="elem_Dokumentation"><ellipse cx="270.8844" cy="888.9769" fill="#F1F1F1" rx="75.3844" ry="17.4769" style="stroke:#181818;stroke-width:0.5;"/><text fill="#000000" font-family="sans-serif" font-size="14" lengthAdjust="spacing" textLength="107" x="214.3844" y="892.7244">Dokumentation</text></g><g id="elem_Abrechnung"><ellipse cx="534.1678" cy="1104.8336" fill="#F1F1F1" rx="67.1678" ry="15.8336" style="stroke:#181818;stroke-width:0.5;"/><text fill="#000000" font-family="sans-serif" font-size="14" lengthAdjust="spacing" textLength="85" x="488.6678" y="1108.5811">Abrechnung</text></g><g id="elem_Wirtschaftlichkeit"><ellipse cx="533.9652" cy="1036.193" fill="#F1F1F1" rx="78.9652" ry="18.193" style="stroke:#181818;stroke-width:0.5;"/><text fill="#000000" font-family="sans-serif" font-size="14" lengthAdjust="spacing" textLength="116" x="473.9" y="1039.6886">Wirtschaftlichkeit</text></g><g id="elem_Versicherungsverh&#228;ltnis"><ellipse cx="533.8822" cy="960.0764" fill="#F1F1F1" rx="100.8822" ry="22.5764" style="stroke:#181818;stroke-width:0.5;"/><text fill="#000000" font-family="sans-serif" font-size="14" lengthAdjust="spacing" textLength="166" x="450.8822" y="962.9231">Versicherungsverh&#228;ltnis</text></g><g id="elem_Strukturierung"><ellipse cx="533.8073" cy="884.8615" fill="#F1F1F1" rx="72.3073" ry="16.8615" style="stroke:#181818;stroke-width:0.5;"/><text fill="#000000" font-family="sans-serif" font-size="14" lengthAdjust="spacing" textLength="99" x="481.3073" y="888.609">Strukturierung</text></g><g id="elem_Organisationsstruktur"><ellipse cx="789.2229" cy="1094.0446" fill="#F1F1F1" rx="93.2229" ry="21.0446" style="stroke:#181818;stroke-width:0.5;"/><text fill="#000000" font-family="sans-serif" font-size="14" lengthAdjust="spacing" textLength="149" x="714.7229" y="1096.8913">Organisationsstruktur</text></g><g id="elem_Archivierung"><ellipse cx="789.1678" cy="1021.8336" fill="#F1F1F1" rx="67.1678" ry="15.8336" style="stroke:#181818;stroke-width:0.5;"/><text fill="#000000" font-family="sans-serif" font-size="14" lengthAdjust="spacing" textLength="85" x="743.6678" y="1025.5811">Archivierung</text></g><g id="elem_Delegation"><ellipse cx="789.2248" cy="956.145" fill="#F1F1F1" rx="63.7248" ry="15.145" style="stroke:#181818;stroke-width:0.5;"/><text fill="#000000" font-family="sans-serif" font-size="14" lengthAdjust="spacing" textLength="75" x="748.7248" y="959.8925">Delegation</text></g><g id="elem_Konsultation"><ellipse cx="789.0233" cy="889.9047" fill="#F1F1F1" rx="67.5233" ry="15.9047" style="stroke:#181818;stroke-width:0.5;"/><text fill="#000000" font-family="sans-serif" font-size="14" lengthAdjust="spacing" textLength="86" x="743.0233" y="893.6522">Konsultation</text></g><g id="elem_Transparenz"><ellipse cx="1032.8807" cy="936.9761" fill="#F1F1F1" rx="67.8807" ry="15.9761" style="stroke:#181818;stroke-width:0.5;"/><text fill="#000000" font-family="sans-serif" font-size="14" lengthAdjust="spacing" textLength="87" x="986.3807" y="940.7237">Transparenz</text></g><g id="elem_Information &amp;\nHistorie"><ellipse cx="1032.8045" cy="860.0654" fill="#F1F1F1" rx="77.3045" ry="26.0654" style="stroke:#181818;stroke-width:0.5;"/><text fill="#000000" font-family="sans-serif" font-size="14" lengthAdjust="spacing" textLength="93" x="984.2229" y="855.4098">Information &amp;</text><text fill="#000000" font-family="sans-serif" font-size="14" lengthAdjust="spacing" textLength="52" x="1004.7229" y="871.7067">Historie</text></g><g id="elem_Einbeziehung \nAngeh&#246;riger"><ellipse cx="1033.1541" cy="773.0958" fill="#F1F1F1" rx="81.6541" ry="26.0958" style="stroke:#181818;stroke-width:0.5;"/><text fill="#000000" font-family="sans-serif" font-size="14" lengthAdjust="spacing" textLength="95" x="980.6541" y="768.6949">Einbeziehung</text><text fill="#000000" font-family="sans-serif" font-size="14" lengthAdjust="spacing" textLength="85" x="987.6541" y="784.9918">Angeh&#246;riger</text></g><g id="elem_Organ- und \nGewebespende"><ellipse cx="1032.9741" cy="686.0473" fill="#F1F1F1" rx="89.9741" ry="26.0473" style="stroke:#181818;stroke-width:0.5;"/><text fill="#000000" font-family="sans-serif" font-size="14" lengthAdjust="spacing" textLength="78" x="991.9741" y="680.7455">Organ- und</text><text fill="#000000" font-family="sans-serif" font-size="14" lengthAdjust="spacing" textLength="111" x="977.4741" y="697.0424">Gewebespende</text></g><g id="elem_Kontakt"><ellipse cx="271.1151" cy="786.1874" fill="#F1F1F1" rx="49.6151" ry="14.6874" style="stroke:#181818;stroke-width:0.5;"/><text fill="#000000" font-family="sans-serif" font-size="14" lengthAdjust="spacing" textLength="53" x="241.6151" y="789.9349">Kontakt</text></g><g id="elem_Aufnahme"><ellipse cx="271.0868" cy="720.8174" fill="#F1F1F1" rx="62.0868" ry="14.8174" style="stroke:#181818;stroke-width:0.5;"/><text fill="#000000" font-family="sans-serif" font-size="14" lengthAdjust="spacing" textLength="70" x="233.0868" y="724.5649">Aufnahme</text></g><g id="elem_Behandlungs-Journey"><ellipse cx="270.7771" cy="649.9554" fill="#F1F1F1" rx="92.7771" ry="20.9554" style="stroke:#181818;stroke-width:0.5;"/><text fill="#000000" font-family="sans-serif" font-size="14" lengthAdjust="spacing" textLength="148" x="196.7771" y="652.8021">Behandlungs-Journey</text></g><g id="elem_Entlassung"><ellipse cx="270.8963" cy="577.7793" fill="#F1F1F1" rx="64.3963" ry="15.2793" style="stroke:#181818;stroke-width:0.5;"/><text fill="#000000" font-family="sans-serif" font-size="14" lengthAdjust="spacing" textLength="77" x="229.3963" y="581.5268">Entlassung</text></g><g id="elem_&#220;berleitung"><ellipse cx="533.92" cy="784.984" fill="#F1F1F1" rx="65.42" ry="15.484" style="stroke:#181818;stroke-width:0.5;"/><text fill="#000000" font-family="sans-serif" font-size="14" lengthAdjust="spacing" textLength="80" x="490.92" y="788.7316">&#220;berleitung</text></g><g id="elem_Information"><ellipse cx="533.8963" cy="718.7793" fill="#F1F1F1" rx="64.3963" ry="15.2793" style="stroke:#181818;stroke-width:0.5;"/><text fill="#000000" font-family="sans-serif" font-size="14" lengthAdjust="spacing" textLength="77" x="492.3963" y="722.5268">Information</text></g><g id="elem_Einsichtnahme"><ellipse cx="533.9504" cy="651.0901" fill="#F1F1F1" rx="73.4504" ry="17.0901" style="stroke:#181818;stroke-width:0.5;"/><text fill="#000000" font-family="sans-serif" font-size="14" lengthAdjust="spacing" textLength="102" x="479.9504" y="654.8376">Einsichtnahme</text></g><g id="elem_Diagnostizieren"><ellipse cx="533.7754" cy="581.0551" fill="#F1F1F1" rx="75.7754" ry="17.5551" style="stroke:#181818;stroke-width:0.5;"/><text fill="#000000" font-family="sans-serif" font-size="14" lengthAdjust="spacing" textLength="108" x="476.7754" y="584.8026">Diagnostizieren</text></g><g id="elem_Leistungserbringung"><ellipse cx="789.0567" cy="780.0113" fill="#F1F1F1" rx="90.5567" ry="20.5113" style="stroke:#181818;stroke-width:0.5;"/><text fill="#000000" font-family="sans-serif" font-size="14" lengthAdjust="spacing" textLength="143" x="717.5567" y="782.858">Leistungserbringung</text></g><g id="elem_Allergie \nund Inteloranzen"><ellipse cx="789.2168" cy="698.0473" fill="#F1F1F1" rx="94.2168" ry="26.0473" style="stroke:#181818;stroke-width:0.5;"/><text fill="#000000" font-family="sans-serif" font-size="14" lengthAdjust="spacing" textLength="50" x="762.2168" y="692.7455">Allergie</text><text fill="#000000" font-family="sans-serif" font-size="14" lengthAdjust="spacing" textLength="117" x="730.7168" y="709.0424">und Inteloranzen</text></g><g id="elem_Schwangerschaft"><ellipse cx="789.1963" cy="617.9393" fill="#F1F1F1" rx="80.1963" ry="18.4393" style="stroke:#181818;stroke-width:0.5;"/><text fill="#000000" font-family="sans-serif" font-size="14" lengthAdjust="spacing" textLength="119" x="728.1039" y="621.2979">Schwangerschaft</text></g><g id="elem_Merhfachdokumentation"><ellipse cx="271.2481" cy="380.8496" fill="#F1F1F1" rx="102.2481" ry="22.8496" style="stroke:#181818;stroke-width:0.5;"/><text fill="#000000" font-family="sans-serif" font-size="14" lengthAdjust="spacing" textLength="169" x="186.7481" y="383.6963">Merhfachdokumentation</text></g><g id="elem_Dokumentationsl&#252;cken"><ellipse cx="271.1147" cy="301.1229" fill="#F1F1F1" rx="98.6147" ry="22.1229" style="stroke:#181818;stroke-width:0.5;"/><text fill="#000000" font-family="sans-serif" font-size="14" lengthAdjust="spacing" textLength="161" x="190.6147" y="303.9696">Dokumentationsl&#252;cken</text></g><g id="elem_Nicht-Verf&#252;gbarkeit"><ellipse cx="534.228" cy="381.0456" fill="#F1F1F1" rx="85.728" ry="19.5456" style="stroke:#181818;stroke-width:0.5;"/><text fill="#000000" font-family="sans-serif" font-size="14" lengthAdjust="spacing" textLength="132" x="468.228" y="383.8923">Nicht-Verf&#252;gbarkeit</text></g><g id="elem_InformationsVerlust"><ellipse cx="534.1635" cy="307.1327" fill="#F1F1F1" rx="86.1635" ry="19.6327" style="stroke:#181818;stroke-width:0.5;"/><text fill="#000000" font-family="sans-serif" font-size="14" lengthAdjust="spacing" textLength="133" x="467.6635" y="309.9794">InformationsVerlust</text></g><g id="elem_Patient"><ellipse cx="270.8836" cy="229.1478" fill="#F1F1F1" rx="45.8836" ry="14.6478" style="stroke:#181818;stroke-width:0.5;"/><text fill="#000000" font-family="sans-serif" font-size="14" lengthAdjust="spacing" textLength="48" x="243.8836" y="232.8954">Patient</text></g><g id="elem_Fall"><ellipse cx="271.0416" cy="165.0236" fill="#F1F1F1" rx="27.0416" ry="14.5236" style="stroke:#181818;stroke-width:0.5;"/><text fill="#000000" font-family="sans-serif" font-size="14" lengthAdjust="spacing" textLength="22" x="260.0416" y="167.8703">Fall</text></g><g id="elem_Diagnose"><ellipse cx="270.8197" cy="99.7671" fill="#F1F1F1" rx="59.3197" ry="14.7671" style="stroke:#181818;stroke-width:0.5;"/><text fill="#000000" font-family="sans-serif" font-size="14" lengthAdjust="spacing" textLength="66" x="234.8197" y="103.5147">Diagnose</text></g><g id="elem_Behandlung"><ellipse cx="533.8142" cy="227.7628" fill="#F1F1F1" rx="66.8142" ry="15.7628" style="stroke:#181818;stroke-width:0.5;"/><text fill="#000000" font-family="sans-serif" font-size="14" lengthAdjust="spacing" textLength="84" x="488.8142" y="231.5104">Behandlung</text></g><g id="elem_Ort-Zeit"><ellipse cx="534.1151" cy="162.1874" fill="#F1F1F1" rx="49.6151" ry="14.6874" style="stroke:#181818;stroke-width:0.5;"/><text fill="#000000" font-family="sans-serif" font-size="14" lengthAdjust="spacing" textLength="53" x="504.6151" y="165.9349">Ort-Zeit</text></g><g id="elem_Synchronisation"><ellipse cx="1322.5612" cy="607.2122" fill="#F1F1F1" rx="76.5612" ry="17.7122" style="stroke:#181818;stroke-width:0.5;"/><text fill="#000000" font-family="sans-serif" font-size="14" lengthAdjust="spacing" textLength="110" x="1264.5612" y="610.9598">Synchronisation</text></g><g id="elem_Performance &amp; \nDatensparsamkeit"><ellipse cx="1322.5807" cy="528.0473" fill="#F1F1F1" rx="100.5807" ry="26.0473" style="stroke:#181818;stroke-width:0.5;"/><text fill="#000000" font-family="sans-serif" font-size="14" lengthAdjust="spacing" textLength="104" x="1268.5807" y="522.7455">Performance &amp;</text><text fill="#000000" font-family="sans-serif" font-size="14" lengthAdjust="spacing" textLength="126" x="1259.5807" y="539.0424">Datensparsamkeit</text></g><g id="elem_Wechsel f&#252;hrendes System"><ellipse cx="1322.4443" cy="442.1889" fill="#F1F1F1" rx="111.4443" ry="24.6889" style="stroke:#181818;stroke-width:0.5;"/><text fill="#000000" font-family="sans-serif" font-size="14" lengthAdjust="spacing" textLength="189" x="1227.9443" y="445.0355">Wechsel f&#252;hrendes System</text></g><g id="elem_Kommunikation"><ellipse cx="1596.3844" cy="606.9769" fill="#F1F1F1" rx="75.3844" ry="17.4769" style="stroke:#181818;stroke-width:0.5;"/><text fill="#000000" font-family="sans-serif" font-size="14" lengthAdjust="spacing" textLength="107" x="1539.8844" y="610.7244">Kommunikation</text></g><g id="elem_Eindeutigkeit"><ellipse cx="1596.464" cy="538.1928" fill="#F1F1F1" rx="68.964" ry="16.1928" style="stroke:#181818;stroke-width:0.5;"/><text fill="#000000" font-family="sans-serif" font-size="14" lengthAdjust="spacing" textLength="90" x="1548.464" y="541.9404">Eindeutigkeit</text></g><g id="elem_Grundlagen-Ressourcen"><ellipse cx="1596.7042" cy="463.9408" fill="#F1F1F1" rx="102.7042" ry="22.9408" style="stroke:#181818;stroke-width:0.5;"/><text fill="#000000" font-family="sans-serif" font-size="14" lengthAdjust="spacing" textLength="170" x="1511.7042" y="466.7875">Grundlagen-Ressourcen</text></g><!--entity Heilberufler--><g id="elem_Heilberufler"><ellipse cx="48" cy="449.5" fill="#F1F1F1" rx="8" ry="8" style="stroke:#181818;stroke-width:0.5;"/><path d="M48,457.5 L48,484.5 M35,465.5 L61,465.5 M48,484.5 L35,499.5 M48,484.5 L61,499.5 " fill="none" style="stroke:#181818;stroke-width:0.5;"/><text fill="#000000" font-family="sans-serif" font-size="14" lengthAdjust="spacing" textLength="78" x="9" y="513.9951">Heilberufler</text></g><!--entity Versicherter--><g id="elem_Versicherter"><ellipse cx="48" cy="806.5" fill="#F1F1F1" rx="8" ry="8" style="stroke:#181818;stroke-width:0.5;"/><path d="M48,814.5 L48,841.5 M35,822.5 L61,822.5 M48,841.5 L35,856.5 M48,841.5 L61,856.5 " fill="none" style="stroke:#181818;stroke-width:0.5;"/><text fill="#000000" font-family="sans-serif" font-size="14" lengthAdjust="spacing" textLength="84" x="6" y="870.9951">Versicherter</text></g><!--entity FhirRepo--><g id="elem_FhirRepo"><ellipse cx="1033" cy="232.2969" fill="#F1F1F1" rx="8" ry="8" style="stroke:#181818;stroke-width:0.5;"/><path d="M1033,240.2969 L1033,267.2969 M1020,248.2969 L1046,248.2969 M1033,267.2969 L1020,282.2969 M1033,267.2969 L1046,282.2969 " fill="none" style="stroke:#181818;stroke-width:0.5;"/><text fill="#000000" font-family="sans-serif" font-size="14" lengthAdjust="spacing" textLength="109" x="978.5" y="296.792">FHIR Repository</text><text fill="#000000" font-family="sans-serif" font-size="14" font-style="italic" lengthAdjust="spacing" textLength="119" x="973.5" y="220.4951">&#171;Technical User&#187;</text></g><!--entity Client--><g id="elem_Client"><ellipse cx="1033" cy="360.2969" fill="#F1F1F1" rx="8" ry="8" style="stroke:#181818;stroke-width:0.5;"/><path d="M1033,368.2969 L1033,395.2969 M1020,376.2969 L1046,376.2969 M1033,395.2969 L1020,410.2969 M1033,395.2969 L1046,410.2969 " fill="none" style="stroke:#181818;stroke-width:0.5;"/><text fill="#000000" font-family="sans-serif" font-size="14" lengthAdjust="spacing" textLength="39" x="1013.5" y="424.792">Client</text><text fill="#000000" font-family="sans-serif" font-size="14" font-style="italic" lengthAdjust="spacing" textLength="119" x="973.5" y="348.4951">&#171;Technical User&#187;</text></g><!--link Heilberufler to gnrlUC--><g id="link_Heilberufler_gnrlUC"><path d="M87.24,479 C95.0238,479 103.6591,479 112.8185,479 C113.1047,479 107.3915,479 107.6787,479 " fill="none" id="Heilberufler-to-gnrlUC" style="stroke:#181818;stroke-width:1.0;"/><polygon fill="#181818" points="113.6787,479,104.6787,475,108.6787,479,104.6787,483,113.6787,479" style="stroke:#181818;stroke-width:1.0;"/></g><!--link Versicherter to patientUC--><g id="link_Versicherter_patientUC"><path d="M90.05,836 C105.7775,836 124.6625,836 144.1984,836 C146.6404,836 149.0926,836 151.55,836 C152.1644,836 146.7791,836 147.394,836 " fill="none" id="Versicherter-to-patientUC" style="stroke:#181818;stroke-width:1.0;"/><polygon fill="#181818" points="153.394,836,144.394,832,148.394,836,144.394,840,153.394,836" style="stroke:#181818;stroke-width:1.0;"/></g><!--link FhirRepo to techUC--><g id="link_FhirRepo_techUC"><path d="M1092.53,280.06 C1133.9,298.48 1190.015,323.4625 1236.3375,344.085 C1242.1278,346.6628 1247.7651,349.1725 1253.2015,351.5927 C1254.5606,352.1978 1255.9071,352.7973 1257.2403,353.3908 C1257.907,353.6876 1258.5702,353.9829 1259.2301,354.2766 C1259.56,354.4235 1254.4078,352.1298 1254.736,352.2759 " fill="none" id="FhirRepo-to-techUC" style="stroke:#181818;stroke-width:1.0;"/><polygon fill="#181818" points="1260.2173,354.7161,1253.6221,347.4015,1255.6495,352.6826,1250.3685,354.71,1260.2173,354.7161" style="stroke:#181818;stroke-width:1.0;"/></g><!--link Client to techUC--><g id="link_Client_techUC"><path d="M1092.53,382 C1113.215,382 1137.5863,382 1162.5766,382 C1168.8241,382 1175.1104,382 1181.3874,382 C1182.9567,382 1178.5254,382 1180.0927,382 " fill="none" id="Client-to-techUC" style="stroke:#181818;stroke-width:1.0;"/><polygon fill="#181818" points="1186.0927,382,1177.0927,378,1181.0927,382,1177.0927,386,1186.0927,382" style="stroke:#181818;stroke-width:1.0;"/></g><!--SRC=[RLHBRjj03Dth58Ciybdu0aOGm8dpQvicY9C6AB8PIxI6q8WIEAC4Jf6RTDapT9MTBrQEFlO8ZLUUHugVnqTQM7dbAyMO6wyoP4WzLfGSk0AfrgnBLUkqq3ai_Dg2IctLPB7L8e5Vrw0gzgPAaWET-ehLzEBg-bxTGrqvbFTwghHJyrDrVAncTMqnrI6DEZb9UlyhGBi4RbOMU3g0Fu0TfWRO1_3Jc1S6EK0XyWEaXYIqLOyEE0IVdba4ygrdz_TplyH9G6bIvSJsyIouxysipQ44f3trAr7oEmpbL9mtb1zrm2mhaT1vRhlfmJdcwBL5XzBErdLU5Kqf-MFFsP939Jkd9sJlKgDNNXWo1Q0_scLkYH1Vzm9iDd-ibyozUU6vANp3euotd6jnQHCwrtiCcJar-38k42paSNLVvRF6ZWf-O4rEvWxqrYFNjAgux8Qv_qnN68X4wAtdI4juGp2IHZtJZ78mcx-YDU2uo8bgA1Fx9Rp24bmDbFKHXh7Kaa78woTprxs09ZUQT1WI-RrkHaFbNXSzTrs_pOgqAU58xR1JC9eo6nYTVAaQ9bX7NvoJjzgvBJyjkFaj4hKobZ4SaH17G0epyrtY7Jv7dLFbF0enmcHa-GP2NwW7UCb8-JYBw14uHn2Y0btNGe0LTkXj56EHcbSjF7Edeyxodhpl9Aup4P23GUNTAso2EjCEtA3smJrexrLawW9JHn7B_HIYt1VQslyRZNlVSHw1j-mdFxTQV- -4SICYN-dKP9_ipMYNdDryfCN0mU7tGFb4QbvjFlAbvcY9eZ4vSR2D4qj4Z9SkUrP65wBbPNi45cjA3LV3PlMnxoHX24ufg7sPq5oBFCEgE5r69Jm58i4gASvmaBbJYxNpK6vthYmRmY8EBJhAeF6OHt4kPN4pAqNJv1wS4_McWG5f9adYIwecavF-fYNnCMtnxL8boVQA1hpZ8UdlPOGa1ojAlMkXdOgcgaIfJXfsiKD_IQSAI2yjk7y0]--></g></svg>